Roboto Serif Micro Wide-Super G1.ufo
<glyph name="numbersign" format="2">
  <advance width="802"/>
  <unicode hex="0023"/>
  <outline>
    <contour>
      <point x="151" y="0" type="line"/>
      <point x="237" y="0" type="line"/>
      <point x="403" y="780" type="line"/>
      <point x="317" y="780" type="line"/>
    </contour>
    <contour>
      <point x="36" y="201" type="line"/>
      <point x="710" y="201" type="line"/>
      <point x="710" y="319" type="line"/>
      <point x="36" y="319" type="line"/>
    </contour>
    <contour>
      <point x="92" y="492" type="line"/>
      <point x="766" y="492" type="line"/>
      <point x="766" y="610" type="line"/>
      <point x="92" y="610" type="line"/>
    </contour>
    <contour>
      <point x="399" y="0" type="line"/>
      <point x="485" y="0" type="line"/>
      <point x="651" y="780" type="line"/>
      <point x="565" y="780" type="line"/>
    </contour>
  </outline>
</glyph>
<glyph name="dollar" format="2">
  <advance width="680"/>
  <unicode hex="0024"/>
  <outline>
    <contour>
      <point x="308" y="787" type="line"/>
      <point x="308" y="662" type="line"/>
      <point x="320" y="642" type="line"/>
      <point x="320" y="64" type="line"/>
      <point x="308" y="44" type="line"/>
      <point x="308" y="-117" type="line"/>
      <point x="382" y="-117" type="line"/>
      <point x="382" y="43" type="line"/>
      <point x="372" y="66" type="line"/>
      <point x="372" y="649" type="line"/>
      <point x="382" y="671" type="line"/>
      <point x="382" y="787" type="line"/>
    </contour>
    <contour>
      <point x="341" y="79" type="curve" smooth="yes"/>
      <point x="220" y="79"/>
      <point x="145" y="115"/>
      <point x="104" y="140" type="curve"/>
      <point x="110" y="119"/>
      <point x="141" y="71"/>
      <point x="182" y="75" type="curve"/>
      <point x="182" y="219" type="line"/>
      <point x="28" y="219" type="line"/>
      <point x="28" y="87" type="line"/>
      <point x="90" y="54"/>
      <point x="202" y="14"/>
      <point x="346" y="14" type="curve" smooth="yes"/>
      <point x="567" y="14"/>
      <point x="658" y="95"/>
      <point x="658" y="252" type="curve" smooth="yes"/>
      <point x="658" y="392"/>
      <point x="551" y="443"/>
      <point x="363" y="479" type="curve" smooth="yes"/>
      <point x="243" y="502"/>
      <point x="207" y="515"/>
      <point x="207" y="561" type="curve" smooth="yes"/>
      <point x="207" y="602"/>
      <point x="243" y="633"/>
      <point x="351" y="633" type="curve" smooth="yes"/>
      <point x="427" y="633"/>
      <point x="481" y="618"/>
      <point x="536" y="584" type="curve"/>
      <point x="537" y="594"/>
      <point x="515" y="626"/>
      <point x="474" y="622" type="curve"/>
      <point x="474" y="520" type="line"/>
      <point x="628" y="520" type="line"/>
      <point x="628" y="635" type="line"/>
      <point x="586" y="665"/>
      <point x="482" y="697"/>
      <point x="353" y="697" type="curve" smooth="yes"/>
      <point x="141" y="697"/>
      <point x="46" y="629"/>
      <point x="46" y="486" type="curve" smooth="yes"/>
      <point x="46" y="338"/>
      <point x="148" y="290"/>
      <point x="330" y="254" type="curve" smooth="yes"/>
      <point x="444" y="236"/>
      <point x="492" y="212"/>
      <point x="492" y="163" type="curve" smooth="yes"/>
      <point x="492" y="106"/>
      <point x="441" y="79"/>
    </contour>
  </outline>
</glyph>
<glyph name="parenleft" format="2">
  <advance width="504"/>
  <unicode hex="0028"/>
  <outline>
    <contour>
      <point x="265" y="310" type="curve" smooth="yes"/>
      <point x="265" y="94"/>
      <point x="350" y="-33"/>
      <point x="494" y="-127" type="curve"/>
      <point x="494" y="-130" type="line"/>
      <point x="352" y="-130" type="line"/>
      <point x="195" y="-50"/>
      <point x="56" y="109"/>
      <point x="56" y="310" type="curve" smooth="yes"/>
      <point x="56" y="512"/>
      <point x="195" y="670"/>
      <point x="352" y="750" type="curve"/>
      <point x="494" y="750" type="line"/>
      <point x="494" y="747" type="line"/>
      <point x="350" y="654"/>
      <point x="265" y="527"/>
    </contour>
  </outline>
</glyph>
<glyph name="hyphen" format="2">
  <advance width="653"/>
  <unicode hex="002D"/>
  <outline>
    <contour>
      <point x="87" y="352" type="line"/>
      <point x="87" y="218" type="line"/>
      <point x="566" y="218" type="line"/>
      <point x="566" y="352" type="line"/>
    </contour>
  </outline>
</glyph>
<glyph name="one" format="2">
  <advance width="680"/>
  <unicode hex="0031"/>
  <outline>
    <contour>
      <point x="501" y="80" type="curve" smooth="yes"/>
      <point x="501" y="679" type="line"/>
      <point x="286" y="679" type="line"/>
      <point x="244" y="634"/>
      <point x="183" y="603"/>
      <point x="40" y="602" type="curve"/>
      <point x="40" y="501" type="line"/>
      <point x="163" y="500"/>
      <point x="232" y="532"/>
      <point x="262" y="644" type="curve"/>
      <point x="238" y="618" type="line"/>
      <point x="238" y="63" type="line" smooth="yes"/>
      <point x="238" y="53"/>
      <point x="218" y="50"/>
      <point x="188" y="50" type="curve" smooth="yes"/>
      <point x="69" y="50" type="line"/>
      <point x="69" y="0" type="line"/>
      <point x="648" y="0" type="line"/>
      <point x="648" y="50" type="line"/>
      <point x="551" y="50" type="line" smooth="yes"/>
      <point x="521" y="50"/>
      <point x="501" y="60"/>
    </contour>
  </outline>
</glyph>
<glyph name="two" format="2">
  <advance width="680"/>
  <unicode hex="0032"/>
  <outline>
    <contour>
      <point x="381" y="180" type="line" smooth="yes"/>
      <point x="476" y="180"/>
      <point x="530" y="181"/>
      <point x="537" y="216" type="curve" smooth="yes"/>
      <point x="547" y="266" type="line"/>
      <point x="636" y="266" type="line"/>
      <point x="636" y="0" type="line"/>
      <point x="47" y="0" type="line"/>
      <point x="47" y="179" type="line"/>
      <point x="280" y="266"/>
      <point x="372" y="349"/>
      <point x="372" y="482" type="curve" smooth="yes"/>
      <point x="372" y="596"/>
      <point x="339" y="623"/>
      <point x="284" y="623" type="curve" smooth="yes"/>
      <point x="228" y="623"/>
      <point x="195" y="610"/>
      <point x="161" y="588" type="curve"/>
      <point x="153" y="615"/>
      <point x="160" y="639"/>
      <point x="206" y="643" type="curve"/>
      <point x="206" y="448" type="line"/>
      <point x="50" y="448" type="line"/>
      <point x="50" y="625" type="line"/>
      <point x="98" y="655"/>
      <point x="203" y="693"/>
      <point x="333" y="693" type="curve" smooth="yes"/>
      <point x="539" y="693"/>
      <point x="622" y="628"/>
      <point x="622" y="504" type="curve" smooth="yes"/>
      <point x="622" y="330"/>
      <point x="364" y="256"/>
      <point x="88" y="152" type="curve"/>
      <point x="64" y="167"/>
      <point x="67" y="162"/>
      <point x="95" y="180" type="curve"/>
    </contour>
  </outline>
</glyph>
<glyph name="three" format="2">
  <advance width="680"/>
  <unicode hex="0033"/>
  <outline>
    <contour>
      <point x="332" y="319" type="line"/>
      <point x="556" y="310"/>
      <point x="643" y="271"/>
      <point x="643" y="151" type="curve" smooth="yes"/>
      <point x="643" y="-10"/>
      <point x="503" y="-58"/>
      <point x="330" y="-58" type="curve" smooth="yes"/>
      <point x="134" y="-58"/>
      <point x="65" y="1"/>
      <point x="18" y="91" type="curve"/>
      <point x="100" y="140" type="line"/>
      <point x="144" y="63"/>
      <point x="196" y="42"/>
      <point x="266" y="42" type="curve" smooth="yes"/>
      <point x="345" y="42"/>
      <point x="393" y="74"/>
      <point x="393" y="179" type="curve" smooth="yes"/>
      <point x="393" y="273"/>
      <point x="337" y="293"/>
      <point x="281" y="293" type="curve" smooth="yes"/>
      <point x="165" y="293" type="line"/>
      <point x="165" y="355" type="line"/>
      <point x="258" y="355" type="line" smooth="yes"/>
      <point x="336" y="355"/>
      <point x="385" y="398"/>
      <point x="385" y="492" type="curve" smooth="yes"/>
      <point x="385" y="591"/>
      <point x="350" y="623"/>
      <point x="277" y="623" type="curve" smooth="yes"/>
      <point x="246" y="623"/>
      <point x="200" y="614"/>
      <point x="175" y="603" type="curve"/>
      <point x="164" y="616"/>
      <point x="190" y="647"/>
      <point x="223" y="650" type="curve"/>
      <point x="223" y="481" type="line"/>
      <point x="63" y="481" type="line"/>
      <point x="63" y="637" type="line"/>
      <point x="123" y="665"/>
      <point x="229" y="693"/>
      <point x="332" y="693" type="curve" smooth="yes"/>
      <point x="521" y="693"/>
      <point x="628" y="640"/>
      <point x="628" y="517" type="curve" smooth="yes"/>
      <point x="628" y="382"/>
      <point x="528" y="344"/>
      <point x="330" y="329" type="curve"/>
      <point x="415" y="352" type="line"/>
      <point x="415" y="302" type="line"/>
    </contour>
  </outline>
</glyph>
<glyph name="seven" format="2">
  <advance width="680"/>
  <unicode hex="0037"/>
  <outline>
    <contour>
      <point x="289" y="499" type="line" smooth="yes"/>
      <point x="213" y="499"/>
      <point x="171" y="496"/>
      <point x="163" y="462" type="curve" smooth="yes"/>
      <point x="142" y="377" type="line"/>
      <point x="53" y="377" type="line"/>
      <point x="53" y="679" type="line"/>
      <point x="643" y="679" type="line"/>
      <point x="643" y="507" type="line"/>
      <point x="504" y="390"/>
      <point x="433" y="282"/>
      <point x="427" y="-42" type="curve"/>
      <point x="167" y="-42" type="line"/>
      <point x="177" y="214"/>
      <point x="451" y="446"/>
      <point x="590" y="514" type="curve"/>
      <point x="589" y="499" type="line"/>
    </contour>
  </outline>
</glyph>
<glyph name="nine" format="2">
  <advance width="680"/>
  <unicode hex="0039"/>
  <outline>
    <contour>
      <point x="84" y="-20" type="line"/>
      <point x="327" y="-1"/>
      <point x="414" y="104"/>
      <point x="414" y="399" type="curve" smooth="yes"/>
      <point x="414" y="600"/>
      <point x="380" y="618"/>
      <point x="331" y="618" type="curve" smooth="yes"/>
      <point x="286" y="618"/>
      <point x="257" y="596"/>
      <point x="257" y="450" type="curve" smooth="yes"/>
      <point x="257" y="317"/>
      <point x="289" y="296"/>
      <point x="337" y="296" type="curve" smooth="yes"/>
      <point x="376" y="296"/>
      <point x="407" y="305"/>
      <point x="442" y="360" type="curve"/>
      <point x="458" y="323" type="line"/>
      <point x="405" y="266"/>
      <point x="334" y="220"/>
      <point x="230" y="220" type="curve" smooth="yes"/>
      <point x="100" y="220"/>
      <point x="28" y="283"/>
      <point x="28" y="436" type="curve" smooth="yes"/>
      <point x="28" y="619"/>
      <point x="143" y="693"/>
      <point x="341" y="693" type="curve" smooth="yes"/>
      <point x="529" y="693"/>
      <point x="642" y="617"/>
      <point x="642" y="388" type="curve" smooth="yes"/>
      <point x="642" y="123"/>
      <point x="482" y="-54"/>
      <point x="92" y="-90" type="curve"/>
    </contour>
  </outline>
</glyph>
<glyph name="less" format="2">
  <advance width="680"/>
  <unicode hex="003C"/>
  <outline>
    <contour>
      <point x="598" y="617" type="line"/>
      <point x="70" y="410" type="line"/>
      <point x="70" y="301" type="line"/>
      <point x="166" y="331" type="line"/>
      <point x="598" y="486" type="line"/>
    </contour>
    <contour>
      <point x="598" y="191" type="line"/>
      <point x="166" y="346" type="line"/>
      <point x="70" y="376" type="line"/>
      <point x="70" y="260" type="line"/>
      <point x="598" y="53" type="line"/>
    </contour>
  </outline>
</glyph>
<glyph name="at" format="2">
  <advance width="1219"/>
  <unicode hex="0040"/>
  <outline>
    <contour>
      <point x="596" y="-100" type="curve" smooth="yes"/>
      <point x="282" y="-100"/>
      <point x="150" y="33"/>
      <point x="150" y="240" type="curve" smooth="yes"/>
      <point x="150" y="477"/>
      <point x="313" y="628"/>
      <point x="659" y="628" type="curve" smooth="yes"/>
      <point x="938" y="628"/>
      <point x="1069" y="517"/>
      <point x="1069" y="344" type="curve" smooth="yes"/>
      <point x="1069" y="195"/>
      <point x="984" y="126"/>
      <point x="880" y="126" type="curve" smooth="yes"/>
      <point x="830" y="126"/>
      <point x="818" y="141"/>
      <point x="827" y="182" type="curve" smooth="yes"/>
      <point x="891" y="475" type="line"/>
      <point x="796" y="475" type="line"/>
      <point x="720" y="379" type="line"/>
      <point x="715" y="405" type="line"/>
      <point x="660" y="141" type="line"/>
      <point x="669" y="162" type="line"/>
      <point x="707" y="88"/>
      <point x="760" y="62"/>
      <point x="861" y="62" type="curve" smooth="yes"/>
      <point x="1017" y="62"/>
      <point x="1159" y="159"/>
      <point x="1159" y="350" type="curve" smooth="yes"/>
      <point x="1159" y="562"/>
      <point x="964" y="696"/>
      <point x="669" y="696" type="curve" smooth="yes"/>
      <point x="297" y="696"/>
      <point x="60" y="523"/>
      <point x="60" y="240" type="curve" smooth="yes"/>
      <point x="60" y="-25"/>
      <point x="247" y="-168"/>
      <point x="591" y="-168" type="curve" smooth="yes"/>
      <point x="732" y="-168"/>
      <point x="887" y="-140"/>
      <point x="961" y="-109" type="curve"/>
      <point x="936" y="-46" type="line"/>
      <point x="876" y="-69"/>
      <point x="738" y="-100"/>
    </contour>
    <contour>
      <point x="507" y="56" type="curve" smooth="yes"/>
      <point x="596" y="56"/>
      <point x="656" y="92"/>
      <point x="716" y="188" type="curve"/>
      <point x="680" y="208" type="line"/>
      <point x="641" y="146"/>
      <point x="604" y="119"/>
      <point x="566" y="119" type="curve" smooth="yes"/>
      <point x="534" y="119"/>
      <point x="515" y="134"/>
      <point x="515" y="205" type="curve" smooth="yes"/>
      <point x="515" y="325"/>
      <point x="558" y="418"/>
      <point x="628" y="418" type="curve" smooth="yes"/>
      <point x="669" y="418"/>
      <point x="693" y="387"/>
      <point x="700" y="288" type="curve"/>
      <point x="737" y="338" type="line"/>
      <point x="727" y="424"/>
      <point x="693" y="481"/>
      <point x="588" y="481" type="curve" smooth="yes"/>
      <point x="451" y="481"/>
      <point x="350" y="352"/>
      <point x="350" y="219" type="curve" smooth="yes"/>
      <point x="350" y="95"/>
      <point x="422" y="56"/>
    </contour>
  </outline>
</glyph>
<glyph name="A" format="2">
  <advance width="933"/>
  <unicode hex="0041"/>
  <outline>
    <contour>
      <point x="221" y="283" type="line"/>
      <point x="214" y="225" type="line"/>
      <point x="548" y="225" type="line"/>
      <point x="538" y="283" type="line"/>
    </contour>
    <contour>
      <point x="354" y="672" type="line"/>
      <point x="561" y="72" type="line"/>
      <point x="561" y="68"/>
      <point x="535" y="65"/>
      <point x="488" y="65" type="curve" smooth="yes"/>
      <point x="468" y="65" type="line"/>
      <point x="468" y="0" type="line"/>
      <point x="909" y="0" type="line"/>
      <point x="909" y="65" type="line"/>
      <point x="892" y="65" type="line" smooth="yes"/>
      <point x="857" y="65"/>
      <point x="846" y="79"/>
      <point x="829" y="125" type="curve" smooth="yes"/>
      <point x="616" y="716" type="line"/>
      <point x="332" y="716" type="line"/>
      <point x="117" y="125" type="line" smooth="yes"/>
      <point x="101" y="80"/>
      <point x="69" y="65"/>
      <point x="36" y="65" type="curve" smooth="yes"/>
      <point x="24" y="65" type="line"/>
      <point x="24" y="0" type="line"/>
      <point x="285" y="0" type="line"/>
      <point x="285" y="65" type="line"/>
      <point x="270" y="65" type="line" smooth="yes"/>
      <point x="221" y="65"/>
      <point x="168" y="67"/>
      <point x="168" y="74" type="curve"/>
      <point x="382" y="672" type="line"/>
    </contour>
  </outline>
</glyph>
<glyph name="B" format="2">
  <advance width="958"/>
  <unicode hex="0042"/>
  <outline>
    <contour>
      <point x="587" y="710" type="curve" smooth="yes"/>
      <point x="46" y="710" type="line"/>
      <point x="46" y="645" type="line"/>
      <point x="71" y="645" type="line" smooth="yes"/>
      <point x="101" y="645"/>
      <point x="121" y="635"/>
      <point x="121" y="615" type="curve" smooth="yes"/>
      <point x="121" y="95" type="line" smooth="yes"/>
      <point x="121" y="75"/>
      <point x="101" y="65"/>
      <point x="71" y="65" type="curve" smooth="yes"/>
      <point x="46" y="65" type="line"/>
      <point x="46" y="0" type="line"/>
      <point x="593" y="0" type="line" smooth="yes"/>
      <point x="806" y="0"/>
      <point x="920" y="54"/>
      <point x="920" y="195" type="curve" smooth="yes"/>
      <point x="920" y="311"/>
      <point x="831" y="349"/>
      <point x="623" y="365" type="curve"/>
      <point x="653" y="321" type="line"/>
      <point x="653" y="418" type="line"/>
      <point x="624" y="386" type="line"/>
      <point x="813" y="396"/>
      <point x="889" y="438"/>
      <point x="889" y="549" type="curve" smooth="yes"/>
      <point x="889" y="670"/>
      <point x="787" y="710"/>
    </contour>
    <contour>
      <point x="330" y="393" type="line"/>
      <point x="330" y="347" type="line"/>
      <point x="488" y="347" type="line" smooth="yes"/>
      <point x="593" y="347"/>
      <point x="635" y="315"/>
      <point x="635" y="212" type="curve" smooth="yes"/>
      <point x="635" y="92"/>
      <point x="594" y="58"/>
      <point x="502" y="58" type="curve" smooth="yes"/>
      <point x="400" y="58" type="line"/>
      <point x="400" y="652" type="line"/>
      <point x="499" y="652" type="line" smooth="yes"/>
      <point x="578" y="652"/>
      <point x="610" y="611"/>
      <point x="610" y="535" type="curve" smooth="yes"/>
      <point x="610" y="419"/>
      <point x="578" y="393"/>
      <point x="496" y="393" type="curve" smooth="yes"/>
    </contour>
  </outline>
</glyph>
<glyph name="D" format="2">
  <advance width="1031"/>
  <unicode hex="0044"/>
  <outline>
    <contour>
      <point x="46" y="645" type="line"/>
      <point x="71" y="645" type="line" smooth="yes"/>
      <point x="101" y="645"/>
      <point x="121" y="635"/>
      <point x="121" y="615" type="curve" smooth="yes"/>
      <point x="121" y="95" type="line" smooth="yes"/>
      <point x="121" y="75"/>
      <point x="101" y="65"/>
      <point x="71" y="65" type="curve" smooth="yes"/>
      <point x="46" y="65" type="line"/>
      <point x="46" y="0" type="line"/>
      <point x="507" y="0" type="line" smooth="yes"/>
      <point x="776" y="0"/>
      <point x="978" y="102"/>
      <point x="978" y="359" type="curve" smooth="yes"/>
      <point x="978" y="617"/>
      <point x="776" y="710"/>
      <point x="507" y="710" type="curve" smooth="yes"/>
      <point x="46" y="710" type="line"/>
    </contour>
    <contour>
      <point x="467" y="655" type="line" smooth="yes"/>
      <point x="609" y="655"/>
      <point x="685" y="582"/>
      <point x="685" y="359" type="curve" smooth="yes"/>
      <point x="685" y="126"/>
      <point x="609" y="55"/>
      <point x="467" y="55" type="curve" smooth="yes"/>
      <point x="400" y="55" type="line"/>
      <point x="400" y="655" type="line"/>
    </contour>
  </outline>
</glyph>
<glyph name="I" format="2">
  <advance width="544"/>
  <unicode hex="0049"/>
  <outline>
    <contour>
      <point x="132" y="95" type="line" smooth="yes"/>
      <point x="132" y="75"/>
      <point x="112" y="65"/>
      <point x="82" y="65" type="curve" smooth="yes"/>
      <point x="46" y="65" type="line"/>
      <point x="46" y="0" type="line"/>
      <point x="498" y="0" type="line"/>
      <point x="498" y="65" type="line"/>
      <point x="461" y="65" type="line" smooth="yes"/>
      <point x="431" y="65"/>
      <point x="411" y="75"/>
      <point x="411" y="95" type="curve" smooth="yes"/>
      <point x="411" y="615" type="line" smooth="yes"/>
      <point x="411" y="635"/>
      <point x="431" y="645"/>
      <point x="461" y="645" type="curve" smooth="yes"/>
      <point x="498" y="645" type="line"/>
      <point x="498" y="710" type="line"/>
      <point x="46" y="710" type="line"/>
      <point x="46" y="645" type="line"/>
      <point x="82" y="645" type="line" smooth="yes"/>
      <point x="112" y="645"/>
      <point x="132" y="635"/>
      <point x="132" y="615" type="curve" smooth="yes"/>
    </contour>
  </outline>
</glyph>
<glyph name="K" format="2">
  <advance width="1054"/>
  <unicode hex="004B"/>
  <outline>
    <contour>
      <point x="46" y="0" type="line"/>
      <point x="457" y="0" type="line"/>
      <point x="457" y="65" type="line"/>
      <point x="450" y="65" type="line" smooth="yes"/>
      <point x="420" y="65"/>
      <point x="400" y="68"/>
      <point x="400" y="78" type="curve" smooth="yes"/>
      <point x="400" y="632" type="line" smooth="yes"/>
      <point x="400" y="642"/>
      <point x="420" y="645"/>
      <point x="450" y="645" type="curve" smooth="yes"/>
      <point x="457" y="645" type="line"/>
      <point x="457" y="710" type="line"/>
      <point x="46" y="710" type="line"/>
      <point x="46" y="645" type="line"/>
      <point x="71" y="645" type="line" smooth="yes"/>
      <point x="101" y="645"/>
      <point x="121" y="635"/>
      <point x="121" y="615" type="curve" smooth="yes"/>
      <point x="121" y="95" type="line" smooth="yes"/>
      <point x="121" y="75"/>
      <point x="101" y="65"/>
      <point x="71" y="65" type="curve" smooth="yes"/>
      <point x="46" y="65" type="line"/>
    </contour>
    <contour>
      <point x="560" y="0" type="line"/>
      <point x="1024" y="0" type="line"/>
      <point x="1024" y="65" type="line"/>
      <point x="1010" y="65" type="line" smooth="yes"/>
      <point x="1004" y="65"/>
      <point x="974" y="67"/>
      <point x="953" y="92" type="curve" smooth="yes"/>
      <point x="625" y="494" type="line"/>
      <point x="516" y="369" type="line"/>
      <point x="826" y="625" type="line" smooth="yes"/>
      <point x="847" y="643"/>
      <point x="880" y="646"/>
      <point x="934" y="646" type="curve" smooth="yes"/>
      <point x="968" y="646" type="line"/>
      <point x="968" y="710" type="line"/>
      <point x="620" y="710" type="line"/>
      <point x="620" y="646" type="line"/>
      <point x="671" y="646" type="line" smooth="yes"/>
      <point x="707" y="646"/>
      <point x="748" y="641"/>
      <point x="748" y="635" type="curve"/>
      <point x="430" y="372" type="line"/>
      <point x="430" y="342" type="line"/>
      <point x="642" y="73" type="line"/>
      <point x="642" y="68"/>
      <point x="602" y="65"/>
      <point x="568" y="65" type="curve" smooth="yes"/>
      <point x="560" y="65" type="line"/>
    </contour>
  </outline>
</glyph>
<glyph name="L" format="2">
  <advance width="855"/>
  <unicode hex="004C"/>
  <outline>
    <contour>
      <point x="501" y="710" type="line"/>
      <point x="501" y="645" type="line"/>
      <point x="451" y="645" type="line" smooth="yes"/>
      <point x="421" y="645"/>
      <point x="401" y="635"/>
      <point x="401" y="615" type="curve" smooth="yes"/>
      <point x="401" y="58" type="line"/>
      <point x="546" y="58" type="line" smooth="yes"/>
      <point x="641" y="58"/>
      <point x="663" y="67"/>
      <point x="669" y="103" type="curve" smooth="yes"/>
      <point x="694" y="282" type="line"/>
      <point x="810" y="282" type="line"/>
      <point x="810" y="0" type="line"/>
      <point x="46" y="0" type="line"/>
      <point x="46" y="65" type="line"/>
      <point x="71" y="65" type="line" smooth="yes"/>
      <point x="101" y="65"/>
      <point x="121" y="75"/>
      <point x="121" y="95" type="curve" smooth="yes"/>
      <point x="121" y="615" type="line" smooth="yes"/>
      <point x="121" y="635"/>
      <point x="101" y="645"/>
      <point x="71" y="645" type="curve" smooth="yes"/>
      <point x="46" y="645" type="line"/>
      <point x="46" y="710" type="line"/>
    </contour>
  </outline>
</glyph>
<glyph name="N" format="2">
  <advance width="998"/>
  <unicode hex="004E"/>
  <outline>
    <contour>
      <point x="46" y="0" type="line"/>
      <point x="302" y="0" type="line"/>
      <point x="302" y="65" type="line"/>
      <point x="278" y="65" type="line" smooth="yes"/>
      <point x="248" y="65"/>
      <point x="208" y="68"/>
      <point x="208" y="78" type="curve" smooth="yes"/>
      <point x="208" y="660" type="line"/>
      <point x="195" y="666" type="line"/>
      <point x="599" y="0" type="line"/>
      <point x="859" y="0" type="line"/>
      <point x="859" y="615" type="line" smooth="yes"/>
      <point x="859" y="635"/>
      <point x="899" y="645"/>
      <point x="929" y="645" type="curve" smooth="yes"/>
      <point x="952" y="645" type="line"/>
      <point x="952" y="710" type="line"/>
      <point x="704" y="710" type="line"/>
      <point x="704" y="645" type="line"/>
      <point x="721" y="645" type="line" smooth="yes"/>
      <point x="751" y="645"/>
      <point x="791" y="642"/>
      <point x="791" y="632" type="curve" smooth="yes"/>
      <point x="791" y="173" type="line"/>
      <point x="786" y="200" type="line"/>
      <point x="478" y="710" type="line"/>
      <point x="46" y="710" type="line"/>
      <point x="46" y="645" type="line"/>
      <point x="71" y="645" type="line" smooth="yes"/>
      <point x="101" y="645"/>
      <point x="141" y="635"/>
      <point x="141" y="615" type="curve" smooth="yes"/>
      <point x="141" y="95" type="line" smooth="yes"/>
      <point x="141" y="75"/>
      <point x="101" y="65"/>
      <point x="71" y="65" type="curve" smooth="yes"/>
      <point x="46" y="65" type="line"/>
    </contour>
  </outline>
</glyph>
<glyph name="O" format="2">
  <advance width="1010"/>
  <unicode hex="004F"/>
  <outline>
    <contour>
      <point x="505" y="-25" type="curve" smooth="yes"/>
      <point x="786" y="-25"/>
      <point x="957" y="97"/>
      <point x="957" y="355" type="curve" smooth="yes"/>
      <point x="957" y="612"/>
      <point x="786" y="735"/>
      <point x="505" y="735" type="curve" smooth="yes"/>
      <point x="224" y="735"/>
      <point x="53" y="612"/>
      <point x="53" y="355" type="curve" smooth="yes"/>
      <point x="53" y="97"/>
      <point x="224" y="-25"/>
    </contour>
    <contour>
      <point x="505" y="51" type="curve" smooth="yes"/>
      <point x="402" y="51"/>
      <point x="353" y="133"/>
      <point x="353" y="355" type="curve" smooth="yes"/>
      <point x="353" y="577"/>
      <point x="403" y="659"/>
      <point x="505" y="659" type="curve" smooth="yes"/>
      <point x="607" y="659"/>
      <point x="657" y="577"/>
      <point x="657" y="355" type="curve" smooth="yes"/>
      <point x="657" y="133"/>
      <point x="607" y="51"/>
    </contour>
  </outline>
</glyph>
<glyph name="Q" format="2">
  <advance width="1030"/>
  <unicode hex="0051"/>
  <outline>
    <contour>
      <point x="470" y="-3" type="line"/>
      <point x="470" y="-220"/>
      <point x="579" y="-290"/>
      <point x="787" y="-290" type="curve" smooth="yes"/>
      <point x="855" y="-290"/>
      <point x="912" y="-283"/>
      <point x="942" y="-275" type="curve"/>
      <point x="942" y="-110" type="line"/>
      <point x="895" y="-121"/>
      <point x="846" y="-130"/>
      <point x="777" y="-130" type="curve" smooth="yes"/>
      <point x="619" y="-130"/>
      <point x="564" y="-102"/>
      <point x="560" y="10" type="curve"/>
    </contour>
    <contour>
      <point x="505" y="-25" type="curve" smooth="yes"/>
      <point x="786" y="-25"/>
      <point x="957" y="97"/>
      <point x="957" y="355" type="curve" smooth="yes"/>
      <point x="957" y="612"/>
      <point x="786" y="735"/>
      <point x="505" y="735" type="curve" smooth="yes"/>
      <point x="224" y="735"/>
      <point x="53" y="612"/>
      <point x="53" y="355" type="curve" smooth="yes"/>
      <point x="53" y="97"/>
      <point x="224" y="-25"/>
    </contour>
    <contour>
      <point x="505" y="51" type="curve" smooth="yes"/>
      <point x="402" y="51"/>
      <point x="353" y="133"/>
      <point x="353" y="355" type="curve" smooth="yes"/>
      <point x="353" y="577"/>
      <point x="403" y="659"/>
      <point x="505" y="659" type="curve" smooth="yes"/>
      <point x="607" y="659"/>
      <point x="657" y="577"/>
      <point x="657" y="355" type="curve" smooth="yes"/>
      <point x="657" y="133"/>
      <point x="607" y="51"/>
    </contour>
  </outline>
</glyph>
<glyph name="R" format="2">
  <advance width="1004"/>
  <unicode hex="0052"/>
  <outline>
    <contour>
      <point x="480" y="319" type="line"/>
      <point x="712" y="404" type="line"/>
      <point x="878" y="122" type="line" smooth="yes"/>
      <point x="909" y="73"/>
      <point x="936" y="65"/>
      <point x="970" y="65" type="curve" smooth="yes"/>
      <point x="981" y="65" type="line"/>
      <point x="981" y="0" type="line"/>
      <point x="656" y="0" type="line"/>
    </contour>
    <contour>
      <point x="400" y="78" type="line" smooth="yes"/>
      <point x="400" y="68"/>
      <point x="420" y="65"/>
      <point x="450" y="65" type="curve" smooth="yes"/>
      <point x="484" y="65" type="line"/>
      <point x="484" y="0" type="line"/>
      <point x="46" y="0" type="line"/>
      <point x="46" y="65" type="line"/>
      <point x="71" y="65" type="line" smooth="yes"/>
      <point x="101" y="65"/>
      <point x="121" y="75"/>
      <point x="121" y="95" type="curve" smooth="yes"/>
      <point x="121" y="615" type="line" smooth="yes"/>
      <point x="121" y="635"/>
      <point x="101" y="645"/>
      <point x="71" y="645" type="curve" smooth="yes"/>
      <point x="46" y="645" type="line"/>
      <point x="46" y="710" type="line"/>
      <point x="589" y="710" type="line" smooth="yes"/>
      <point x="821" y="710"/>
      <point x="916" y="654"/>
      <point x="915" y="521" type="curve" smooth="yes"/>
      <point x="914" y="423"/>
      <point x="823" y="351"/>
      <point x="642" y="341" type="curve" smooth="yes"/>
      <point x="624" y="317"/>
      <point x="631" y="317"/>
      <point x="619" y="299" type="curve" smooth="yes"/>
      <point x="355" y="299" type="line"/>
      <point x="355" y="352" type="line"/>
      <point x="497" y="352" type="line" smooth="yes"/>
      <point x="587" y="352"/>
      <point x="629" y="394"/>
      <point x="629" y="507" type="curve" smooth="yes"/>
      <point x="629" y="621"/>
      <point x="592" y="657"/>
      <point x="505" y="657" type="curve" smooth="yes"/>
      <point x="400" y="657" type="line"/>
    </contour>
  </outline>
</glyph>
<glyph name="V" format="2">
  <advance width="925"/>
  <unicode hex="0056"/>
  <outline>
    <contour>
      <point x="581" y="33" type="line"/>
      <point x="368" y="638" type="line"/>
      <point x="368" y="642"/>
      <point x="394" y="645"/>
      <point x="441" y="645" type="curve" smooth="yes"/>
      <point x="461" y="645" type="line"/>
      <point x="461" y="710" type="line"/>
      <point x="20" y="710" type="line"/>
      <point x="20" y="645" type="line"/>
      <point x="37" y="645" type="line"/>
      <point x="72" y="645"/>
      <point x="83" y="631"/>
      <point x="100" y="585" type="curve" smooth="yes"/>
      <point x="318" y="-12" type="line"/>
      <point x="607" y="-12" type="line"/>
      <point x="814" y="585" type="line" smooth="yes"/>
      <point x="830" y="630"/>
      <point x="860" y="645"/>
      <point x="893" y="645" type="curve"/>
      <point x="905" y="645" type="line"/>
      <point x="905" y="710" type="line"/>
      <point x="652" y="710" type="line"/>
      <point x="652" y="645" type="line"/>
      <point x="667" y="645" type="line" smooth="yes"/>
      <point x="716" y="645"/>
      <point x="763" y="643"/>
      <point x="763" y="636" type="curve"/>
      <point x="562" y="33" type="line"/>
    </contour>
  </outline>
</glyph>
<glyph name="W" format="2">
  <advance width="1375"/>
  <unicode hex="0057"/>
  <outline>
    <contour>
      <point x="30" y="710" type="line"/>
      <point x="30" y="645" type="line"/>
      <point x="40" y="645" type="line" smooth="yes"/>
      <point x="84" y="645"/>
      <point x="92" y="640"/>
      <point x="98" y="617" type="curve" smooth="yes"/>
      <point x="257" y="0" type="line"/>
      <point x="561" y="0" type="line"/>
      <point x="708" y="591" type="line"/>
      <point x="684" y="585" type="line"/>
      <point x="826" y="0" type="line"/>
      <point x="1114" y="0" type="line"/>
      <point x="1264" y="602" type="line" smooth="yes"/>
      <point x="1272" y="632"/>
      <point x="1295" y="645"/>
      <point x="1335" y="645" type="curve" smooth="yes"/>
      <point x="1345" y="645" type="line"/>
      <point x="1345" y="710" type="line"/>
      <point x="1111" y="710" type="line"/>
      <point x="1111" y="645" type="line"/>
      <point x="1124" y="645" type="line" smooth="yes"/>
      <point x="1158" y="645"/>
      <point x="1198" y="642"/>
      <point x="1202" y="635" type="curve"/>
      <point x="1055" y="75" type="line"/>
      <point x="1075" y="88" type="line"/>
      <point x="920" y="710" type="line"/>
      <point x="655" y="710" type="line"/>
      <point x="498" y="87" type="line"/>
      <point x="509" y="87" type="line"/>
      <point x="385" y="635" type="line"/>
      <point x="391" y="641"/>
      <point x="415" y="645"/>
      <point x="443" y="645" type="curve" smooth="yes"/>
      <point x="456" y="645" type="line"/>
      <point x="456" y="710" type="line"/>
    </contour>
  </outline>
</glyph>
<glyph name="Z" format="2">
  <advance width="862"/>
  <unicode hex="005A"/>
  <outline>
    <contour>
      <point x="292" y="652" type="curve" smooth="yes"/>
      <point x="591" y="652" type="line"/>
      <point x="553" y="647" type="line"/>
      <point x="43" y="173" type="line"/>
      <point x="43" y="0" type="line"/>
      <point x="810" y="0" type="line"/>
      <point x="810" y="282" type="line"/>
      <point x="716" y="282" type="line"/>
      <point x="691" y="102" type="line" smooth="yes"/>
      <point x="685" y="66"/>
      <point x="661" y="58"/>
      <point x="566" y="58" type="curve" smooth="yes"/>
      <point x="218" y="58" type="line"/>
      <point x="263" y="50" type="line"/>
      <point x="790" y="541" type="line"/>
      <point x="790" y="710" type="line"/>
      <point x="69" y="710" type="line"/>
      <point x="69" y="462" type="line"/>
      <point x="164" y="462" type="line"/>
      <point x="180" y="605" type="line" smooth="yes"/>
      <point x="186" y="647"/>
      <point x="214" y="652"/>
    </contour>
  </outline>
</glyph>
<glyph name="bracketleft" format="2">
  <advance width="470"/>
  <unicode hex="005B"/>
  <outline>
    <contour>
      <point x="100" y="-130" type="line"/>
      <point x="460" y="-130" type="line"/>
      <point x="460" y="-65" type="line"/>
      <point x="306" y="-65" type="line"/>
      <point x="306" y="686" type="line"/>
      <point x="460" y="686" type="line"/>
      <point x="460" y="750" type="line"/>
      <point x="100" y="750" type="line"/>
    </contour>
  </outline>
</glyph>
<glyph name="asciicircum" format="2">
  <advance width="680"/>
  <unicode hex="005E"/>
  <outline>
    <contour>
      <point x="124" y="302" type="line"/>
      <point x="318" y="597" type="line"/>
      <point x="356" y="716" type="line"/>
      <point x="264" y="716" type="line"/>
      <point x="39" y="302" type="line"/>
    </contour>
    <contour>
      <point x="542" y="302" type="line"/>
      <point x="641" y="302" type="line"/>
      <point x="416" y="716" type="line"/>
      <point x="309" y="716" type="line"/>
      <point x="349" y="596" type="line"/>
    </contour>
  </outline>
</glyph>
<glyph name="underscore" format="2">
  <advance width="590"/>
  <unicode hex="005F"/>
  <outline>
    <contour>
      <point x="-6" y="-115" type="line"/>
      <point x="-6" y="-179" type="line"/>
      <point x="596" y="-179" type="line"/>
      <point x="596" y="-115" type="line"/>
    </contour>
  </outline>
</glyph>
<glyph name="b" format="2">
  <advance width="909"/>
  <unicode hex="0062"/>
  <outline>
    <contour>
      <point x="566" y="-12" type="curve" smooth="yes"/>
      <point x="754" y="-12"/>
      <point x="863" y="101"/>
      <point x="863" y="293" type="curve" smooth="yes"/>
      <point x="863" y="484"/>
      <point x="769" y="583"/>
      <point x="592" y="583" type="curve" smooth="yes"/>
      <point x="437" y="583"/>
      <point x="360" y="512"/>
      <point x="302" y="365" type="curve"/>
      <point x="322" y="367" type="line"/>
      <point x="388" y="460"/>
      <point x="431" y="479"/>
      <point x="485" y="479" type="curve" smooth="yes"/>
      <point x="555" y="479"/>
      <point x="593" y="442"/>
      <point x="593" y="293" type="curve" smooth="yes"/>
      <point x="593" y="138"/>
      <point x="542" y="88"/>
      <point x="471" y="88" type="curve" smooth="yes"/>
      <point x="422" y="88"/>
      <point x="376" y="103"/>
      <point x="331" y="169" type="curve"/>
      <point x="285" y="142" type="line"/>
      <point x="321" y="53"/>
      <point x="418" y="-12"/>
    </contour>
    <contour>
      <point x="96" y="694" type="curve" smooth="yes"/>
      <point x="96" y="-18" type="line"/>
      <point x="232" y="-18" type="line"/>
      <point x="344" y="128" type="line"/>
      <point x="360" y="110" type="line"/>
      <point x="360" y="780" type="line"/>
      <point x="33" y="780" type="line"/>
      <point x="33" y="720" type="line"/>
      <point x="46" y="718" type="line" smooth="yes"/>
      <point x="80" y="713"/>
      <point x="96" y="708"/>
    </contour>
  </outline>
</glyph>
<glyph name="e" format="2">
  <advance width="807"/>
  <unicode hex="0065"/>
  <outline>
    <contour>
      <point x="310" y="283" type="curve" smooth="yes"/>
      <point x="310" y="464"/>
      <point x="353" y="519"/>
      <point x="418" y="519" type="curve" smooth="yes"/>
      <point x="490" y="519"/>
      <point x="507" y="464"/>
      <point x="508" y="297" type="curve"/>
      <point x="554" y="321" type="line"/>
      <point x="191" y="321" type="line"/>
      <point x="191" y="266" type="line"/>
      <point x="764" y="266" type="line"/>
      <point x="758" y="480"/>
      <point x="684" y="581"/>
      <point x="420" y="582" type="curve" smooth="yes"/>
      <point x="170" y="583"/>
      <point x="46" y="464"/>
      <point x="46" y="280" type="curve" smooth="yes"/>
      <point x="46" y="79"/>
      <point x="169" y="-12"/>
      <point x="444" y="-12" type="curve" smooth="yes"/>
      <point x="588" y="-12"/>
      <point x="682" y="22"/>
      <point x="756" y="75" type="curve"/>
      <point x="712" y="142" type="line"/>
      <point x="660" y="102"/>
      <point x="571" y="72"/>
      <point x="484" y="72" type="curve" smooth="yes"/>
      <point x="359" y="72"/>
      <point x="311" y="115"/>
    </contour>
  </outline>
</glyph>
<glyph name="i" format="2">
  <advance width="473"/>
  <unicode hex="0069"/>
  <outline>
    <contour>
      <point x="236" y="625" type="curve" smooth="yes"/>
      <point x="324" y="625"/>
      <point x="376" y="657"/>
      <point x="376" y="726" type="curve" smooth="yes"/>
      <point x="376" y="795"/>
      <point x="324" y="828"/>
      <point x="236" y="828" type="curve" smooth="yes"/>
      <point x="147" y="828"/>
      <point x="94" y="795"/>
      <point x="94" y="726" type="curve" smooth="yes"/>
      <point x="94" y="656"/>
      <point x="147" y="625"/>
    </contour>
    <contour>
      <point x="376" y="572" type="line"/>
      <point x="50" y="572" type="line"/>
      <point x="50" y="512" type="line"/>
      <point x="63" y="510" type="line" smooth="yes"/>
      <point x="97" y="505"/>
      <point x="113" y="500"/>
      <point x="113" y="486" type="curve" smooth="yes"/>
      <point x="113" y="115" type="line" smooth="yes"/>
      <point x="113" y="65"/>
      <point x="94" y="50"/>
      <point x="58" y="50" type="curve" smooth="yes"/>
      <point x="50" y="50" type="line"/>
      <point x="50" y="0" type="line"/>
      <point x="439" y="0" type="line"/>
      <point x="439" y="50" type="line"/>
      <point x="431" y="50" type="line" smooth="yes"/>
      <point x="395" y="50"/>
      <point x="376" y="65"/>
      <point x="376" y="115" type="curve" smooth="yes"/>
    </contour>
  </outline>
</glyph>
<glyph name="l" format="2">
  <advance width="473"/>
  <unicode hex="006C"/>
  <outline>
    <contour>
      <point x="376" y="780" type="line"/>
      <point x="50" y="780" type="line"/>
      <point x="50" y="720" type="line"/>
      <point x="63" y="718" type="line" smooth="yes"/>
      <point x="97" y="713"/>
      <point x="113" y="708"/>
      <point x="113" y="694" type="curve" smooth="yes"/>
      <point x="113" y="115" type="line" smooth="yes"/>
      <point x="113" y="65"/>
      <point x="94" y="50"/>
      <point x="58" y="50" type="curve" smooth="yes"/>
      <point x="50" y="50" type="line"/>
      <point x="50" y="0" type="line"/>
      <point x="439" y="0" type="line"/>
      <point x="439" y="50" type="line"/>
      <point x="431" y="50" type="line" smooth="yes"/>
      <point x="395" y="50"/>
      <point x="376" y="65"/>
      <point x="376" y="115" type="curve" smooth="yes"/>
    </contour>
  </outline>
</glyph>
<glyph name="m" format="2">
  <advance width="1368"/>
  <unicode hex="006D"/>
  <outline>
    <contour>
      <point x="49" y="0" type="line"/>
      <point x="426" y="0" type="line"/>
      <point x="426" y="50" type="line"/>
      <point x="417" y="50" type="line" smooth="yes"/>
      <point x="401" y="50"/>
      <point x="375" y="52"/>
      <point x="375" y="58" type="curve" smooth="yes"/>
      <point x="375" y="418" type="line"/>
      <point x="372" y="428" type="line"/>
      <point x="346" y="571" type="line"/>
      <point x="49" y="571" type="line"/>
      <point x="49" y="511" type="line"/>
      <point x="62" y="509" type="line" smooth="yes"/>
      <point x="96" y="504"/>
      <point x="112" y="499"/>
      <point x="112" y="485" type="curve" smooth="yes"/>
      <point x="112" y="115" type="line" smooth="yes"/>
      <point x="112" y="65"/>
      <point x="93" y="50"/>
      <point x="57" y="50" type="curve" smooth="yes"/>
      <point x="49" y="50" type="line"/>
    </contour>
    <contour>
      <point x="875" y="0" type="line"/>
      <point x="875" y="50" type="line"/>
      <point x="866" y="50" type="line" smooth="yes"/>
      <point x="850" y="50"/>
      <point x="824" y="52"/>
      <point x="824" y="58" type="curve" smooth="yes"/>
      <point x="824" y="436" type="line" smooth="yes"/>
      <point x="824" y="515"/>
      <point x="757" y="585"/>
      <point x="616" y="585" type="curve" smooth="yes"/>
      <point x="489" y="585"/>
      <point x="390" y="515"/>
      <point x="333" y="431" type="curve"/>
      <point x="325" y="361" type="line"/>
      <point x="395" y="449"/>
      <point x="442" y="479"/>
      <point x="493" y="479" type="curve" smooth="yes"/>
      <point x="536" y="479"/>
      <point x="561" y="461"/>
      <point x="561" y="402" type="curve" smooth="yes"/>
      <point x="561" y="58" type="line" smooth="yes"/>
      <point x="561" y="52"/>
      <point x="535" y="50"/>
      <point x="519" y="50" type="curve" smooth="yes"/>
      <point x="510" y="50" type="line"/>
      <point x="510" y="0" type="line"/>
    </contour>
    <contour>
      <point x="1337" y="0" type="line"/>
      <point x="1337" y="50" type="line"/>
      <point x="1329" y="50" type="line" smooth="yes"/>
      <point x="1293" y="50"/>
      <point x="1274" y="65"/>
      <point x="1274" y="115" type="curve" smooth="yes"/>
      <point x="1274" y="389" type="line" smooth="yes"/>
      <point x="1274" y="525"/>
      <point x="1207" y="585"/>
      <point x="1066" y="585" type="curve" smooth="yes"/>
      <point x="939" y="585"/>
      <point x="840" y="515"/>
      <point x="783" y="431" type="curve"/>
      <point x="775" y="361" type="line"/>
      <point x="845" y="449"/>
      <point x="892" y="479"/>
      <point x="943" y="479" type="curve" smooth="yes"/>
      <point x="986" y="479"/>
      <point x="1011" y="461"/>
      <point x="1011" y="402" type="curve" smooth="yes"/>
      <point x="1011" y="58" type="line" smooth="yes"/>
      <point x="1011" y="52"/>
      <point x="985" y="50"/>
      <point x="969" y="50" type="curve" smooth="yes"/>
      <point x="960" y="50" type="line"/>
      <point x="960" y="0" type="line"/>
    </contour>
  </outline>
</glyph>
<glyph name="p" format="2">
  <advance width="924"/>
  <unicode hex="0070"/>
  <outline>
    <contour>
      <point x="467" y="-223" type="line"/>
      <point x="467" y="-173" type="line"/>
      <point x="455" y="-173" type="line" smooth="yes"/>
      <point x="399" y="-173"/>
      <point x="375" y="-165"/>
      <point x="375" y="-154" type="curve" smooth="yes"/>
      <point x="375" y="425" type="line"/>
      <point x="375" y="441" type="line"/>
      <point x="346" y="572" type="line"/>
      <point x="49" y="572" type="line"/>
      <point x="49" y="512" type="line"/>
      <point x="62" y="510" type="line" smooth="yes"/>
      <point x="96" y="505"/>
      <point x="112" y="500"/>
      <point x="112" y="486" type="curve" smooth="yes"/>
      <point x="112" y="-108" type="line" smooth="yes"/>
      <point x="112" y="-158"/>
      <point x="93" y="-173"/>
      <point x="57" y="-173" type="curve"/>
      <point x="50" y="-173" type="line"/>
      <point x="50" y="-223" type="line"/>
    </contour>
    <contour>
      <point x="581" y="-12" type="curve" smooth="yes"/>
      <point x="769" y="-12"/>
      <point x="878" y="101"/>
      <point x="878" y="293" type="curve" smooth="yes"/>
      <point x="878" y="484"/>
      <point x="784" y="583"/>
      <point x="607" y="583" type="curve" smooth="yes"/>
      <point x="452" y="583"/>
      <point x="375" y="512"/>
      <point x="317" y="365" type="curve"/>
      <point x="337" y="354" type="line"/>
      <point x="406" y="457"/>
      <point x="449" y="478"/>
      <point x="499" y="478" type="curve" smooth="yes"/>
      <point x="570" y="478"/>
      <point x="608" y="427"/>
      <point x="608" y="288" type="curve" smooth="yes"/>
      <point x="608" y="139"/>
      <point x="557" y="83"/>
      <point x="483" y="83" type="curve" smooth="yes"/>
      <point x="429" y="83"/>
      <point x="388" y="98"/>
      <point x="337" y="191" type="curve"/>
      <point x="307" y="175" type="line"/>
      <point x="319" y="66"/>
      <point x="428" y="-12"/>
    </contour>
  </outline>
</glyph>
<glyph name="t" format="2">
  <advance width="640"/>
  <unicode hex="0074"/>
  <outline>
    <contour>
      <point x="16" y="495" type="line"/>
      <point x="594" y="495" type="line"/>
      <point x="594" y="572" type="line"/>
      <point x="282" y="572" type="line"/>
      <point x="152" y="632" type="line"/>
      <point x="152" y="573"/>
      <point x="110" y="568"/>
      <point x="48" y="567" type="curve" smooth="yes"/>
      <point x="16" y="567" type="line"/>
    </contour>
    <contour>
      <point x="387" y="173" type="curve"/>
      <point x="387" y="737" type="line"/>
      <point x="152" y="737" type="line"/>
      <point x="152" y="561" type="line"/>
      <point x="123" y="552" type="line"/>
      <point x="123" y="193" type="line" smooth="yes"/>
      <point x="123" y="32"/>
      <point x="234" y="-12"/>
      <point x="396" y="-12" type="curve" smooth="yes"/>
      <point x="472" y="-12"/>
      <point x="534" y="-6"/>
      <point x="582" y="0" type="curve"/>
      <point x="582" y="78" type="line"/>
      <point x="558" y="76"/>
      <point x="535" y="73"/>
      <point x="500" y="73" type="curve" smooth="yes"/>
      <point x="423" y="72"/>
      <point x="387" y="92"/>
    </contour>
  </outline>
</glyph>
<glyph name="u" format="2">
  <advance width="922"/>
  <unicode hex="0075"/>
  <outline>
    <contour>
      <point x="365" y="571" type="line"/>
      <point x="32" y="571" type="line"/>
      <point x="32" y="521" type="line"/>
      <point x="48" y="519" type="line" smooth="yes"/>
      <point x="85" y="514"/>
      <point x="101" y="509"/>
      <point x="101" y="495" type="curve" smooth="yes"/>
      <point x="101" y="185" type="line" smooth="yes"/>
      <point x="101" y="49"/>
      <point x="168" y="-11"/>
      <point x="309" y="-11" type="curve" smooth="yes"/>
      <point x="436" y="-11"/>
      <point x="535" y="59"/>
      <point x="592" y="143" type="curve"/>
      <point x="600" y="213" type="line"/>
      <point x="530" y="125"/>
      <point x="483" y="95"/>
      <point x="432" y="95" type="curve" smooth="yes"/>
      <point x="389" y="95"/>
      <point x="365" y="113"/>
      <point x="365" y="172" type="curve" smooth="yes"/>
    </contour>
    <contour>
      <point x="818" y="571" type="line"/>
      <point x="470" y="571" type="line"/>
      <point x="470" y="521" type="line"/>
      <point x="491" y="519" type="line" smooth="yes"/>
      <point x="538" y="515"/>
      <point x="554" y="509"/>
      <point x="554" y="495" type="curve" smooth="yes"/>
      <point x="554" y="144" type="line"/>
      <point x="559" y="136" type="line"/>
      <point x="595" y="0" type="line"/>
      <point x="881" y="0" type="line"/>
      <point x="881" y="54" type="line"/>
      <point x="868" y="56" type="line" smooth="yes"/>
      <point x="834" y="61"/>
      <point x="818" y="66"/>
      <point x="818" y="80" type="curve" smooth="yes"/>
    </contour>
  </outline>
</glyph>
<glyph name="z" format="2">
  <advance width="730"/>
  <unicode hex="007A"/>
  <outline>
    <contour>
      <point x="222" y="18" type="line"/>
      <point x="664" y="414" type="line"/>
      <point x="664" y="571" type="line"/>
      <point x="68" y="571" type="line"/>
      <point x="68" y="377" type="line"/>
      <point x="162" y="377" type="line"/>
      <point x="179" y="466" type="line" smooth="yes"/>
      <point x="186" y="503"/>
      <point x="203" y="513"/>
      <point x="279" y="513" type="curve" smooth="yes"/>
      <point x="506" y="513" type="line"/>
      <point x="481" y="542" type="line"/>
      <point x="59" y="162" type="line"/>
      <point x="59" y="0" type="line"/>
      <point x="688" y="0" type="line"/>
      <point x="688" y="204" type="line"/>
      <point x="594" y="204" type="line"/>
      <point x="572" y="103" type="line" smooth="yes"/>
      <point x="563" y="67"/>
      <point x="513" y="58"/>
      <point x="418" y="58" type="curve" smooth="yes"/>
      <point x="202" y="58" type="line"/>
    </contour>
  </outline>
</glyph>
<glyph name="currency" format="2">
  <advance width="680"/>
  <unicode hex="00A4"/>
  <outline>
    <contour>
      <point x="483" y="373" type="curve" smooth="yes"/>
      <point x="483" y="279"/>
      <point x="433" y="228"/>
      <point x="340" y="228" type="curve" smooth="yes"/>
      <point x="248" y="228"/>
      <point x="198" y="280"/>
      <point x="198" y="373" type="curve" smooth="yes"/>
      <point x="198" y="466"/>
      <point x="248" y="519"/>
      <point x="340" y="519" type="curve" smooth="yes"/>
      <point x="433" y="519"/>
      <point x="483" y="467"/>
    </contour>
    <contour>
      <point x="97" y="373" type="curve" smooth="yes"/>
      <point x="97" y="251"/>
      <point x="206" y="147"/>
      <point x="340" y="147" type="curve" smooth="yes"/>
      <point x="474" y="147"/>
      <point x="583" y="251"/>
      <point x="583" y="373" type="curve" smooth="yes"/>
      <point x="583" y="497"/>
      <point x="474" y="601"/>
      <point x="340" y="601" type="curve" smooth="yes"/>
      <point x="206" y="601"/>
      <point x="97" y="497"/>
    </contour>
    <contour>
      <point x="56" y="578" type="line"/>
      <point x="179" y="462" type="line"/>
      <point x="249" y="520" type="line"/>
      <point x="119" y="643" type="line"/>
    </contour>
    <contour>
      <point x="624" y="577" type="line"/>
      <point x="561" y="642" type="line"/>
      <point x="431" y="519" type="line"/>
      <point x="501" y="461" type="line"/>
    </contour>
    <contour>
      <point x="56" y="168" type="line"/>
      <point x="119" y="103" type="line"/>
      <point x="249" y="225" type="line"/>
      <point x="179" y="283" type="line"/>
    </contour>
    <contour>
      <point x="624" y="169" type="line"/>
      <point x="501" y="284" type="line"/>
      <point x="431" y="226" type="line"/>
      <point x="561" y="104" type="line"/>
    </contour>
  </outline>
</glyph>
<glyph name="yen" format="2">
  <advance width="680"/>
  <unicode hex="00A5"/>
  <outline>
    <contour>
      <point x="60" y="369" type="line"/>
      <point x="60" y="321" type="line"/>
      <point x="618" y="321" type="line"/>
      <point x="618" y="369" type="line"/>
    </contour>
    <contour>
      <point x="60" y="230" type="line"/>
      <point x="60" y="182" type="line"/>
      <point x="618" y="182" type="line"/>
      <point x="618" y="230" type="line"/>
    </contour>
    <contour>
      <point x="238" y="349" type="line"/>
      <point x="238" y="101" type="line" smooth="yes"/>
      <point x="238" y="72"/>
      <point x="209" y="65"/>
      <point x="175" y="65" type="curve" smooth="yes"/>
      <point x="152" y="65" type="line"/>
      <point x="152" y="0" type="line"/>
      <point x="526" y="0" type="line"/>
      <point x="526" y="65" type="line"/>
      <point x="502" y="65" type="line" smooth="yes"/>
      <point x="469" y="65"/>
      <point x="441" y="72"/>
      <point x="441" y="101" type="curve" smooth="yes"/>
      <point x="441" y="349" type="line"/>
    </contour>
    <contour>
      <point x="425" y="303" type="line"/>
      <point x="574" y="603" type="line" smooth="yes"/>
      <point x="591" y="634"/>
      <point x="622" y="647"/>
      <point x="657" y="647" type="curve" smooth="yes"/>
      <point x="662" y="647" type="line"/>
      <point x="662" y="710" type="line"/>
      <point x="468" y="710" type="line"/>
      <point x="468" y="647" type="line"/>
      <point x="474" y="647" type="line" smooth="yes"/>
      <point x="498" y="647"/>
      <point x="540" y="640"/>
      <point x="542" y="632" type="curve"/>
      <point x="393" y="345" type="line"/>
      <point x="415" y="345" type="line"/>
      <point x="279" y="639" type="line"/>
      <point x="285" y="646"/>
      <point x="295" y="647"/>
      <point x="311" y="647" type="curve" smooth="yes"/>
      <point x="323" y="647" type="line"/>
      <point x="323" y="710" type="line"/>
      <point x="18" y="710" type="line"/>
      <point x="18" y="647" type="line"/>
      <point x="24" y="647" type="line" smooth="yes"/>
      <point x="57" y="647"/>
      <point x="75" y="645"/>
      <point x="89" y="616" type="curve" smooth="yes"/>
      <point x="245" y="304" type="line"/>
    </contour>
  </outline>
</glyph>
<glyph name="dieresis" format="2">
  <advance width="538"/>
  <unicode hex="00A8"/>
  <outline>
    <contour>
      <point x="219" y="730" type="curve" smooth="yes"/>
      <point x="219" y="795"/>
      <point x="177" y="827"/>
      <point x="107" y="827" type="curve" smooth="yes"/>
      <point x="33" y="827"/>
      <point x="-8" y="795"/>
      <point x="-8" y="730" type="curve" smooth="yes"/>
      <point x="-8" y="663"/>
      <point x="33" y="633"/>
      <point x="107" y="633" type="curve" smooth="yes"/>
      <point x="177" y="633"/>
      <point x="219" y="664"/>
    </contour>
    <contour>
      <point x="545" y="730" type="curve" smooth="yes"/>
      <point x="545" y="795"/>
      <point x="504" y="827"/>
      <point x="433" y="827" type="curve" smooth="yes"/>
      <point x="361" y="827"/>
      <point x="319" y="795"/>
      <point x="319" y="730" type="curve" smooth="yes"/>
      <point x="319" y="663"/>
      <point x="361" y="633"/>
      <point x="433" y="633" type="curve" smooth="yes"/>
      <point x="504" y="633"/>
      <point x="545" y="664"/>
    </contour>
  </outline>
</glyph>
<glyph name="ordfeminine" format="2">
  <advance width="625"/>
  <unicode hex="00AA"/>
  <outline>
    <contour>
      <point x="348" y="548" type="line"/>
      <point x="110" y="523"/>
      <point x="49" y="477"/>
      <point x="49" y="386" type="curve" smooth="yes"/>
      <point x="49" y="307"/>
      <point x="102" y="273"/>
      <point x="187" y="273" type="curve" smooth="yes"/>
      <point x="270" y="273"/>
      <point x="320" y="310"/>
      <point x="372" y="382" type="curve"/>
      <point x="348" y="399" type="line"/>
      <point x="315" y="360"/>
      <point x="292" y="346"/>
      <point x="266" y="346" type="curve" smooth="yes"/>
      <point x="236" y="346"/>
      <point x="218" y="362"/>
      <point x="218" y="407" type="curve" smooth="yes"/>
      <point x="218" y="470"/>
      <point x="244" y="491"/>
      <point x="348" y="506" type="curve"/>
    </contour>
    <contour>
      <point x="369" y="282" type="line"/>
      <point x="568" y="282" type="line"/>
      <point x="568" y="328" type="line"/>
      <point x="562" y="329" type="line" smooth="yes"/>
      <point x="533" y="334"/>
      <point x="524" y="337"/>
      <point x="524" y="349" type="curve" smooth="yes"/>
      <point x="524" y="556" type="line" smooth="yes"/>
      <point x="524" y="686"/>
      <point x="456" y="730"/>
      <point x="299" y="730" type="curve" smooth="yes"/>
      <point x="198" y="730"/>
      <point x="110" y="705"/>
      <point x="73" y="688" type="curve"/>
      <point x="73" y="583" type="line"/>
      <point x="210" y="583" type="line"/>
      <point x="210" y="699" type="line"/>
      <point x="183" y="695"/>
      <point x="169" y="667"/>
      <point x="173" y="655" type="curve"/>
      <point x="183" y="661"/>
      <point x="232" y="675"/>
      <point x="272" y="675" type="curve" smooth="yes"/>
      <point x="329" y="675"/>
      <point x="342" y="654"/>
      <point x="342" y="570" type="curve" smooth="yes"/>
      <point x="342" y="363" type="line"/>
      <point x="349" y="370" type="line"/>
    </contour>
  </outline>
</glyph>
<glyph name="macron" format="2">
  <advance width="606"/>
  <unicode hex="00AF"/>
  <outline>
    <contour>
      <point x="75" y="767" type="line"/>
      <point x="75" y="671" type="line"/>
      <point x="531" y="671" type="line"/>
      <point x="531" y="767" type="line"/>
    </contour>
  </outline>
</glyph>
<glyph name="paragraph" format="2">
  <advance width="773"/>
  <unicode hex="00B6"/>
  <outline>
    <contour>
      <point x="427" y="0" type="line"/>
      <point x="350" y="0" type="line"/>
      <point x="350" y="282" type="line"/>
      <point x="275" y="282" type="line" smooth="yes"/>
      <point x="116" y="282"/>
      <point x="27" y="351"/>
      <point x="27" y="502" type="curve" smooth="yes"/>
      <point x="27" y="641"/>
      <point x="112" y="710"/>
      <point x="270" y="710" type="curve" smooth="yes"/>
      <point x="427" y="710" type="line"/>
    </contour>
    <contour>
      <point x="600" y="710" type="line"/>
      <point x="600" y="655" type="line"/>
      <point x="357" y="655" type="line"/>
      <point x="357" y="710" type="line"/>
    </contour>
    <contour>
      <point x="644" y="0" type="line"/>
      <point x="567" y="0" type="line"/>
      <point x="567" y="710" type="line"/>
      <point x="743" y="710" type="line"/>
      <point x="743" y="645" type="line"/>
      <point x="721" y="645" type="line" smooth="yes"/>
      <point x="688" y="645"/>
      <point x="644" y="638"/>
      <point x="644" y="609" type="curve" smooth="yes"/>
    </contour>
  </outline>
</glyph>
<glyph name="ordmasculine" format="2">
  <advance width="646"/>
  <unicode hex="00BA"/>
  <outline>
    <contour>
      <point x="600" y="501" type="curve" smooth="yes"/>
      <point x="600" y="651"/>
      <point x="497" y="730"/>
      <point x="323" y="730" type="curve" smooth="yes"/>
      <point x="150" y="730"/>
      <point x="46" y="651"/>
      <point x="46" y="501" type="curve" smooth="yes"/>
      <point x="46" y="351"/>
      <point x="150" y="272"/>
      <point x="323" y="272" type="curve" smooth="yes"/>
      <point x="497" y="272"/>
      <point x="600" y="351"/>
    </contour>
    <contour>
      <point x="232" y="501" type="curve" smooth="yes"/>
      <point x="232" y="632"/>
      <point x="263" y="672"/>
      <point x="323" y="672" type="curve" smooth="yes"/>
      <point x="383" y="672"/>
      <point x="414" y="632"/>
      <point x="414" y="501" type="curve" smooth="yes"/>
      <point x="414" y="371"/>
      <point x="383" y="331"/>
      <point x="323" y="331" type="curve" smooth="yes"/>
      <point x="263" y="331"/>
      <point x="232" y="371"/>
    </contour>
  </outline>
</glyph>
<glyph name="multiply" format="2">
  <advance width="680"/>
  <unicode hex="00D7"/>
  <outline>
    <contour>
      <point x="98" y="191" type="line"/>
      <point x="184" y="103" type="line"/>
      <point x="582" y="491" type="line"/>
      <point x="495" y="579" type="line"/>
    </contour>
    <contour>
      <point x="98" y="491" type="line"/>
      <point x="495" y="103" type="line"/>
      <point x="582" y="191" type="line"/>
      <point x="184" y="579" type="line"/>
    </contour>
  </outline>
</glyph>
<glyph name="germandbls" format="2">
  <advance width="918"/>
  <unicode hex="00DF"/>
  <outline>
    <contour>
      <point x="31" y="572" type="line"/>
      <point x="31" y="495" type="line"/>
      <point x="211" y="495" type="line"/>
      <point x="211" y="572" type="line"/>
    </contour>
    <contour>
      <point x="544" y="449" type="line"/>
      <point x="692" y="448"/>
      <point x="831" y="478"/>
      <point x="831" y="615" type="curve" smooth="yes"/>
      <point x="831" y="728"/>
      <point x="742" y="785"/>
      <point x="502" y="785" type="curve"/>
      <point x="281" y="785"/>
      <point x="141" y="721"/>
      <point x="141" y="571" type="curve" smooth="yes"/>
      <point x="141" y="113" type="line" smooth="yes"/>
      <point x="141" y="62"/>
      <point x="120" y="50"/>
      <point x="78" y="50" type="curve" smooth="yes"/>
      <point x="42" y="50" type="line"/>
      <point x="42" y="0" type="line"/>
      <point x="402" y="0" type="line"/>
      <point x="402" y="563" type="line" smooth="yes"/>
      <point x="402" y="673"/>
      <point x="433" y="715"/>
      <point x="504" y="715" type="curve"/>
      <point x="561" y="715"/>
      <point x="599" y="687"/>
      <point x="599" y="595" type="curve"/>
      <point x="599" y="496"/>
      <point x="538" y="471"/>
      <point x="485" y="468" type="curve"/>
      <point x="485" y="400" type="line"/>
      <point x="487" y="400" type="line" smooth="yes"/>
      <point x="573" y="400"/>
      <point x="622" y="356"/>
      <point x="622" y="236" type="curve" smooth="yes"/>
      <point x="622" y="111"/>
      <point x="586" y="70"/>
      <point x="532" y="70" type="curve" smooth="yes"/>
      <point x="516" y="70"/>
      <point x="498" y="72"/>
      <point x="485" y="75" type="curve"/>
      <point x="485" y="3" type="line"/>
      <point x="514" y="-4"/>
      <point x="558" y="-10"/>
      <point x="607" y="-10" type="curve" smooth="yes"/>
      <point x="791" y="-10"/>
      <point x="882" y="63"/>
      <point x="882" y="216" type="curve" smooth="yes"/>
      <point x="882" y="363"/>
      <point x="773" y="417"/>
      <point x="563" y="433" type="curve"/>
      <point x="584" y="402" type="line"/>
      <point x="584" y="476" type="line"/>
    </contour>
  </outline>
</glyph>
<glyph name="icircumflex" format="2">
  <advance width="473"/>
  <unicode hex="00EE"/>
  <outline>
    <contour>
      <point x="305" y="870" type="line"/>
      <point x="472" y="666" type="line"/>
      <point x="472" y="618" type="line"/>
      <point x="447" y="618" type="line"/>
      <point x="256" y="716" type="line"/>
      <point x="197" y="715" type="line"/>
      <point x="13" y="618" type="line"/>
      <point x="-8" y="618" type="line"/>
      <point x="-8" y="666" type="line"/>
      <point x="160" y="870" type="line"/>
    </contour>
    <component base="dotlessi"/>
  </outline>
</glyph>
<glyph name="idieresis" format="2">
  <advance width="473"/>
  <unicode hex="00EF"/>
  <outline>
    <contour>
      <point x="64" y="615" type="curve" smooth="yes"/>
      <point x="139" y="615"/>
      <point x="183" y="648"/>
      <point x="183" y="717" type="curve" smooth="yes"/>
      <point x="183" y="785"/>
      <point x="139" y="819"/>
      <point x="64" y="819" type="curve" smooth="yes"/>
      <point x="-12" y="819"/>
      <point x="-55" y="785"/>
      <point x="-55" y="717" type="curve" smooth="yes"/>
      <point x="-55" y="646"/>
      <point x="-12" y="615"/>
    </contour>
    <contour>
      <point x="359" y="615" type="curve" smooth="yes"/>
      <point x="434" y="615"/>
      <point x="477" y="648"/>
      <point x="477" y="717" type="curve" smooth="yes"/>
      <point x="477" y="785"/>
      <point x="434" y="819"/>
      <point x="359" y="819" type="curve" smooth="yes"/>
      <point x="284" y="819"/>
      <point x="239" y="785"/>
      <point x="239" y="717" type="curve" smooth="yes"/>
      <point x="239" y="646"/>
      <point x="284" y="615"/>
    </contour>
    <component base="dotlessi"/>
  </outline>
</glyph>
<glyph name="eth" format="2">
  <advance width="827"/>
  <unicode hex="00F0"/>
  <outline>
    <contour>
      <point x="580" y="442" type="line"/>
      <point x="544" y="515"/>
      <point x="473" y="557"/>
      <point x="356" y="557" type="curve" smooth="yes"/>
      <point x="166" y="557"/>
      <point x="45" y="454"/>
      <point x="45" y="272" type="curve" smooth="yes"/>
      <point x="45" y="77"/>
      <point x="185" y="-15"/>
      <point x="413" y="-15" type="curve" smooth="yes"/>
      <point x="631" y="-15"/>
      <point x="782" y="93"/>
      <point x="782" y="351" type="curve" smooth="yes"/>
      <point x="782" y="643"/>
      <point x="590" y="790"/>
      <point x="211" y="843" type="curve"/>
      <point x="192" y="774" type="line"/>
      <point x="461" y="706"/>
      <point x="516" y="648"/>
      <point x="516" y="329" type="curve" smooth="yes"/>
      <point x="516" y="108"/>
      <point x="480" y="47"/>
      <point x="413" y="47" type="curve" smooth="yes"/>
      <point x="359" y="47"/>
      <point x="311" y="105"/>
      <point x="311" y="273" type="curve" smooth="yes"/>
      <point x="311" y="431"/>
      <point x="349" y="489"/>
      <point x="416" y="489" type="curve" smooth="yes"/>
      <point x="492" y="489"/>
      <point x="545" y="439"/>
      <point x="581" y="370" type="curve"/>
    </contour>
    <contour>
      <point x="147" y="651" type="line"/>
      <point x="162" y="588" type="line"/>
      <point x="731" y="758" type="line"/>
      <point x="716" y="820" type="line"/>
    </contour>
  </outline>
</glyph>
<glyph name="thorn" format="2">
  <advance width="925"/>
  <unicode hex="00FE"/>
  <outline>
    <contour>
      <point x="468" y="-223" type="line"/>
      <point x="468" y="-173" type="line"/>
      <point x="456" y="-173" type="line" smooth="yes"/>
      <point x="400" y="-173"/>
      <point x="376" y="-165"/>
      <point x="376" y="-154" type="curve" smooth="yes"/>
      <point x="376" y="780" type="line"/>
      <point x="50" y="780" type="line"/>
      <point x="50" y="720" type="line"/>
      <point x="63" y="718" type="line" smooth="yes"/>
      <point x="97" y="713"/>
      <point x="113" y="708"/>
      <point x="113" y="694" type="curve" smooth="yes"/>
      <point x="113" y="-108" type="line" smooth="yes"/>
      <point x="113" y="-158"/>
      <point x="94" y="-173"/>
      <point x="58" y="-173" type="curve"/>
      <point x="51" y="-173" type="line"/>
      <point x="51" y="-223" type="line"/>
    </contour>
    <contour>
      <point x="581" y="-12" type="curve" smooth="yes"/>
      <point x="769" y="-12"/>
      <point x="878" y="101"/>
      <point x="878" y="293" type="curve" smooth="yes"/>
      <point x="878" y="484"/>
      <point x="784" y="583"/>
      <point x="607" y="583" type="curve" smooth="yes"/>
      <point x="452" y="583"/>
      <point x="375" y="512"/>
      <point x="317" y="365" type="curve"/>
      <point x="337" y="354" type="line"/>
      <point x="406" y="457"/>
      <point x="449" y="478"/>
      <point x="499" y="478" type="curve" smooth="yes"/>
      <point x="570" y="478"/>
      <point x="608" y="427"/>
      <point x="608" y="288" type="curve" smooth="yes"/>
      <point x="608" y="139"/>
      <point x="557" y="83"/>
      <point x="483" y="83" type="curve" smooth="yes"/>
      <point x="429" y="83"/>
      <point x="388" y="98"/>
      <point x="337" y="191" type="curve"/>
      <point x="307" y="175" type="line"/>
      <point x="319" y="66"/>
      <point x="428" y="-12"/>
    </contour>
  </outline>
</glyph>
<glyph name="Hbar" format="2">
  <advance width="1040"/>
  <unicode hex="0126"/>
  <outline>
    <contour>
      <point x="244" y="358" type="line"/>
      <point x="244" y="289" type="line"/>
      <point x="755" y="289" type="line"/>
      <point x="755" y="358" type="line"/>
    </contour>
    <contour>
      <point x="46" y="0" type="line"/>
      <point x="467" y="0" type="line"/>
      <point x="467" y="65" type="line"/>
      <point x="450" y="65" type="line" smooth="yes"/>
      <point x="420" y="65"/>
      <point x="400" y="68"/>
      <point x="400" y="78" type="curve" smooth="yes"/>
      <point x="400" y="632" type="line" smooth="yes"/>
      <point x="400" y="642"/>
      <point x="420" y="645"/>
      <point x="450" y="645" type="curve" smooth="yes"/>
      <point x="467" y="645" type="line"/>
      <point x="467" y="710" type="line"/>
      <point x="46" y="710" type="line"/>
      <point x="46" y="645" type="line"/>
      <point x="71" y="645" type="line" smooth="yes"/>
      <point x="101" y="645"/>
      <point x="121" y="635"/>
      <point x="121" y="615" type="curve" smooth="yes"/>
      <point x="121" y="95" type="line" smooth="yes"/>
      <point x="121" y="75"/>
      <point x="101" y="65"/>
      <point x="71" y="65" type="curve" smooth="yes"/>
      <point x="46" y="65" type="line"/>
    </contour>
    <contour>
      <point x="583" y="0" type="line"/>
      <point x="1004" y="0" type="line"/>
      <point x="1004" y="65" type="line"/>
      <point x="978" y="65" type="line" smooth="yes"/>
      <point x="948" y="65"/>
      <point x="928" y="75"/>
      <point x="928" y="95" type="curve" smooth="yes"/>
      <point x="928" y="615" type="line" smooth="yes"/>
      <point x="928" y="635"/>
      <point x="948" y="645"/>
      <point x="978" y="645" type="curve" smooth="yes"/>
      <point x="1004" y="645" type="line"/>
      <point x="1004" y="710" type="line"/>
      <point x="583" y="710" type="line"/>
      <point x="583" y="645" type="line"/>
      <point x="599" y="645" type="line" smooth="yes"/>
      <point x="629" y="645"/>
      <point x="649" y="642"/>
      <point x="649" y="632" type="curve" smooth="yes"/>
      <point x="649" y="78" type="line" smooth="yes"/>
      <point x="649" y="68"/>
      <point x="629" y="65"/>
      <point x="599" y="65" type="curve" smooth="yes"/>
      <point x="583" y="65" type="line"/>
    </contour>
    <contour>
      <point x="22" y="464" type="line"/>
      <point x="1018" y="464" type="line"/>
      <point x="1018" y="523" type="line"/>
      <point x="22" y="523" type="line"/>
    </contour>
  </outline>
</glyph>
<glyph name="itilde" format="2">
  <advance width="473"/>
  <unicode hex="0129"/>
  <outline>
    <contour>
      <point x="321" y="630" type="curve" smooth="yes"/>
      <point x="401" y="630"/>
      <point x="437" y="700"/>
      <point x="452" y="857" type="curve"/>
      <point x="399" y="856" type="line"/>
      <point x="391" y="791"/>
      <point x="380" y="750"/>
      <point x="338" y="750" type="curve" smooth="yes"/>
      <point x="282" y="750"/>
      <point x="274" y="852"/>
      <point x="167" y="852" type="curve" smooth="yes"/>
      <point x="79" y="852"/>
      <point x="50" y="773"/>
      <point x="37" y="632" type="curve"/>
      <point x="90" y="636" type="line"/>
      <point x="98" y="698"/>
      <point x="110" y="735"/>
      <point x="153" y="735" type="curve" smooth="yes"/>
      <point x="208" y="735"/>
      <point x="204" y="630"/>
    </contour>
    <component base="dotlessi"/>
  </outline>
</glyph>
<glyph name="imacron" format="2">
  <advance width="473"/>
  <unicode hex="012B"/>
  <outline>
    <contour>
      <point x="27" y="767" type="line"/>
      <point x="27" y="664" type="line"/>
      <point x="442" y="664" type="line"/>
      <point x="442" y="767" type="line"/>
    </contour>
    <component base="dotlessi"/>
  </outline>
</glyph>
<glyph name="ibreve" format="2">
  <advance width="473"/>
  <unicode hex="012D"/>
  <outline>
    <contour>
      <point x="244" y="621" type="curve" smooth="yes"/>
      <point x="112" y="621"/>
      <point x="47" y="696"/>
      <point x="48" y="843" type="curve"/>
      <point x="106" y="843" type="line"/>
      <point x="109" y="803"/>
      <point x="153" y="758"/>
      <point x="247" y="758" type="curve" smooth="yes"/>
      <point x="341" y="758"/>
      <point x="382" y="803"/>
      <point x="386" y="843" type="curve"/>
      <point x="440" y="843" type="line"/>
      <point x="441" y="696"/>
      <point x="376" y="621"/>
    </contour>
    <component base="dotlessi"/>
  </outline>
</glyph>
<glyph name="kgreenlandic" format="2">
  <advance width="925"/>
  <unicode hex="0138"/>
  <outline>
    <contour>
      <point x="898" y="0" type="line"/>
      <point x="898" y="50" type="line"/>
      <point x="893" y="50" type="line"/>
      <point x="879" y="50"/>
      <point x="863" y="55"/>
      <point x="843" y="81" type="curve" smooth="yes"/>
      <point x="600" y="426" type="line"/>
      <point x="453" y="293" type="line"/>
      <point x="703" y="482" type="line" smooth="yes"/>
      <point x="751" y="517"/>
      <point x="796" y="518"/>
      <point x="845" y="518" type="curve"/>
      <point x="870" y="518" type="line"/>
      <point x="870" y="572" type="line"/>
      <point x="540" y="572" type="line"/>
      <point x="540" y="518" type="line"/>
      <point x="560" y="518" type="line"/>
      <point x="610" y="518"/>
      <point x="653" y="512"/>
      <point x="657" y="504" type="curve"/>
      <point x="406" y="316" type="line"/>
      <point x="406" y="286" type="line"/>
      <point x="560" y="60" type="line"/>
      <point x="556" y="54"/>
      <point x="533" y="50"/>
      <point x="510" y="50" type="curve"/>
      <point x="503" y="50" type="line"/>
      <point x="503" y="0" type="line"/>
    </contour>
    <contour>
      <point x="376" y="572" type="line"/>
      <point x="50" y="572" type="line"/>
      <point x="50" y="508" type="line"/>
      <point x="63" y="506" type="line" smooth="yes"/>
      <point x="97" y="501"/>
      <point x="113" y="501"/>
      <point x="113" y="487" type="curve" smooth="yes"/>
      <point x="113" y="115" type="line" smooth="yes"/>
      <point x="113" y="65"/>
      <point x="94" y="50"/>
      <point x="58" y="50" type="curve"/>
      <point x="50" y="50" type="line"/>
      <point x="50" y="0" type="line"/>
      <point x="439" y="0" type="line"/>
      <point x="439" y="50" type="line"/>
      <point x="431" y="50" type="line" smooth="yes"/>
      <point x="395" y="50"/>
      <point x="376" y="65"/>
      <point x="376" y="115" type="curve" smooth="yes"/>
    </contour>
  </outline>
</glyph>
<glyph name="Ldot" format="2">
  <advance width="865"/>
  <unicode hex="013F"/>
  <outline>
    <contour>
      <point x="501" y="710" type="line"/>
      <point x="501" y="645" type="line"/>
      <point x="451" y="645" type="line" smooth="yes"/>
      <point x="421" y="645"/>
      <point x="401" y="635"/>
      <point x="401" y="615" type="curve" smooth="yes"/>
      <point x="401" y="58" type="line"/>
      <point x="546" y="58" type="line" smooth="yes"/>
      <point x="641" y="58"/>
      <point x="664" y="67"/>
      <point x="669" y="103" type="curve" smooth="yes"/>
      <point x="694" y="260" type="line"/>
      <point x="810" y="260" type="line"/>
      <point x="810" y="0" type="line"/>
      <point x="46" y="0" type="line"/>
      <point x="46" y="65" type="line"/>
      <point x="71" y="65" type="line" smooth="yes"/>
      <point x="101" y="65"/>
      <point x="121" y="75"/>
      <point x="121" y="95" type="curve" smooth="yes"/>
      <point x="121" y="615" type="line" smooth="yes"/>
      <point x="121" y="635"/>
      <point x="101" y="645"/>
      <point x="71" y="645" type="curve" smooth="yes"/>
      <point x="46" y="645" type="line"/>
      <point x="46" y="710" type="line"/>
    </contour>
    <component base="periodcentered" xOffset="456" yOffset="108"/>
  </outline>
</glyph>
<glyph name="Lslash" format="2">
  <advance width="869"/>
  <unicode hex="0141"/>
  <outline>
    <contour>
      <point x="23" y="189" type="line"/>
      <point x="23" y="254" type="line"/>
      <point x="693" y="509" type="line"/>
      <point x="693" y="444" type="line"/>
    </contour>
    <component base="L" xOffset="14"/>
  </outline>
</glyph>
<glyph name="Tbar" format="2">
  <advance width="962"/>
  <unicode hex="0166"/>
  <outline>
    <contour>
      <point x="217" y="334" type="line"/>
      <point x="217" y="274" type="line"/>
      <point x="745" y="274" type="line"/>
      <point x="745" y="334" type="line"/>
    </contour>
    <component base="T"/>
  </outline>
</glyph>
<glyph name="tbar" format="2">
  <advance width="660"/>
  <unicode hex="0167"/>
  <outline>
    <contour>
      <point x="36" y="279" type="line"/>
      <point x="565" y="279" type="line"/>
      <point x="565" y="339" type="line"/>
      <point x="36" y="339" type="line"/>
    </contour>
    <component base="t"/>
  </outline>
</glyph>
<glyph name="florin" format="2">
  <advance width="602"/>
  <unicode hex="0192"/>
  <outline>
    <contour>
      <point x="144" y="572" type="line"/>
      <point x="131" y="505" type="line"/>
      <point x="554" y="505" type="line"/>
      <point x="567" y="572" type="line"/>
    </contour>
    <contour>
      <point x="360" y="-22" type="curve" smooth="yes"/>
      <point x="445" y="634" type="line" smooth="yes"/>
      <point x="451" y="685"/>
      <point x="469" y="715"/>
      <point x="529" y="715" type="curve" smooth="yes"/>
      <point x="550" y="715"/>
      <point x="564" y="712"/>
      <point x="583" y="708" type="curve"/>
      <point x="602" y="772" type="line"/>
      <point x="574" y="779"/>
      <point x="526" y="785"/>
      <point x="480" y="785" type="curve" smooth="yes"/>
      <point x="297" y="785"/>
      <point x="234" y="721"/>
      <point x="217" y="587" type="curve" smooth="yes"/>
      <point x="127" y="-109" type="line" smooth="yes"/>
      <point x="120" y="-169"/>
      <point x="112" y="-180"/>
      <point x="67" y="-180" type="curve" smooth="yes"/>
      <point x="47" y="-180"/>
      <point x="32" y="-176"/>
      <point x="21" y="-172" type="curve"/>
      <point x="0" y="-236" type="line"/>
      <point x="19" y="-243"/>
      <point x="55" y="-250"/>
      <point x="93" y="-250" type="curve" smooth="yes"/>
      <point x="266" y="-250"/>
      <point x="340" y="-176"/>
    </contour>
  </outline>
</glyph>
<glyph name="Khook" format="2">
  <advance width="1084"/>
  <unicode hex="0198"/>
  <outline>
    <contour>
      <point x="46" y="0" type="line"/>
      <point x="457" y="0" type="line"/>
      <point x="457" y="65" type="line"/>
      <point x="450" y="65" type="line" smooth="yes"/>
      <point x="420" y="65"/>
      <point x="400" y="68"/>
      <point x="400" y="78" type="curve" smooth="yes"/>
      <point x="400" y="632" type="line" smooth="yes"/>
      <point x="400" y="642"/>
      <point x="420" y="645"/>
      <point x="450" y="645" type="curve" smooth="yes"/>
      <point x="457" y="645" type="line"/>
      <point x="457" y="710" type="line"/>
      <point x="46" y="710" type="line"/>
      <point x="46" y="645" type="line"/>
      <point x="71" y="645" type="line" smooth="yes"/>
      <point x="101" y="645"/>
      <point x="121" y="635"/>
      <point x="121" y="615" type="curve" smooth="yes"/>
      <point x="121" y="95" type="line" smooth="yes"/>
      <point x="121" y="75"/>
      <point x="101" y="65"/>
      <point x="71" y="65" type="curve" smooth="yes"/>
      <point x="46" y="65" type="line"/>
    </contour>
    <contour>
      <point x="934" y="719" type="curve" smooth="yes"/>
      <point x="861" y="719.0"/>
      <point x="822" y="695"/>
      <point x="729" y="618" type="curve" smooth="yes"/>
      <point x="430" y="372" type="line"/>
      <point x="430" y="342" type="line"/>
      <point x="642" y="73" type="line"/>
      <point x="642" y="68"/>
      <point x="602" y="65"/>
      <point x="568" y="65" type="curve" smooth="yes"/>
      <point x="560" y="65" type="line"/>
      <point x="560" y="0" type="line"/>
      <point x="1024" y="0" type="line"/>
      <point x="1024" y="65" type="line"/>
      <point x="1010" y="65" type="line" smooth="yes"/>
      <point x="1004" y="65"/>
      <point x="974" y="67"/>
      <point x="953" y="92" type="curve" smooth="yes"/>
      <point x="625" y="494" type="line"/>
      <point x="516" y="369" type="line"/>
      <point x="785" y="591" type="line" smooth="yes"/>
      <point x="826" y="625"/>
      <point x="845" y="637.0"/>
      <point x="868" y="637" type="curve" smooth="yes"/>
      <point x="901.4883720930233" y="637.0"/>
      <point x="913.0" y="615.0"/>
      <point x="913" y="579" type="curve" smooth="yes"/>
      <point x="913.0" y="531"/>
      <point x="903.0" y="474"/>
      <point x="892" y="438" type="curve"/>
      <point x="1066" y="438" type="line"/>
      <point x="1074.0" y="465"/>
      <point x="1083.0" y="521"/>
      <point x="1083" y="571" type="curve" smooth="yes"/>
      <point x="1083.0" y="661.0"/>
      <point x="1037.3877551020407" y="719.0"/>
    </contour>
  </outline>
</glyph>
<glyph name="khook" format="2">
  <advance width="925"/>
  <unicode hex="0199"/>
  <outline>
    <contour>
      <point x="898" y="0" type="line"/>
      <point x="898" y="50" type="line"/>
      <point x="882" y="50" type="line" smooth="yes"/>
      <point x="865" y="50"/>
      <point x="847" y="58"/>
      <point x="832" y="80" type="curve" smooth="yes"/>
      <point x="587" y="427" type="line"/>
      <point x="450" y="275" type="line"/>
      <point x="707" y="473" type="line" smooth="yes"/>
      <point x="754" y="510"/>
      <point x="782" y="521"/>
      <point x="835" y="521" type="curve"/>
      <point x="860" y="521" type="line"/>
      <point x="860" y="571" type="line"/>
      <point x="550" y="571" type="line"/>
      <point x="550" y="521" type="line"/>
      <point x="570" y="521" type="line"/>
      <point x="620" y="521"/>
      <point x="668" y="516"/>
      <point x="668" y="507" type="curve"/>
      <point x="406" y="306" type="line"/>
      <point x="406" y="286" type="line"/>
      <point x="568" y="60" type="line"/>
      <point x="568" y="52"/>
      <point x="527" y="50"/>
      <point x="510" y="50" type="curve"/>
      <point x="503" y="50" type="line"/>
      <point x="503" y="0" type="line"/>
    </contour>
    <contour>
      <point x="113" y="557" type="curve"/>
      <point x="113" y="115" type="line" smooth="yes"/>
      <point x="113" y="65"/>
      <point x="93" y="50"/>
      <point x="57" y="50" type="curve" smooth="yes"/>
      <point x="49" y="50" type="line"/>
      <point x="49" y="0" type="line"/>
      <point x="426" y="0" type="line"/>
      <point x="426" y="50" type="line"/>
      <point x="417" y="50" type="line" smooth="yes"/>
      <point x="401" y="50"/>
      <point x="376" y="52"/>
      <point x="376" y="58" type="curve"/>
      <point x="376" y="553" type="line"/>
      <point x="376.0" y="686"/>
      <point x="412.0" y="718.0"/>
      <point x="494" y="718" type="curve"/>
      <point x="562.0" y="718.0"/>
      <point x="614.0" y="711"/>
      <point x="645" y="706" type="curve"/>
      <point x="645" y="775" type="line"/>
      <point x="620" y="779.0"/>
      <point x="550" y="785.0"/>
      <point x="471" y="785" type="curve"/>
      <point x="240" y="785.0"/>
      <point x="113.0" y="723.0"/>
    </contour>
  </outline>
</glyph>
<glyph name="Uhorn" format="2">
  <advance width="1119"/>
  <unicode hex="01AF"/>
  <outline>
    <contour>
      <point x="110" y="286" type="line" smooth="yes"/>
      <point x="110" y="63"/>
      <point x="258" y="-25"/>
      <point x="486" y="-25" type="curve" smooth="yes"/>
      <point x="685" y="-25"/>
      <point x="816" y="49"/>
      <point x="816" y="276" type="curve" smooth="yes"/>
      <point x="816" y="616" type="line" smooth="yes"/>
      <point x="816" y="644"/>
      <point x="856" y="651"/>
      <point x="895" y="657" type="curve" smooth="yes"/>
      <point x="1013" y="674"/>
      <point x="1122" y="652"/>
      <point x="1125" y="888" type="curve"/>
      <point x="996" y="888" type="line"/>
      <point x="987" y="725"/>
      <point x="963" y="710"/>
      <point x="815" y="710" type="curve" smooth="yes"/>
      <point x="642" y="710" type="line"/>
      <point x="642" y="645" type="line"/>
      <point x="669" y="645" type="line" smooth="yes"/>
      <point x="699" y="645"/>
      <point x="749" y="642"/>
      <point x="749" y="632" type="curve" smooth="yes"/>
      <point x="749" y="286" type="line" smooth="yes"/>
      <point x="749" y="124"/>
      <point x="677" y="67"/>
      <point x="564" y="67" type="curve" smooth="yes"/>
      <point x="453" y="67"/>
      <point x="389" y="108"/>
      <point x="389" y="256" type="curve" smooth="yes"/>
      <point x="389" y="632" type="line" smooth="yes"/>
      <point x="389" y="641"/>
      <point x="419" y="645"/>
      <point x="449" y="645" type="curve" smooth="yes"/>
      <point x="467" y="645" type="line"/>
      <point x="467" y="710" type="line"/>
      <point x="34" y="710" type="line"/>
      <point x="34" y="645" type="line"/>
      <point x="59" y="645" type="line" smooth="yes"/>
      <point x="89" y="645"/>
      <point x="110" y="635"/>
      <point x="110" y="615" type="curve" smooth="yes"/>
    </contour>
  </outline>
</glyph>
<glyph name="uhorn" format="2">
  <advance width="1040"/>
  <unicode hex="01B0"/>
  <outline>
    <contour>
      <point x="365" y="572" type="line"/>
      <point x="32" y="572" type="line"/>
      <point x="32" y="522" type="line"/>
      <point x="48" y="520" type="line" smooth="yes"/>
      <point x="85" y="515"/>
      <point x="101" y="510"/>
      <point x="101" y="496" type="curve" smooth="yes"/>
      <point x="101" y="185" type="line" smooth="yes"/>
      <point x="101" y="49"/>
      <point x="168" y="-11"/>
      <point x="309" y="-11" type="curve" smooth="yes"/>
      <point x="436" y="-11"/>
      <point x="535" y="59"/>
      <point x="592" y="143" type="curve"/>
      <point x="621" y="264" type="line"/>
      <point x="537" y="127"/>
      <point x="485" y="95"/>
      <point x="432" y="95" type="curve" smooth="yes"/>
      <point x="389" y="95"/>
      <point x="365" y="113"/>
      <point x="365" y="172" type="curve" smooth="yes"/>
    </contour>
    <contour>
      <point x="740" y="572" type="curve" smooth="yes"/>
      <point x="470" y="572" type="line"/>
      <point x="470" y="522" type="line"/>
      <point x="491" y="520" type="line" smooth="yes"/>
      <point x="538" y="516"/>
      <point x="554" y="510"/>
      <point x="554" y="496" type="curve" smooth="yes"/>
      <point x="554" y="164" type="line"/>
      <point x="559" y="136" type="line"/>
      <point x="595" y="0" type="line"/>
      <point x="881" y="0" type="line"/>
      <point x="881" y="54" type="line"/>
      <point x="868" y="56" type="line" smooth="yes"/>
      <point x="834" y="61"/>
      <point x="818" y="66"/>
      <point x="818" y="80" type="curve" smooth="yes"/>
      <point x="818" y="536" type="line"/>
      <point x="759" y="504" type="line"/>
      <point x="951" y="503"/>
      <point x="1039" y="549"/>
      <point x="1041" y="758" type="curve"/>
      <point x="901" y="758" type="line"/>
      <point x="892" y="617"/>
      <point x="881" y="572"/>
    </contour>
  </outline>
</glyph>
<glyph name="yhook" format="2">
  <advance width="872"/>
  <unicode hex="01B4"/>
  <outline>
    <contour>
      <point x="558" y="137" type="line"/>
      <point x="367" y="513" type="line"/>
      <point x="372" y="520"/>
      <point x="405" y="525"/>
      <point x="435" y="525" type="curve" smooth="yes"/>
      <point x="444" y="525" type="line"/>
      <point x="444" y="572" type="line"/>
      <point x="35" y="572" type="line"/>
      <point x="35" y="522" type="line"/>
      <point x="46" y="522" type="line"/>
      <point x="78" y="522"/>
      <point x="94" y="513"/>
      <point x="124" y="454" type="curve" smooth="yes"/>
      <point x="401" y="-84" type="line"/>
      <point x="515" y="55" type="line"/>
    </contour>
    <contour>
      <point x="742" y="634" type="curve" smooth="yes"/>
      <point x="499" y="106" type="line"/>
      <point x="442" y="-3" type="line"/>
      <point x="403" y="-87"/>
      <point x="317" y="-113"/>
      <point x="185" y="-113" type="curve" smooth="yes"/>
      <point x="121" y="-113"/>
      <point x="79" y="-102"/>
      <point x="37" y="-90" type="curve"/>
      <point x="37" y="-231" type="line"/>
      <point x="61" y="-241"/>
      <point x="115" y="-254"/>
      <point x="177" y="-254" type="curve" smooth="yes"/>
      <point x="365" y="-254"/>
      <point x="435" y="-183"/>
      <point x="542" y="46" type="curve" smooth="yes"/>
      <point x="796" y="591" type="line" smooth="yes"/>
      <point x="828.6464646464647" y="660.0"/>
      <point x="859.2525252525253" y="684.0"/>
      <point x="897" y="684" type="curve"/>
      <point x="916.2727272727273" y="684.0"/>
      <point x="936.5090909090909" y="680.0"/>
      <point x="950" y="677" type="curve"/>
      <point x="950" y="780" type="line"/>
      <point x="939.3636363636364" y="783.0"/>
      <point x="918.0909090909091" y="785.0"/>
      <point x="905" y="785" type="curve"/>
      <point x="836" y="785.0"/>
      <point x="797" y="752"/>
    </contour>
  </outline>
</glyph>
<glyph name="icaron" format="2">
  <advance width="473"/>
  <unicode hex="01D0"/>
  <outline>
    <contour>
      <point x="172" y="630" type="line"/>
      <point x="4" y="835" type="line"/>
      <point x="4" y="883" type="line"/>
      <point x="29" y="883" type="line"/>
      <point x="221" y="785" type="line"/>
      <point x="280" y="785" type="line"/>
      <point x="464" y="883" type="line"/>
      <point x="485" y="883" type="line"/>
      <point x="485" y="835" type="line"/>
      <point x="317" y="630" type="line"/>
    </contour>
    <component base="dotlessi"/>
  </outline>
</glyph>
<glyph name="Oogonek" format="2">
  <advance width="1010"/>
  <unicode hex="01EA"/>
  <outline>
    <contour>
      <point x="505" y="51" type="curve" smooth="yes"/>
      <point x="402" y="51"/>
      <point x="353" y="133"/>
      <point x="353" y="355" type="curve" smooth="yes"/>
      <point x="353" y="577"/>
      <point x="403" y="659"/>
      <point x="505" y="659" type="curve" smooth="yes"/>
      <point x="607" y="659"/>
      <point x="657" y="577"/>
      <point x="657" y="355" type="curve" smooth="yes"/>
      <point x="657" y="133"/>
      <point x="607" y="51"/>
    </contour>
    <contour>
      <point x="726" y="4" type="curve" smooth="yes"/>
      <point x="871" y="66"/>
      <point x="957" y="176"/>
      <point x="957" y="355" type="curve" smooth="yes"/>
      <point x="957" y="612"/>
      <point x="787" y="735"/>
      <point x="505" y="735" type="curve" smooth="yes"/>
      <point x="225" y="735"/>
      <point x="53" y="612"/>
      <point x="53" y="355" type="curve" smooth="yes"/>
      <point x="53" y="97"/>
      <point x="225" y="-25"/>
      <point x="505" y="-25" type="curve" smooth="yes"/>
      <point x="551" y="-25"/>
      <point x="632" y="-16"/>
      <point x="676" y="0" type="curve"/>
      <point x="669" y="13" type="line"/>
      <point x="445" y="-57"/>
      <point x="381" y="-84"/>
      <point x="381" y="-153" type="curve" smooth="yes"/>
      <point x="381" y="-218"/>
      <point x="451" y="-252"/>
      <point x="562" y="-252" type="curve"/>
      <point x="639" y="-252"/>
      <point x="710" y="-235"/>
      <point x="757" y="-208" type="curve"/>
      <point x="742" y="-168" type="line"/>
      <point x="705" y="-190"/>
      <point x="671" y="-194"/>
      <point x="633" y="-194" type="curve" smooth="yes"/>
      <point x="591" y="-194"/>
      <point x="569" y="-182"/>
      <point x="569" y="-141" type="curve" smooth="yes"/>
      <point x="569" y="-95"/>
      <point x="578" y="-56"/>
    </contour>
  </outline>
</glyph>
<glyph name="iinvertedbreve" format="2">
  <advance width="473"/>
  <unicode hex="020B"/>
  <outline>
    <contour>
      <point x="248" y="843" type="curve" smooth="yes"/>
      <point x="380" y="843"/>
      <point x="445" y="768"/>
      <point x="444" y="621" type="curve"/>
      <point x="386" y="621" type="line"/>
      <point x="383" y="661"/>
      <point x="339" y="706"/>
      <point x="245" y="706" type="curve" smooth="yes"/>
      <point x="151" y="706"/>
      <point x="110" y="661"/>
      <point x="106" y="621" type="curve"/>
      <point x="52" y="621" type="line"/>
      <point x="51" y="768"/>
      <point x="116" y="843"/>
    </contour>
    <component base="dotlessi"/>
  </outline>
</glyph>
<glyph name="bhook" format="2">
  <advance width="909"/>
  <unicode hex="0253"/>
  <outline>
    <contour>
      <point x="360" y="553" type="line"/>
      <point x="360.0" y="686.0"/>
      <point x="396.0" y="718.0"/>
      <point x="478" y="718" type="curve"/>
      <point x="546.0" y="718.0"/>
      <point x="598.0" y="711.0"/>
      <point x="629" y="706" type="curve"/>
      <point x="629" y="775" type="line"/>
      <point x="604" y="779.0"/>
      <point x="534" y="785.0"/>
      <point x="455" y="785" type="curve"/>
      <point x="223.35474860335196" y="785.0"/>
      <point x="96.0" y="723.0"/>
      <point x="96" y="557" type="curve" smooth="yes"/>
      <point x="96" y="-18" type="line"/>
      <point x="232" y="-18" type="line"/>
      <point x="344" y="128" type="line"/>
      <point x="360" y="110" type="line"/>
    </contour>
    <contour>
      <point x="566" y="-12" type="curve" smooth="yes"/>
      <point x="754" y="-12"/>
      <point x="863" y="101"/>
      <point x="863" y="293" type="curve" smooth="yes"/>
      <point x="863" y="484"/>
      <point x="769" y="583"/>
      <point x="592" y="583" type="curve" smooth="yes"/>
      <point x="437" y="583"/>
      <point x="360" y="512"/>
      <point x="302" y="365" type="curve"/>
      <point x="322" y="367" type="line"/>
      <point x="388" y="460"/>
      <point x="431" y="479"/>
      <point x="485" y="479" type="curve" smooth="yes"/>
      <point x="555" y="479"/>
      <point x="593" y="442"/>
      <point x="593" y="293" type="curve" smooth="yes"/>
      <point x="593" y="138"/>
      <point x="542" y="88"/>
      <point x="471" y="88" type="curve" smooth="yes"/>
      <point x="422" y="88"/>
      <point x="376" y="103"/>
      <point x="331" y="169" type="curve"/>
      <point x="285" y="142" type="line"/>
      <point x="321" y="53"/>
      <point x="418" y="-12"/>
    </contour>
  </outline>
</glyph>
<glyph name="circumflex" format="2">
  <advance width="538"/>
  <unicode hex="02C6"/>
  <outline>
    <contour>
      <point x="341" y="870" type="line"/>
      <point x="529" y="666" type="line"/>
      <point x="529" y="618" type="line"/>
      <point x="504" y="618" type="line"/>
      <point x="292" y="716" type="line"/>
      <point x="233" y="715" type="line"/>
      <point x="30" y="618" type="line"/>
      <point x="9" y="618" type="line"/>
      <point x="9" y="666" type="line"/>
      <point x="196" y="870" type="line"/>
    </contour>
  </outline>
</glyph>
<glyph name="ogonek" format="2">
  <advance width="645"/>
  <unicode hex="02DB"/>
  <outline>
    <contour>
      <point x="446" y="42" type="line"/>
      <point x="172" y="-64"/>
      <point x="124" y="-92"/>
      <point x="124" y="-153" type="curve" smooth="yes"/>
      <point x="124" y="-228"/>
      <point x="194" y="-252"/>
      <point x="305" y="-252" type="curve"/>
      <point x="382" y="-252"/>
      <point x="453" y="-235"/>
      <point x="500" y="-208" type="curve"/>
      <point x="481" y="-168" type="line"/>
      <point x="447" y="-188"/>
      <point x="411" y="-198"/>
      <point x="371" y="-198" type="curve" smooth="yes"/>
      <point x="330" y="-198"/>
      <point x="312" y="-184"/>
      <point x="312" y="-141" type="curve" smooth="yes"/>
      <point x="312" y="-100"/>
      <point x="323" y="-70"/>
      <point x="444" y="11" type="curve"/>
    </contour>
  </outline>
</glyph>
<glyph name="tilde" format="2">
  <advance width="538"/>
  <unicode hex="02DC"/>
  <outline>
    <contour>
      <point x="364" y="633" type="curve" smooth="yes"/>
      <point x="447" y="633"/>
      <point x="487" y="700"/>
      <point x="510" y="857" type="curve"/>
      <point x="462" y="854" type="line"/>
      <point x="448" y="786"/>
      <point x="428" y="748"/>
      <point x="385" y="748" type="curve" smooth="yes"/>
      <point x="327" y="748"/>
      <point x="280" y="850"/>
      <point x="173" y="850" type="curve" smooth="yes"/>
      <point x="87" y="850"/>
      <point x="49" y="774"/>
      <point x="29" y="633" type="curve"/>
      <point x="77" y="633" type="line"/>
      <point x="91" y="698"/>
      <point x="108" y="738"/>
      <point x="153" y="738" type="curve" smooth="yes"/>
      <point x="210" y="738"/>
      <point x="248" y="633"/>
    </contour>
  </outline>
</glyph>
<glyph name="hungarumlaut" format="2">
  <advance width="537"/>
  <unicode hex="02DD"/>
  <outline>
    <contour>
      <point x="73" y="800" type="curve" smooth="yes"/>
      <point x="27" y="675" type="line"/>
      <point x="27" y="630" type="line"/>
      <point x="61" y="630" type="line"/>
      <point x="173" y="691" type="line" smooth="yes"/>
      <point x="243" y="729"/>
      <point x="278" y="761"/>
      <point x="278" y="814" type="curve" smooth="yes"/>
      <point x="278" y="862"/>
      <point x="238" y="893"/>
      <point x="186" y="893" type="curve" smooth="yes"/>
      <point x="127" y="893"/>
      <point x="100" y="861"/>
    </contour>
    <contour>
      <point x="343" y="800" type="curve" smooth="yes"/>
      <point x="297" y="675" type="line"/>
      <point x="297" y="630" type="line"/>
      <point x="331" y="630" type="line"/>
      <point x="443" y="691" type="line" smooth="yes"/>
      <point x="513" y="729"/>
      <point x="548" y="761"/>
      <point x="548" y="814" type="curve" smooth="yes"/>
      <point x="548" y="862"/>
      <point x="504" y="893"/>
      <point x="452" y="893" type="curve" smooth="yes"/>
      <point x="393" y="893"/>
      <point x="370" y="861"/>
    </contour>
  </outline>
</glyph>
<glyph name="pi" format="2">
  <advance width="1042"/>
  <unicode hex="03C0"/>
  <outline>
    <contour>
      <point x="446" y="0" type="line"/>
      <point x="446" y="440" type="line"/>
      <point x="370" y="440" type="line"/>
      <point x="360" y="170"/>
      <point x="245" y="184"/>
      <point x="245" y="0" type="curve"/>
    </contour>
    <contour>
      <point x="978" y="396" type="line"/>
      <point x="978" y="532" type="line"/>
      <point x="300" y="532" type="line" smooth="yes"/>
      <point x="134" y="532"/>
      <point x="71" y="409"/>
      <point x="48" y="285" type="curve"/>
      <point x="116" y="272" type="line"/>
      <point x="138" y="362"/>
      <point x="157" y="396"/>
      <point x="248" y="396" type="curve" smooth="yes"/>
    </contour>
    <contour>
      <point x="785" y="134" type="curve" smooth="yes"/>
      <point x="785" y="440" type="line"/>
      <point x="748" y="440" type="line"/>
      <point x="688" y="234"/>
      <point x="600" y="203"/>
      <point x="600" y="115" type="curve" smooth="yes"/>
      <point x="600" y="21"/>
      <point x="669" y="-10"/>
      <point x="774" y="-10" type="curve" smooth="yes"/>
      <point x="895" y="-10"/>
      <point x="961" y="58"/>
      <point x="989" y="175" type="curve"/>
      <point x="937" y="186" type="line"/>
      <point x="923" y="144"/>
      <point x="889" y="88"/>
      <point x="834" y="88" type="curve" smooth="yes"/>
      <point x="805" y="88"/>
      <point x="785" y="96"/>
    </contour>
  </outline>
</glyph>
<glyph name="Eukrcyr" format="2">
  <advance width="945"/>
  <unicode hex="0404"/>
  <outline>
    <contour>
      <point x="324" y="388" type="curve"/>
      <point x="324" y="342" type="line"/>
      <point x="432" y="330"/>
      <point x="529" y="320"/>
      <point x="633" y="309" type="curve"/>
      <point x="633" y="424" type="line"/>
      <point x="529" y="412"/>
      <point x="432" y="401"/>
    </contour>
    <contour>
      <point x="534" y="654" type="curve" smooth="yes"/>
      <point x="639" y="654"/>
      <point x="718" y="595"/>
      <point x="755" y="461" type="curve"/>
      <point x="872" y="461" type="line"/>
      <point x="872" y="719" type="line"/>
      <point x="780" y="719" type="line"/>
      <point x="767" y="549" type="line"/>
      <point x="795" y="479" type="line"/>
      <point x="768" y="633"/>
      <point x="674" y="735"/>
      <point x="485" y="735" type="curve" smooth="yes"/>
      <point x="234" y="735"/>
      <point x="53" y="624"/>
      <point x="53" y="354" type="curve" smooth="yes"/>
      <point x="53" y="92"/>
      <point x="220" y="-25"/>
      <point x="502" y="-25" type="curve" smooth="yes"/>
      <point x="718" y="-25"/>
      <point x="830" y="57"/>
      <point x="884" y="207" type="curve"/>
      <point x="817" y="236" type="line"/>
      <point x="771" y="106"/>
      <point x="681" y="56"/>
      <point x="562" y="56" type="curve" smooth="yes"/>
      <point x="406" y="56"/>
      <point x="344" y="117"/>
      <point x="344" y="355" type="curve" smooth="yes"/>
      <point x="344" y="584"/>
      <point x="414" y="654"/>
    </contour>
  </outline>
</glyph>
<glyph name="Yukrcyr" format="2">
  <advance width="544"/>
  <unicode hex="0407"/>
  <outline>
    <contour>
      <point x="250" y="886" type="curve" smooth="yes"/>
      <point x="250" y="952"/>
      <point x="207" y="983"/>
      <point x="137" y="983" type="curve" smooth="yes"/>
      <point x="64" y="983"/>
      <point x="23" y="952"/>
      <point x="23" y="886" type="curve" smooth="yes"/>
      <point x="23" y="819"/>
      <point x="64" y="790"/>
      <point x="137" y="790" type="curve" smooth="yes"/>
      <point x="207" y="790"/>
      <point x="250" y="820"/>
    </contour>
    <contour>
      <point x="521" y="886" type="curve" smooth="yes"/>
      <point x="521" y="952"/>
      <point x="480" y="983"/>
      <point x="409" y="983" type="curve" smooth="yes"/>
      <point x="337" y="983"/>
      <point x="295" y="952"/>
      <point x="295" y="886" type="curve" smooth="yes"/>
      <point x="295" y="819"/>
      <point x="337" y="790"/>
      <point x="409" y="790" type="curve" smooth="yes"/>
      <point x="480" y="790"/>
      <point x="521" y="820"/>
    </contour>
    <component base="I"/>
  </outline>
</glyph>
<glyph name="Ljecyr" format="2">
  <advance width="1347"/>
  <unicode hex="0409"/>
  <outline>
    <contour>
      <point x="274" y="710" type="line"/>
      <point x="274" y="651" type="line"/>
      <point x="705" y="651" type="line"/>
      <point x="705" y="710" type="line"/>
    </contour>
    <contour>
      <point x="226" y="370" type="line" smooth="yes"/>
      <point x="223" y="243"/>
      <point x="184" y="195"/>
      <point x="85" y="195" type="curve" smooth="yes"/>
      <point x="50" y="195"/>
      <point x="32" y="204"/>
      <point x="20" y="210" type="curve"/>
      <point x="20" y="0" type="line"/>
      <point x="33" y="-7"/>
      <point x="54" y="-15"/>
      <point x="87" y="-15" type="curve" smooth="yes"/>
      <point x="258" y="-15"/>
      <point x="300" y="110"/>
      <point x="305" y="390" type="curve" smooth="yes"/>
      <point x="311" y="710" type="line"/>
      <point x="136" y="710" type="line"/>
      <point x="136" y="645" type="line"/>
      <point x="161" y="645" type="line" smooth="yes"/>
      <point x="201" y="645"/>
      <point x="232" y="638"/>
      <point x="231" y="609" type="curve" smooth="yes"/>
    </contour>
    <contour>
      <point x="967" y="0" type="line" smooth="yes"/>
      <point x="1186" y="0"/>
      <point x="1316" y="61"/>
      <point x="1316" y="219" type="curve" smooth="yes"/>
      <point x="1316" y="370"/>
      <point x="1195" y="424"/>
      <point x="973" y="424" type="curve" smooth="yes"/>
      <point x="752" y="424" type="line"/>
      <point x="752" y="369" type="line"/>
      <point x="918" y="369" type="line" smooth="yes"/>
      <point x="1001" y="369"/>
      <point x="1046" y="322"/>
      <point x="1046" y="213" type="curve" smooth="yes"/>
      <point x="1046" y="106"/>
      <point x="1001" y="55"/>
      <point x="914" y="55" type="curve" smooth="yes"/>
      <point x="838" y="55" type="line"/>
      <point x="838" y="615" type="line" smooth="yes"/>
      <point x="838" y="635"/>
      <point x="858" y="645"/>
      <point x="888" y="645" type="curve" smooth="yes"/>
      <point x="935" y="645" type="line"/>
      <point x="935" y="710" type="line"/>
      <point x="559" y="710" type="line"/>
      <point x="559" y="78" type="line" smooth="yes"/>
      <point x="559" y="68"/>
      <point x="539" y="65"/>
      <point x="509" y="65" type="curve" smooth="yes"/>
      <point x="493" y="65" type="line"/>
      <point x="493" y="0" type="line"/>
    </contour>
  </outline>
</glyph>
<glyph name="Zecyr" format="2">
  <advance width="853"/>
  <unicode hex="0417"/>
  <outline>
    <contour>
      <point x="500" y="-25" type="curve" smooth="yes"/>
      <point x="682" y="-25"/>
      <point x="815" y="30"/>
      <point x="815" y="175" type="curve" smooth="yes"/>
      <point x="815" y="305"/>
      <point x="726" y="349"/>
      <point x="518" y="365" type="curve"/>
      <point x="548" y="321" type="line"/>
      <point x="548" y="418" type="line"/>
      <point x="519" y="386" type="line"/>
      <point x="715" y="396"/>
      <point x="794" y="441"/>
      <point x="794" y="559" type="curve" smooth="yes"/>
      <point x="794" y="691"/>
      <point x="663" y="735"/>
      <point x="501" y="735" type="curve" smooth="yes"/>
      <point x="335" y="735"/>
      <point x="194" y="667"/>
      <point x="162" y="479" type="curve"/>
      <point x="190" y="549" type="line"/>
      <point x="177" y="719" type="line"/>
      <point x="85" y="719" type="line"/>
      <point x="85" y="471" type="line"/>
      <point x="207" y="471" type="line"/>
      <point x="243" y="595"/>
      <point x="314" y="654"/>
      <point x="400" y="654" type="curve" smooth="yes"/>
      <point x="480" y="654"/>
      <point x="515" y="606"/>
      <point x="515" y="522" type="curve" smooth="yes"/>
      <point x="515" y="428"/>
      <point x="467" y="395"/>
      <point x="392" y="403" type="curve" smooth="yes"/>
      <point x="361.031" y="406.33"/>
      <point x="329.969" y="409.67"/>
      <point x="299" y="413" type="curve"/>
      <point x="299" y="318" type="line"/>
      <point x="328.304" y="320.997"/>
      <point x="357.696" y="324.003"/>
      <point x="387" y="327" type="curve" smooth="yes"/>
      <point x="480" y="337"/>
      <point x="530" y="300"/>
      <point x="530" y="201" type="curve" smooth="yes"/>
      <point x="530" y="101"/>
      <point x="477" y="56"/>
      <point x="397" y="56" type="curve" smooth="yes"/>
      <point x="303" y="56"/>
      <point x="233" y="125"/>
      <point x="192" y="239" type="curve"/>
      <point x="70" y="239" type="line"/>
      <point x="70" y="-9" type="line"/>
      <point x="162" y="-9" type="line"/>
      <point x="175" y="161" type="line"/>
      <point x="147" y="231" type="line"/>
      <point x="174" y="76"/>
      <point x="274" y="-25"/>
    </contour>
  </outline>
</glyph>
<glyph name="Elcyr" format="2">
  <advance width="990"/>
  <unicode hex="041B"/>
  <outline>
    <contour>
      <point x="274" y="710" type="line"/>
      <point x="274" y="651" type="line"/>
      <point x="705" y="651" type="line"/>
      <point x="705" y="710" type="line"/>
    </contour>
    <contour>
      <point x="523" y="0" type="line"/>
      <point x="944" y="0" type="line"/>
      <point x="944" y="65" type="line"/>
      <point x="918" y="65" type="line" smooth="yes"/>
      <point x="888" y="65"/>
      <point x="868" y="75"/>
      <point x="868" y="95" type="curve" smooth="yes"/>
      <point x="868" y="615" type="line" smooth="yes"/>
      <point x="868" y="635"/>
      <point x="888" y="645"/>
      <point x="918" y="645" type="curve" smooth="yes"/>
      <point x="944" y="645" type="line"/>
      <point x="944" y="710" type="line"/>
      <point x="589" y="710" type="line"/>
      <point x="589" y="78" type="line" smooth="yes"/>
      <point x="589" y="68"/>
      <point x="569" y="65"/>
      <point x="539" y="65" type="curve" smooth="yes"/>
      <point x="523" y="65" type="line"/>
    </contour>
    <contour>
      <point x="226" y="370" type="line" smooth="yes"/>
      <point x="223" y="243"/>
      <point x="184" y="195"/>
      <point x="85" y="195" type="curve" smooth="yes"/>
      <point x="50" y="195"/>
      <point x="32" y="204"/>
      <point x="20" y="210" type="curve"/>
      <point x="20" y="0" type="line"/>
      <point x="33" y="-7"/>
      <point x="54" y="-15"/>
      <point x="87" y="-15" type="curve" smooth="yes"/>
      <point x="258" y="-15"/>
      <point x="300" y="110"/>
      <point x="305" y="390" type="curve" smooth="yes"/>
      <point x="311" y="710" type="line"/>
      <point x="136" y="710" type="line"/>
      <point x="136" y="645" type="line"/>
      <point x="161" y="645" type="line" smooth="yes"/>
      <point x="201" y="645"/>
      <point x="232" y="638"/>
      <point x="231" y="609" type="curve" smooth="yes"/>
    </contour>
  </outline>
</glyph>
<glyph name="Checyr" format="2">
  <advance width="1009"/>
  <unicode hex="0427"/>
  <guideline x="1123" y="741" angle="90" identifier="nfCxFSb4p1"/>
  <outline>
    <contour>
      <point x="512" y="0" type="line"/>
      <point x="963" y="0" type="line"/>
      <point x="963" y="65" type="line"/>
      <point x="937" y="65" type="line" smooth="yes"/>
      <point x="907" y="65"/>
      <point x="887" y="75"/>
      <point x="887" y="95" type="curve" smooth="yes"/>
      <point x="887" y="615" type="line" smooth="yes"/>
      <point x="887" y="635"/>
      <point x="907" y="645"/>
      <point x="937" y="645" type="curve" smooth="yes"/>
      <point x="963" y="645" type="line"/>
      <point x="963" y="710" type="line"/>
      <point x="542" y="710" type="line"/>
      <point x="542" y="645" type="line"/>
      <point x="558" y="645" type="line" smooth="yes"/>
      <point x="588" y="645"/>
      <point x="608" y="642"/>
      <point x="608" y="632" type="curve" smooth="yes"/>
      <point x="608" y="78" type="line" smooth="yes"/>
      <point x="608" y="68"/>
      <point x="588" y="65"/>
      <point x="558" y="65" type="curve" smooth="yes"/>
      <point x="512" y="65" type="line"/>
    </contour>
    <contour>
      <point x="404" y="285" type="curve" smooth="yes"/>
      <point x="507" y="285"/>
      <point x="592" y="298"/>
      <point x="639" y="310" type="curve"/>
      <point x="639" y="357" type="line"/>
      <point x="602" y="347"/>
      <point x="564" y="342"/>
      <point x="523" y="342" type="curve" smooth="yes"/>
      <point x="422" y="342"/>
      <point x="389" y="372"/>
      <point x="389" y="460" type="curve" smooth="yes"/>
      <point x="389" y="632" type="line" smooth="yes"/>
      <point x="389" y="642"/>
      <point x="409" y="645"/>
      <point x="439" y="645" type="curve" smooth="yes"/>
      <point x="456" y="645" type="line"/>
      <point x="456" y="710" type="line"/>
      <point x="35" y="710" type="line"/>
      <point x="35" y="645" type="line"/>
      <point x="60" y="645" type="line" smooth="yes"/>
      <point x="90" y="645"/>
      <point x="110" y="635"/>
      <point x="110" y="615" type="curve" smooth="yes"/>
      <point x="110" y="460" type="line" smooth="yes"/>
      <point x="110" y="335"/>
      <point x="222" y="285"/>
    </contour>
  </outline>
</glyph>
<glyph name="Hardcyr" format="2">
  <advance width="1119"/>
  <unicode hex="042A"/>
  <outline>
    <contour>
      <point x="739" y="0" type="line" smooth="yes"/>
      <point x="958" y="0"/>
      <point x="1088" y="61"/>
      <point x="1088" y="219" type="curve" smooth="yes"/>
      <point x="1088" y="370"/>
      <point x="967" y="424"/>
      <point x="745" y="424" type="curve" smooth="yes"/>
      <point x="574" y="424" type="line"/>
      <point x="574" y="369" type="line"/>
      <point x="690" y="369" type="line" smooth="yes"/>
      <point x="773" y="369"/>
      <point x="818" y="322"/>
      <point x="818" y="213" type="curve" smooth="yes"/>
      <point x="818" y="106"/>
      <point x="773" y="55"/>
      <point x="686" y="55" type="curve" smooth="yes"/>
      <point x="610" y="55" type="line"/>
      <point x="610" y="632" type="line"/>
      <point x="610" y="642"/>
      <point x="630" y="645"/>
      <point x="660" y="645" type="curve" smooth="yes"/>
      <point x="707" y="645" type="line"/>
      <point x="707" y="710" type="line"/>
      <point x="45" y="710" type="line"/>
      <point x="45" y="398" type="line"/>
      <point x="143" y="398" type="line"/>
      <point x="163" y="595" type="line" smooth="yes"/>
      <point x="167" y="630"/>
      <point x="187" y="647"/>
      <point x="284" y="647" type="curve" smooth="yes"/>
      <point x="331" y="647" type="line"/>
      <point x="331" y="95" type="line" smooth="yes"/>
      <point x="331" y="75"/>
      <point x="311" y="65"/>
      <point x="281" y="65" type="curve" smooth="yes"/>
      <point x="256" y="65" type="line"/>
      <point x="256" y="0" type="line"/>
    </contour>
  </outline>
</glyph>
<glyph name="Ylongcyr" format="2">
  <advance width="1350"/>
  <unicode hex="042B"/>
  <outline>
    <contour>
      <point x="949" y="78" type="line" smooth="yes"/>
      <point x="949" y="68"/>
      <point x="929" y="65"/>
      <point x="899" y="65" type="curve" smooth="yes"/>
      <point x="883" y="65" type="line"/>
      <point x="883" y="0" type="line"/>
      <point x="1304" y="0" type="line"/>
      <point x="1304" y="65" type="line"/>
      <point x="1278" y="65" type="line" smooth="yes"/>
      <point x="1248" y="65"/>
      <point x="1228" y="75"/>
      <point x="1228" y="95" type="curve" smooth="yes"/>
      <point x="1228" y="615" type="line" smooth="yes"/>
      <point x="1228" y="635"/>
      <point x="1248" y="645"/>
      <point x="1278" y="645" type="curve" smooth="yes"/>
      <point x="1304" y="645" type="line"/>
      <point x="1304" y="710" type="line"/>
      <point x="883" y="710" type="line"/>
      <point x="883" y="645" type="line"/>
      <point x="899" y="645" type="line" smooth="yes"/>
      <point x="929" y="645"/>
      <point x="949" y="642"/>
      <point x="949" y="632" type="curve" smooth="yes"/>
    </contour>
    <component base="Softcyr"/>
  </outline>
</glyph>
<glyph name="Ereversedcyr" format="2">
  <advance width="942"/>
  <unicode hex="042D"/>
  <outline>
    <contour>
      <point x="608" y="388" type="line"/>
      <point x="495" y="402"/>
      <point x="410" y="412"/>
      <point x="309" y="424" type="curve"/>
      <point x="309" y="309" type="line"/>
      <point x="410" y="320"/>
      <point x="495" y="330"/>
      <point x="608" y="342" type="curve"/>
    </contour>
    <contour>
      <point x="477" y="-25" type="curve" smooth="yes"/>
      <point x="716" y="-25"/>
      <point x="889" y="86"/>
      <point x="889" y="354" type="curve" smooth="yes"/>
      <point x="889" y="624"/>
      <point x="718" y="735"/>
      <point x="482" y="735" type="curve" smooth="yes"/>
      <point x="287" y="735"/>
      <point x="189" y="633"/>
      <point x="162" y="479" type="curve"/>
      <point x="190" y="549" type="line"/>
      <point x="177" y="719" type="line"/>
      <point x="85" y="719" type="line"/>
      <point x="85" y="471" type="line"/>
      <point x="207" y="471" type="line"/>
      <point x="240" y="592"/>
      <point x="308.6470588235" y="654"/>
      <point x="423" y="654" type="curve" smooth="yes"/>
      <point x="531" y="654"/>
      <point x="598" y="573"/>
      <point x="598" y="356" type="curve" smooth="yes"/>
      <point x="598" y="127"/>
      <point x="533" y="56"/>
      <point x="408" y="56" type="curve" smooth="yes"/>
      <point x="293.6470588235" y="56"/>
      <point x="232" y="131"/>
      <point x="192" y="239" type="curve"/>
      <point x="70" y="239" type="line"/>
      <point x="70" y="-9" type="line"/>
      <point x="162" y="-9" type="line"/>
      <point x="175" y="161" type="line"/>
      <point x="147" y="231" type="line"/>
      <point x="174" y="77"/>
      <point x="276" y="-25"/>
    </contour>
  </outline>
</glyph>
<glyph name="becyr" format="2">
  <advance width="858"/>
  <unicode hex="0431"/>
  <outline>
    <contour>
      <point x="639" y="788" type="line" smooth="yes"/>
      <point x="244" y="768"/>
      <point x="50" y="593"/>
      <point x="50" y="335" type="curve" smooth="yes"/>
      <point x="50" y="106"/>
      <point x="172" y="-15"/>
      <point x="431" y="-15" type="curve" smooth="yes"/>
      <point x="686" y="-15"/>
      <point x="813" y="85"/>
      <point x="813" y="268" type="curve" smooth="yes"/>
      <point x="813" y="445"/>
      <point x="709" y="526"/>
      <point x="550" y="526" type="curve" smooth="yes"/>
      <point x="379" y="526"/>
      <point x="310" y="447"/>
      <point x="258" y="325" type="curve"/>
      <point x="271" y="297" type="line"/>
      <point x="332" y="387"/>
      <point x="375" y="423"/>
      <point x="439" y="423" type="curve" smooth="yes"/>
      <point x="518" y="423"/>
      <point x="543" y="362"/>
      <point x="543" y="253" type="curve" smooth="yes"/>
      <point x="543" y="115"/>
      <point x="496" y="61"/>
      <point x="431" y="61" type="curve" smooth="yes"/>
      <point x="367" y="61"/>
      <point x="320" y="113"/>
      <point x="320" y="284" type="curve" smooth="yes"/>
      <point x="320" y="315"/>
      <point x="320" y="382"/>
      <point x="320" y="413" type="curve"/>
      <point x="280" y="354" type="line"/>
      <point x="252" y="552"/>
      <point x="285.9320865448" y="569.4832634702"/>
      <point x="545" y="584" type="curve" smooth="yes"/>
      <point x="777" y="597" type="line"/>
      <point x="777" y="795" type="line"/>
    </contour>
  </outline>
</glyph>
<glyph name="vecyr" format="2">
  <advance width="844"/>
  <unicode hex="0432"/>
  <outline>
    <contour>
      <point x="49" y="571" type="line"/>
      <point x="49" y="521" type="line"/>
      <point x="57" y="521" type="line" smooth="yes"/>
      <point x="93" y="521"/>
      <point x="112" y="506"/>
      <point x="112" y="456" type="curve" smooth="yes"/>
      <point x="112" y="115" type="line" smooth="yes"/>
      <point x="112" y="65"/>
      <point x="93" y="50"/>
      <point x="57" y="50" type="curve" smooth="yes"/>
      <point x="49" y="50" type="line"/>
      <point x="49" y="0" type="line"/>
      <point x="539" y="0" type="line" smooth="yes"/>
      <point x="710" y="0"/>
      <point x="807" y="41"/>
      <point x="807" y="156" type="curve" smooth="yes"/>
      <point x="807" y="257"/>
      <point x="706" y="287"/>
      <point x="600" y="294" type="curve"/>
      <point x="607" y="265" type="line"/>
      <point x="607" y="342" type="line"/>
      <point x="600" y="314" type="line"/>
      <point x="712" y="320"/>
      <point x="791" y="345"/>
      <point x="791" y="435" type="curve" smooth="yes"/>
      <point x="791" y="536"/>
      <point x="700" y="571"/>
      <point x="533" y="571" type="curve" smooth="yes"/>
    </contour>
    <contour>
      <point x="375" y="50" type="line"/>
      <point x="375" y="521" type="line"/>
      <point x="439" y="521" type="line" smooth="yes"/>
      <point x="501" y="521"/>
      <point x="528" y="491"/>
      <point x="528" y="420" type="curve" smooth="yes"/>
      <point x="528" y="348"/>
      <point x="501" y="319"/>
      <point x="439" y="319" type="curve" smooth="yes"/>
      <point x="326" y="319" type="line"/>
      <point x="326" y="274" type="line"/>
      <point x="439" y="274" type="line" smooth="yes"/>
      <point x="513" y="274"/>
      <point x="544" y="247"/>
      <point x="544" y="161" type="curve" smooth="yes"/>
      <point x="544" y="79"/>
      <point x="513" y="50"/>
      <point x="439" y="50" type="curve" smooth="yes"/>
    </contour>
  </outline>
</glyph>
<glyph name="gecyr" format="2">
  <advance width="723"/>
  <unicode hex="0433"/>
  <outline>
    <contour>
      <point x="112" y="115" type="line" smooth="yes"/>
      <point x="112" y="65"/>
      <point x="93" y="50"/>
      <point x="57" y="50" type="curve" smooth="yes"/>
      <point x="49" y="50" type="line"/>
      <point x="49" y="0" type="line"/>
      <point x="466" y="0" type="line"/>
      <point x="466" y="50" type="line"/>
      <point x="443" y="50" type="line" smooth="yes"/>
      <point x="401" y="50"/>
      <point x="375" y="65"/>
      <point x="375" y="117" type="curve" smooth="yes"/>
      <point x="375" y="571" type="line"/>
      <point x="49" y="571" type="line"/>
      <point x="49" y="521" type="line"/>
      <point x="57" y="521" type="line" smooth="yes"/>
      <point x="93" y="521"/>
      <point x="112" y="506"/>
      <point x="112" y="456" type="curve" smooth="yes"/>
    </contour>
    <contour>
      <point x="243" y="516" type="line"/>
      <point x="514" y="516" type="line" smooth="yes"/>
      <point x="577" y="516"/>
      <point x="592" y="495"/>
      <point x="595" y="459" type="curve" smooth="yes"/>
      <point x="610" y="295" type="line"/>
      <point x="698" y="295" type="line"/>
      <point x="698" y="571" type="line"/>
      <point x="243" y="571" type="line"/>
    </contour>
  </outline>
</glyph>
<glyph name="zhecyr" format="2">
  <advance width="1268"/>
  <unicode hex="0436"/>
  <guideline x="241" y="553" angle="90" identifier="lmgRx0QBdK"/>
  <outline>
    <contour>
      <point x="1241" y="0" type="line"/>
      <point x="1241" y="50" type="line"/>
      <point x="1230" y="50" type="line" smooth="yes"/>
      <point x="1207" y="50"/>
      <point x="1189" y="58"/>
      <point x="1176" y="80" type="curve" smooth="yes"/>
      <point x="969" y="413" type="line"/>
      <point x="831" y="267" type="line"/>
      <point x="1058" y="473" type="line" smooth="yes"/>
      <point x="1101" y="512"/>
      <point x="1135" y="521"/>
      <point x="1188" y="521" type="curve" smooth="yes"/>
      <point x="1213" y="521" type="line"/>
      <point x="1213" y="571" type="line"/>
      <point x="903" y="571" type="line"/>
      <point x="903" y="521" type="line"/>
      <point x="923" y="521" type="line" smooth="yes"/>
      <point x="973" y="521"/>
      <point x="1021" y="516"/>
      <point x="1021" y="507" type="curve"/>
      <point x="789" y="296" type="line"/>
      <point x="789" y="276" type="line"/>
      <point x="923" y="60" type="line"/>
      <point x="923" y="52"/>
      <point x="885" y="50"/>
      <point x="863" y="50" type="curve"/>
      <point x="856" y="50" type="line"/>
      <point x="856" y="0" type="line"/>
    </contour>
    <contour>
      <point x="27" y="0" type="line"/>
      <point x="397" y="0" type="line"/>
      <point x="397" y="50" type="line"/>
      <point x="390" y="50" type="line"/>
      <point x="368" y="50"/>
      <point x="330" y="52"/>
      <point x="330" y="60" type="curve"/>
      <point x="464" y="276" type="line"/>
      <point x="464" y="296" type="line"/>
      <point x="232" y="507" type="line"/>
      <point x="232" y="516"/>
      <point x="280" y="521"/>
      <point x="330" y="521" type="curve" smooth="yes"/>
      <point x="350" y="521" type="line"/>
      <point x="350" y="571" type="line"/>
      <point x="38" y="571" type="line"/>
      <point x="38" y="521" type="line"/>
      <point x="63" y="521" type="line" smooth="yes"/>
      <point x="115.5923076923" y="521"/>
      <point x="149.1920786844" y="511.8477171411"/>
      <point x="192" y="473" type="curve" smooth="yes"/>
      <point x="419" y="267" type="line"/>
      <point x="294" y="413" type="line"/>
      <point x="87" y="80" type="line" smooth="yes"/>
      <point x="73.8211674506" y="58.7992693771"/>
      <point x="58.8703703704" y="50"/>
      <point x="38" y="50" type="curve" smooth="yes"/>
      <point x="27" y="50" type="line"/>
    </contour>
    <contour>
      <point x="444" y="521" type="line"/>
      <point x="453" y="521" type="line" smooth="yes"/>
      <point x="469" y="521"/>
      <point x="495" y="519"/>
      <point x="495" y="513" type="curve" smooth="yes"/>
      <point x="495" y="58" type="line" smooth="yes"/>
      <point x="495" y="52"/>
      <point x="469" y="50"/>
      <point x="453" y="50" type="curve" smooth="yes"/>
      <point x="444" y="50" type="line"/>
      <point x="444" y="0" type="line"/>
      <point x="809" y="0" type="line"/>
      <point x="809" y="50" type="line"/>
      <point x="800" y="50" type="line" smooth="yes"/>
      <point x="784" y="50"/>
      <point x="758" y="52"/>
      <point x="758" y="58" type="curve" smooth="yes"/>
      <point x="758" y="513" type="line" smooth="yes"/>
      <point x="758" y="519"/>
      <point x="784" y="521"/>
      <point x="800" y="521" type="curve" smooth="yes"/>
      <point x="809" y="521" type="line"/>
      <point x="809" y="571" type="line"/>
      <point x="444" y="571" type="line"/>
    </contour>
  </outline>
</glyph>
<glyph name="zecyr" format="2">
  <advance width="762"/>
  <unicode hex="0437"/>
  <outline>
    <contour>
      <point x="328" y="54" type="curve" smooth="yes"/>
      <point x="281" y="54"/>
      <point x="239" y="58"/>
      <point x="192" y="78" type="curve"/>
      <point x="188.9609415868" y="48.6224353392"/>
      <point x="200.9544317134" y="9.0260390209"/>
      <point x="215" y="1" type="curve"/>
      <point x="215" y="188" type="line"/>
      <point x="65" y="188" type="line"/>
      <point x="65" y="18" type="line"/>
      <point x="108" y="5"/>
      <point x="218" y="-12"/>
      <point x="356" y="-12" type="curve" smooth="yes"/>
      <point x="592" y="-12"/>
      <point x="725" y="33"/>
      <point x="725" y="157" type="curve" smooth="yes"/>
      <point x="725" y="252"/>
      <point x="628" y="289"/>
      <point x="516" y="294" type="curve"/>
      <point x="523" y="262" type="line"/>
      <point x="523" y="337" type="line"/>
      <point x="516" y="314" type="line"/>
      <point x="626" y="318"/>
      <point x="709" y="345"/>
      <point x="709" y="438" type="curve" smooth="yes"/>
      <point x="709" y="544"/>
      <point x="588" y="583"/>
      <point x="361" y="583" type="curve" smooth="yes"/>
      <point x="224" y="583"/>
      <point x="116" y="566"/>
      <point x="73" y="553" type="curve"/>
      <point x="73" y="383" type="line"/>
      <point x="223" y="383" type="line"/>
      <point x="223" y="570" type="line"/>
      <point x="211.0661934145" y="560.0551611787"/>
      <point x="200" y="520"/>
      <point x="200" y="497" type="curve"/>
      <point x="247" y="516"/>
      <point x="288" y="517"/>
      <point x="326" y="517" type="curve" smooth="yes"/>
      <point x="411" y="517"/>
      <point x="445" y="487"/>
      <point x="445" y="426" type="curve" smooth="yes"/>
      <point x="445" y="361"/>
      <point x="425" y="318"/>
      <point x="346" y="318" type="curve" smooth="yes"/>
      <point x="266" y="318" type="line"/>
      <point x="266" y="263" type="line"/>
      <point x="346" y="263" type="line" smooth="yes"/>
      <point x="426" y="263"/>
      <point x="461" y="226"/>
      <point x="461" y="152" type="curve" smooth="yes"/>
      <point x="461" y="82"/>
      <point x="428" y="54"/>
    </contour>
  </outline>
</glyph>
<glyph name="kacyr" format="2">
  <advance width="925"/>
  <unicode hex="043A"/>
  <guideline x="241" y="553" angle="90" identifier="lmgRx0QBdK"/>
  <outline>
    <contour>
      <point x="112" y="115" type="line" smooth="yes"/>
      <point x="112" y="65"/>
      <point x="93" y="50"/>
      <point x="57" y="50" type="curve"/>
      <point x="49" y="50" type="line"/>
      <point x="49" y="0" type="line"/>
      <point x="426" y="0" type="line"/>
      <point x="426" y="50" type="line"/>
      <point x="417" y="50" type="line" smooth="yes"/>
      <point x="401" y="50"/>
      <point x="375" y="52"/>
      <point x="375" y="58" type="curve" smooth="yes"/>
      <point x="375" y="513" type="line" smooth="yes"/>
      <point x="375" y="519"/>
      <point x="401" y="521"/>
      <point x="417" y="521" type="curve" smooth="yes"/>
      <point x="426" y="521" type="line"/>
      <point x="426" y="571" type="line"/>
      <point x="49" y="571" type="line"/>
      <point x="49" y="521" type="line"/>
      <point x="57" y="521" type="line"/>
      <point x="93" y="521"/>
      <point x="112" y="506"/>
      <point x="112" y="456" type="curve" smooth="yes"/>
    </contour>
    <contour>
      <point x="898" y="0" type="line"/>
      <point x="898" y="50" type="line"/>
      <point x="882" y="50" type="line" smooth="yes"/>
      <point x="865" y="50"/>
      <point x="851" y="58"/>
      <point x="835" y="80" type="curve" smooth="yes"/>
      <point x="585" y="413" type="line"/>
      <point x="450" y="267" type="line"/>
      <point x="707" y="473" type="line" smooth="yes"/>
      <point x="753" y="510"/>
      <point x="782" y="521"/>
      <point x="835" y="521" type="curve"/>
      <point x="860" y="521" type="line"/>
      <point x="860" y="571" type="line"/>
      <point x="550" y="571" type="line"/>
      <point x="550" y="521" type="line"/>
      <point x="570" y="521" type="line"/>
      <point x="620" y="521"/>
      <point x="668" y="516"/>
      <point x="668" y="507" type="curve"/>
      <point x="406" y="296" type="line"/>
      <point x="406" y="276" type="line"/>
      <point x="568" y="60" type="line"/>
      <point x="568" y="52"/>
      <point x="527" y="50"/>
      <point x="510" y="50" type="curve"/>
      <point x="503" y="50" type="line"/>
      <point x="503" y="0" type="line"/>
    </contour>
  </outline>
</glyph>
<glyph name="pecyr" format="2">
  <advance width="922"/>
  <unicode hex="043F"/>
  <outline>
    <contour>
      <point x="112" y="115" type="line" smooth="yes"/>
      <point x="112" y="65"/>
      <point x="93" y="50"/>
      <point x="57" y="50" type="curve" smooth="yes"/>
      <point x="49" y="50" type="line"/>
      <point x="49" y="0" type="line"/>
      <point x="426" y="0" type="line"/>
      <point x="426" y="50" type="line"/>
      <point x="417" y="50" type="line" smooth="yes"/>
      <point x="401" y="50"/>
      <point x="375" y="52"/>
      <point x="375" y="58" type="curve" smooth="yes"/>
      <point x="375" y="571" type="line"/>
      <point x="49" y="571" type="line"/>
      <point x="49" y="521" type="line"/>
      <point x="57" y="521" type="line" smooth="yes"/>
      <point x="93" y="521"/>
      <point x="112" y="506"/>
      <point x="112" y="456" type="curve" smooth="yes"/>
    </contour>
    <contour>
      <point x="547" y="58" type="line" smooth="yes"/>
      <point x="547" y="52"/>
      <point x="521" y="50"/>
      <point x="505" y="50" type="curve" smooth="yes"/>
      <point x="496" y="50" type="line"/>
      <point x="496" y="0" type="line"/>
      <point x="873" y="0" type="line"/>
      <point x="873" y="50" type="line"/>
      <point x="865" y="50" type="line" smooth="yes"/>
      <point x="829" y="50"/>
      <point x="810" y="65"/>
      <point x="810" y="115" type="curve" smooth="yes"/>
      <point x="810" y="456" type="line" smooth="yes"/>
      <point x="810" y="506"/>
      <point x="829" y="521"/>
      <point x="865" y="521" type="curve" smooth="yes"/>
      <point x="873" y="521" type="line"/>
      <point x="873" y="571" type="line"/>
      <point x="547" y="571" type="line"/>
    </contour>
    <contour>
      <point x="319" y="516" type="line"/>
      <point x="611" y="516" type="line"/>
      <point x="611" y="571" type="line"/>
      <point x="319" y="571" type="line"/>
    </contour>
  </outline>
</glyph>
<glyph name="efcyr" format="2">
  <advance width="1217"/>
  <unicode hex="0444"/>
  <outline>
    <contour>
      <point x="740" y="780" type="line"/>
      <point x="414" y="780" type="line"/>
      <point x="414" y="720" type="line"/>
      <point x="427" y="718" type="line" smooth="yes"/>
      <point x="461" y="713"/>
      <point x="477" y="708"/>
      <point x="477" y="694" type="curve" smooth="yes"/>
      <point x="477" y="-108" type="line" smooth="yes"/>
      <point x="477" y="-158"/>
      <point x="458" y="-173"/>
      <point x="422" y="-173" type="curve" smooth="yes"/>
      <point x="414" y="-173" type="line"/>
      <point x="414" y="-223" type="line"/>
      <point x="803" y="-223" type="line"/>
      <point x="803" y="-173" type="line"/>
      <point x="795" y="-173" type="line" smooth="yes"/>
      <point x="759" y="-173"/>
      <point x="740" y="-158"/>
      <point x="740" y="-108" type="curve" smooth="yes"/>
    </contour>
    <contour>
      <point x="477" y="583" type="line"/>
      <point x="195" y="578"/>
      <point x="45" y="478"/>
      <point x="45" y="284" type="curve" smooth="yes"/>
      <point x="45" y="90"/>
      <point x="195" y="-10"/>
      <point x="477" y="-15" type="curve"/>
      <point x="477" y="61" type="line"/>
      <point x="357" y="67"/>
      <point x="315" y="129"/>
      <point x="315" y="284" type="curve" smooth="yes"/>
      <point x="315" y="439"/>
      <point x="357" y="501"/>
      <point x="477" y="507" type="curve"/>
    </contour>
    <contour>
      <point x="740" y="-15" type="line"/>
      <point x="1022" y="-10"/>
      <point x="1172" y="90"/>
      <point x="1172" y="284" type="curve" smooth="yes"/>
      <point x="1172" y="478"/>
      <point x="1022" y="578"/>
      <point x="740" y="583" type="curve"/>
      <point x="740" y="507" type="line"/>
      <point x="860" y="501"/>
      <point x="902" y="439"/>
      <point x="902" y="284" type="curve" smooth="yes"/>
      <point x="902" y="129"/>
      <point x="860" y="67"/>
      <point x="740" y="61" type="curve"/>
    </contour>
  </outline>
</glyph>
<glyph name="tsecyr" format="2">
  <advance width="926"/>
  <unicode hex="0446"/>
  <outline>
    <contour>
      <point x="112" y="456" type="curve" smooth="yes"/>
      <point x="112" y="115" type="line" smooth="yes"/>
      <point x="112" y="65"/>
      <point x="93" y="50"/>
      <point x="57" y="50" type="curve" smooth="yes"/>
      <point x="49" y="50" type="line"/>
      <point x="49" y="0" type="line"/>
      <point x="375" y="0" type="line"/>
      <point x="375" y="513" type="line" smooth="yes"/>
      <point x="375" y="519"/>
      <point x="401" y="521"/>
      <point x="417" y="521" type="curve" smooth="yes"/>
      <point x="426" y="521" type="line"/>
      <point x="426" y="571" type="line"/>
      <point x="49" y="571" type="line"/>
      <point x="49" y="521" type="line"/>
      <point x="57" y="521" type="line" smooth="yes"/>
      <point x="93" y="521"/>
      <point x="112" y="506"/>
    </contour>
    <contour>
      <point x="547" y="513" type="curve" smooth="yes"/>
      <point x="547" y="0" type="line"/>
      <point x="810" y="0" type="line"/>
      <point x="810" y="456" type="line" smooth="yes"/>
      <point x="810" y="506"/>
      <point x="829" y="521"/>
      <point x="865" y="521" type="curve" smooth="yes"/>
      <point x="873" y="521" type="line"/>
      <point x="873" y="571" type="line"/>
      <point x="496" y="571" type="line"/>
      <point x="496" y="521" type="line"/>
      <point x="505" y="521" type="line" smooth="yes"/>
      <point x="521" y="521"/>
      <point x="547" y="519"/>
    </contour>
    <contour>
      <point x="547" y="0" type="line"/>
      <point x="669" y="0" type="line" smooth="yes"/>
      <point x="741" y="0"/>
      <point x="756" y="-17"/>
      <point x="761" y="-53" type="curve" smooth="yes"/>
      <point x="778" y="-169" type="line"/>
      <point x="886" y="-169" type="line"/>
      <point x="886" y="55" type="line"/>
      <point x="547" y="55" type="line"/>
    </contour>
    <contour>
      <point x="319" y="0" type="line"/>
      <point x="611" y="0" type="line"/>
      <point x="611" y="55" type="line"/>
      <point x="319" y="55" type="line"/>
    </contour>
  </outline>
</glyph>
<glyph name="shchacyr" format="2">
  <advance width="1381"/>
  <unicode hex="0449"/>
  <outline>
    <contour>
      <point x="112" y="456" type="curve" smooth="yes"/>
      <point x="112" y="115" type="line" smooth="yes"/>
      <point x="112" y="65"/>
      <point x="93" y="50"/>
      <point x="57" y="50" type="curve" smooth="yes"/>
      <point x="49" y="50" type="line"/>
      <point x="49" y="0" type="line"/>
      <point x="375" y="0" type="line"/>
      <point x="375" y="513" type="line" smooth="yes"/>
      <point x="375" y="519"/>
      <point x="401" y="521"/>
      <point x="417" y="521" type="curve" smooth="yes"/>
      <point x="426" y="521" type="line"/>
      <point x="426" y="571" type="line"/>
      <point x="49" y="571" type="line"/>
      <point x="49" y="521" type="line"/>
      <point x="57" y="521" type="line" smooth="yes"/>
      <point x="93" y="521"/>
      <point x="112" y="506"/>
    </contour>
    <contour>
      <point x="1002" y="513" type="curve" smooth="yes"/>
      <point x="1002" y="0" type="line"/>
      <point x="1265" y="0" type="line"/>
      <point x="1265" y="456" type="line" smooth="yes"/>
      <point x="1265" y="506"/>
      <point x="1284" y="521"/>
      <point x="1320" y="521" type="curve" smooth="yes"/>
      <point x="1328" y="521" type="line"/>
      <point x="1328" y="571" type="line"/>
      <point x="951" y="571" type="line"/>
      <point x="951" y="521" type="line"/>
      <point x="960" y="521" type="line" smooth="yes"/>
      <point x="976" y="521"/>
      <point x="1002" y="519"/>
    </contour>
    <contour>
      <point x="1002" y="0" type="line"/>
      <point x="1124" y="0" type="line" smooth="yes"/>
      <point x="1196" y="0"/>
      <point x="1211" y="-17"/>
      <point x="1216" y="-53" type="curve" smooth="yes"/>
      <point x="1233" y="-169" type="line"/>
      <point x="1341" y="-169" type="line"/>
      <point x="1341" y="55" type="line"/>
      <point x="1002" y="55" type="line"/>
    </contour>
    <contour>
      <point x="244" y="0" type="line"/>
      <point x="1134" y="0" type="line"/>
      <point x="1134" y="55" type="line"/>
      <point x="244" y="55" type="line"/>
    </contour>
    <contour>
      <point x="506" y="521" type="line"/>
      <point x="515" y="521" type="line" smooth="yes"/>
      <point x="531" y="521"/>
      <point x="557" y="519"/>
      <point x="557" y="513" type="curve" smooth="yes"/>
      <point x="557" y="0" type="line"/>
      <point x="820" y="0" type="line"/>
      <point x="820" y="513" type="line" smooth="yes"/>
      <point x="820" y="519"/>
      <point x="846" y="521"/>
      <point x="862" y="521" type="curve" smooth="yes"/>
      <point x="871" y="521" type="line"/>
      <point x="871" y="571" type="line"/>
      <point x="506" y="571" type="line"/>
    </contour>
  </outline>
</glyph>
<glyph name="softcyr" format="2">
  <advance width="833"/>
  <unicode hex="044C"/>
  <outline>
    <contour>
      <point x="375" y="55" type="line"/>
      <point x="375" y="513" type="line" smooth="yes"/>
      <point x="375" y="519"/>
      <point x="401" y="521"/>
      <point x="417" y="521" type="curve" smooth="yes"/>
      <point x="426" y="521" type="line"/>
      <point x="426" y="571" type="line"/>
      <point x="49" y="571" type="line"/>
      <point x="49" y="521" type="line"/>
      <point x="57" y="521" type="line" smooth="yes"/>
      <point x="93" y="521"/>
      <point x="112" y="506"/>
      <point x="112" y="456" type="curve" smooth="yes"/>
      <point x="112" y="115" type="line" smooth="yes"/>
      <point x="112" y="65"/>
      <point x="93" y="50"/>
      <point x="57" y="50" type="curve" smooth="yes"/>
      <point x="49" y="50" type="line"/>
      <point x="49" y="0" type="line"/>
      <point x="530" y="0" type="line" smooth="yes"/>
      <point x="717" y="0"/>
      <point x="813" y="58"/>
      <point x="813" y="179" type="curve" smooth="yes"/>
      <point x="813" y="296"/>
      <point x="729" y="354"/>
      <point x="535" y="354" type="curve" smooth="yes"/>
      <point x="359" y="354" type="line"/>
      <point x="359" y="299" type="line"/>
      <point x="450" y="299" type="line" smooth="yes"/>
      <point x="517" y="299"/>
      <point x="545" y="264"/>
      <point x="545" y="179" type="curve" smooth="yes"/>
      <point x="545" y="95"/>
      <point x="518" y="55"/>
      <point x="445" y="55" type="curve" smooth="yes"/>
    </contour>
  </outline>
</glyph>
<glyph name="ereversedcyr" format="2">
  <advance width="770"/>
  <unicode hex="044D"/>
  <guideline x="889" y="493" angle="90" identifier="n4jm0tBg3Y"/>
  <outline>
    <contour>
      <point x="516" y="263" type="line"/>
      <point x="516" y="318" type="line"/>
      <point x="266" y="318" type="line"/>
      <point x="266" y="263" type="line"/>
    </contour>
    <contour>
      <point x="326" y="-12" type="curve" smooth="yes"/>
      <point x="583" y="-12"/>
      <point x="725" y="76"/>
      <point x="725" y="283" type="curve" smooth="yes"/>
      <point x="725" y="495"/>
      <point x="585" y="583"/>
      <point x="331" y="583" type="curve" smooth="yes"/>
      <point x="208" y="583"/>
      <point x="112" y="565"/>
      <point x="73" y="553" type="curve"/>
      <point x="73" y="373" type="line"/>
      <point x="223" y="373" type="line"/>
      <point x="223" y="560" type="line"/>
      <point x="204" y="550"/>
      <point x="177" y="509"/>
      <point x="174" y="485" type="curve"/>
      <point x="215" y="509"/>
      <point x="254" y="517"/>
      <point x="318" y="517" type="curve" smooth="yes"/>
      <point x="406" y="517"/>
      <point x="455" y="455"/>
      <point x="455" y="286" type="curve" smooth="yes"/>
      <point x="455" y="111"/>
      <point x="406" y="54"/>
      <point x="313" y="54" type="curve" smooth="yes"/>
      <point x="246" y="54"/>
      <point x="207" y="67"/>
      <point x="166" y="90" type="curve"/>
      <point x="169" y="66"/>
      <point x="194" y="11"/>
      <point x="215" y="1" type="curve"/>
      <point x="215" y="188" type="line"/>
      <point x="65" y="188" type="line"/>
      <point x="65" y="18" type="line"/>
      <point x="104" y="6"/>
      <point x="202" y="-12"/>
    </contour>
  </outline>
</glyph>
<glyph name="yacyr" format="2">
  <advance width="882"/>
  <unicode hex="044F"/>
  <outline>
    <contour>
      <point x="507" y="516" type="line"/>
      <point x="507" y="58" type="line" smooth="yes"/>
      <point x="507" y="52"/>
      <point x="481" y="50"/>
      <point x="465" y="50" type="curve" smooth="yes"/>
      <point x="456" y="50" type="line"/>
      <point x="456" y="0" type="line"/>
      <point x="833" y="0" type="line"/>
      <point x="833" y="50" type="line"/>
      <point x="825" y="50" type="line" smooth="yes"/>
      <point x="789" y="50"/>
      <point x="770" y="65"/>
      <point x="770" y="115" type="curve" smooth="yes"/>
      <point x="770" y="456" type="line" smooth="yes"/>
      <point x="770" y="506"/>
      <point x="789" y="521"/>
      <point x="825" y="521" type="curve" smooth="yes"/>
      <point x="833" y="521" type="line"/>
      <point x="833" y="571" type="line"/>
      <point x="352" y="571" type="line" smooth="yes"/>
      <point x="165" y="571"/>
      <point x="69" y="513"/>
      <point x="69" y="391" type="curve" smooth="yes"/>
      <point x="69" y="276"/>
      <point x="161" y="231"/>
      <point x="347" y="233" type="curve"/>
      <point x="358" y="226" type="line"/>
      <point x="623" y="226" type="line"/>
      <point x="623" y="281" type="line"/>
      <point x="432" y="281" type="line" smooth="yes"/>
      <point x="365" y="281"/>
      <point x="337" y="316"/>
      <point x="337" y="398" type="curve" smooth="yes"/>
      <point x="337" y="478"/>
      <point x="364" y="516"/>
      <point x="437" y="516" type="curve" smooth="yes"/>
    </contour>
    <contour>
      <point x="221" y="285" type="line"/>
      <point x="97" y="93" type="line" smooth="yes"/>
      <point x="73" y="55"/>
      <point x="67" y="50"/>
      <point x="45" y="50" type="curve" smooth="yes"/>
      <point x="35" y="50" type="line"/>
      <point x="35" y="0" type="line"/>
      <point x="325" y="0" type="line"/>
      <point x="462" y="236" type="line"/>
    </contour>
  </outline>
</glyph>
<glyph name="djecyr" format="2">
  <advance width="932"/>
  <unicode hex="0452"/>
  <outline>
    <contour>
      <point x="102" y="780" type="line"/>
      <point x="102" y="115" type="line" smooth="yes"/>
      <point x="102" y="65"/>
      <point x="83" y="50"/>
      <point x="47" y="50" type="curve" smooth="yes"/>
      <point x="39" y="50" type="line"/>
      <point x="39" y="0" type="line"/>
      <point x="416" y="0" type="line"/>
      <point x="416" y="50" type="line"/>
      <point x="407" y="50" type="line" smooth="yes"/>
      <point x="391" y="50"/>
      <point x="365" y="52"/>
      <point x="365" y="58" type="curve"/>
      <point x="365" y="780" type="line"/>
    </contour>
    <contour>
      <point x="524" y="697" type="line"/>
      <point x="19" y="697" type="line"/>
      <point x="19" y="637" type="line"/>
      <point x="524" y="637" type="line"/>
    </contour>
    <contour>
      <point x="562" y="-27" type="line" smooth="yes"/>
      <point x="562" y="-139"/>
      <point x="517" y="-164"/>
      <point x="445" y="-164" type="curve" smooth="yes"/>
      <point x="405" y="-164"/>
      <point x="364" y="-160"/>
      <point x="345" y="-156" type="curve"/>
      <point x="345" y="-234" type="line"/>
      <point x="364" y="-240"/>
      <point x="425" y="-250"/>
      <point x="505" y="-250" type="curve" smooth="yes"/>
      <point x="706" y="-250"/>
      <point x="825" y="-187"/>
      <point x="825" y="25" type="curve" smooth="yes"/>
      <point x="825" y="389" type="line" smooth="yes"/>
      <point x="825" y="525"/>
      <point x="758" y="585"/>
      <point x="617" y="585" type="curve" smooth="yes"/>
      <point x="490" y="585"/>
      <point x="391" y="515"/>
      <point x="334" y="431" type="curve"/>
      <point x="326" y="361" type="line"/>
      <point x="396" y="449"/>
      <point x="443" y="479"/>
      <point x="494" y="479" type="curve" smooth="yes"/>
      <point x="537" y="479"/>
      <point x="562" y="461"/>
      <point x="562" y="402" type="curve" smooth="yes"/>
    </contour>
  </outline>
</glyph>
<glyph name="eukrcyr" format="2">
  <advance width="766"/>
  <unicode hex="0454"/>
  <guideline x="180" y="548" angle="90" identifier="n4jm0tBg3Y"/>
  <outline>
    <contour>
      <point x="255" y="263" type="line"/>
      <point x="505" y="263" type="line"/>
      <point x="505" y="318" type="line"/>
      <point x="255" y="318" type="line"/>
    </contour>
    <contour>
      <point x="479" y="72" type="curve" smooth="yes"/>
      <point x="366" y="72"/>
      <point x="316" y="99"/>
      <point x="316" y="286" type="curve" smooth="yes"/>
      <point x="316" y="463"/>
      <point x="367" y="517"/>
      <point x="470" y="517" type="curve" smooth="yes"/>
      <point x="525" y="517"/>
      <point x="564" y="506"/>
      <point x="605" y="483" type="curve"/>
      <point x="587" y="517"/>
      <point x="579" y="547"/>
      <point x="556" y="559" type="curve"/>
      <point x="556" y="373" type="line"/>
      <point x="706" y="373" type="line"/>
      <point x="706" y="553" type="line"/>
      <point x="667" y="565"/>
      <point x="569" y="583"/>
      <point x="445" y="583" type="curve" smooth="yes"/>
      <point x="188" y="583"/>
      <point x="46" y="495"/>
      <point x="46" y="283" type="curve" smooth="yes"/>
      <point x="46" y="68"/>
      <point x="194" y="-12"/>
      <point x="417" y="-12" type="curve" smooth="yes"/>
      <point x="571" y="-12"/>
      <point x="682" y="41"/>
      <point x="731" y="128" type="curve"/>
      <point x="668" y="169" type="line"/>
      <point x="629" y="113"/>
      <point x="574" y="72"/>
    </contour>
  </outline>
</glyph>
<glyph name="yukrcyr" format="2">
  <advance width="473"/>
  <unicode hex="0457"/>
  <outline>
    <contour>
      <point x="119" y="625" type="curve" smooth="yes"/>
      <point x="184" y="625"/>
      <point x="220" y="657"/>
      <point x="220" y="726" type="curve" smooth="yes"/>
      <point x="220" y="795"/>
      <point x="184" y="828"/>
      <point x="119" y="828" type="curve" smooth="yes"/>
      <point x="54" y="828"/>
      <point x="17" y="795"/>
      <point x="17" y="726" type="curve" smooth="yes"/>
      <point x="17" y="656"/>
      <point x="54" y="625"/>
    </contour>
    <contour>
      <point x="355" y="625" type="curve" smooth="yes"/>
      <point x="419" y="625"/>
      <point x="456" y="657"/>
      <point x="456" y="726" type="curve" smooth="yes"/>
      <point x="456" y="795"/>
      <point x="419" y="828"/>
      <point x="355" y="828" type="curve" smooth="yes"/>
      <point x="291" y="828"/>
      <point x="253" y="795"/>
      <point x="253" y="726" type="curve" smooth="yes"/>
      <point x="253" y="656"/>
      <point x="291" y="625"/>
    </contour>
    <component base="dotlessi"/>
  </outline>
</glyph>
<glyph name="njecyr" format="2">
  <advance width="1268"/>
  <unicode hex="045A"/>
  <outline>
    <contour>
      <point x="112" y="115" type="line" smooth="yes"/>
      <point x="112" y="65"/>
      <point x="93" y="50"/>
      <point x="57" y="50" type="curve" smooth="yes"/>
      <point x="49" y="50" type="line"/>
      <point x="49" y="0" type="line"/>
      <point x="426" y="0" type="line"/>
      <point x="426" y="50" type="line"/>
      <point x="417" y="50" type="line" smooth="yes"/>
      <point x="401" y="50"/>
      <point x="375" y="52"/>
      <point x="375" y="58" type="curve" smooth="yes"/>
      <point x="375" y="513" type="line" smooth="yes"/>
      <point x="375" y="519"/>
      <point x="401" y="521"/>
      <point x="417" y="521" type="curve" smooth="yes"/>
      <point x="426" y="521" type="line"/>
      <point x="426" y="571" type="line"/>
      <point x="49" y="571" type="line"/>
      <point x="49" y="521" type="line"/>
      <point x="57" y="521" type="line" smooth="yes"/>
      <point x="93" y="521"/>
      <point x="112" y="506"/>
      <point x="112" y="456" type="curve" smooth="yes"/>
    </contour>
    <contour>
      <point x="319" y="280" type="line"/>
      <point x="611" y="280" type="line"/>
      <point x="611" y="335" type="line"/>
      <point x="319" y="335" type="line"/>
    </contour>
    <contour>
      <point x="810" y="456" type="line" smooth="yes"/>
      <point x="810" y="506"/>
      <point x="829" y="521"/>
      <point x="865" y="521" type="curve" smooth="yes"/>
      <point x="873" y="521" type="line"/>
      <point x="873" y="571" type="line"/>
      <point x="496" y="571" type="line"/>
      <point x="496" y="521" type="line"/>
      <point x="505" y="521" type="line" smooth="yes"/>
      <point x="521" y="521"/>
      <point x="547" y="519"/>
      <point x="547" y="513" type="curve" smooth="yes"/>
      <point x="547" y="58" type="line" smooth="yes"/>
      <point x="547" y="52"/>
      <point x="521" y="50"/>
      <point x="505" y="50" type="curve" smooth="yes"/>
      <point x="496" y="50" type="line"/>
      <point x="496" y="0" type="line"/>
      <point x="965" y="0" type="line" smooth="yes"/>
      <point x="1152" y="0"/>
      <point x="1248" y="52"/>
      <point x="1248" y="169" type="curve" smooth="yes"/>
      <point x="1248" y="287"/>
      <point x="1164" y="335"/>
      <point x="970" y="335" type="curve" smooth="yes"/>
      <point x="734" y="335" type="line"/>
      <point x="734" y="280" type="line"/>
      <point x="885" y="280" type="line" smooth="yes"/>
      <point x="952" y="280"/>
      <point x="980" y="248"/>
      <point x="980" y="169" type="curve" smooth="yes"/>
      <point x="980" y="92"/>
      <point x="953" y="55"/>
      <point x="880" y="55" type="curve" smooth="yes"/>
      <point x="810" y="55" type="line"/>
    </contour>
  </outline>
</glyph>
<glyph name="Geupcyr" format="2">
  <advance width="811"/>
  <unicode hex="0490"/>
  <outline>
    <contour>
      <point x="400" y="651" type="line"/>
      <point x="766" y="651" type="line"/>
      <point x="766" y="899" type="line"/>
      <point x="658" y="899" type="line"/>
      <point x="633" y="789" type="line" smooth="yes"/>
      <point x="619" y="728"/>
      <point x="598" y="710"/>
      <point x="536" y="710" type="curve" smooth="yes"/>
      <point x="46" y="710" type="line"/>
      <point x="46" y="645" type="line"/>
      <point x="71" y="645" type="line" smooth="yes"/>
      <point x="101" y="645"/>
      <point x="121" y="635"/>
      <point x="121" y="615" type="curve" smooth="yes"/>
      <point x="121" y="95" type="line" smooth="yes"/>
      <point x="121" y="75"/>
      <point x="101" y="65"/>
      <point x="71" y="65" type="curve" smooth="yes"/>
      <point x="46" y="65" type="line"/>
      <point x="46" y="0" type="line"/>
      <point x="513" y="0" type="line"/>
      <point x="513" y="65" type="line"/>
      <point x="450" y="65" type="line" smooth="yes"/>
      <point x="420" y="65"/>
      <point x="400" y="74"/>
      <point x="400" y="94" type="curve" smooth="yes"/>
    </contour>
  </outline>
</glyph>
<glyph name="Gestrokecyr" format="2">
  <advance width="825"/>
  <unicode hex="0492"/>
  <outline>
    <contour>
      <point x="36" y="395" type="line"/>
      <point x="36" y="337" type="line"/>
      <point x="553" y="337" type="line"/>
      <point x="553" y="395" type="line"/>
    </contour>
    <contour>
      <point x="400" y="652" type="line"/>
      <point x="534" y="652" type="line" smooth="yes"/>
      <point x="605" y="652"/>
      <point x="657" y="643"/>
      <point x="662" y="594" type="curve" smooth="yes"/>
      <point x="682" y="398" type="line"/>
      <point x="780" y="398" type="line"/>
      <point x="780" y="710" type="line"/>
      <point x="46" y="710" type="line"/>
      <point x="46" y="645" type="line"/>
      <point x="71" y="645" type="line" smooth="yes"/>
      <point x="101" y="645"/>
      <point x="121" y="635"/>
      <point x="121" y="615" type="curve" smooth="yes"/>
      <point x="121" y="95" type="line" smooth="yes"/>
      <point x="121" y="75"/>
      <point x="101" y="65"/>
      <point x="71" y="65" type="curve" smooth="yes"/>
      <point x="46" y="65" type="line"/>
      <point x="46" y="0" type="line"/>
      <point x="513" y="0" type="line"/>
      <point x="513" y="65" type="line"/>
      <point x="450" y="65" type="line" smooth="yes"/>
      <point x="420" y="65"/>
      <point x="400" y="74"/>
      <point x="400" y="94" type="curve" smooth="yes"/>
    </contour>
  </outline>
</glyph>
<glyph name="gestrokecyr" format="2">
  <advance width="723"/>
  <unicode hex="0493"/>
  <outline>
    <contour>
      <point x="40" y="253" type="line"/>
      <point x="510" y="253" type="line"/>
      <point x="510" y="308" type="line"/>
      <point x="40" y="308" type="line"/>
    </contour>
    <contour>
      <point x="112" y="115" type="line" smooth="yes"/>
      <point x="112" y="65"/>
      <point x="93" y="50"/>
      <point x="57" y="50" type="curve" smooth="yes"/>
      <point x="49" y="50" type="line"/>
      <point x="49" y="0" type="line"/>
      <point x="466" y="0" type="line"/>
      <point x="466" y="50" type="line"/>
      <point x="443" y="50" type="line" smooth="yes"/>
      <point x="401" y="50"/>
      <point x="375" y="65"/>
      <point x="375" y="117" type="curve" smooth="yes"/>
      <point x="375" y="571" type="line"/>
      <point x="49" y="571" type="line"/>
      <point x="49" y="521" type="line"/>
      <point x="57" y="521" type="line" smooth="yes"/>
      <point x="93" y="521"/>
      <point x="112" y="506"/>
      <point x="112" y="456" type="curve" smooth="yes"/>
    </contour>
    <contour>
      <point x="331" y="516" type="line"/>
      <point x="514" y="516" type="line" smooth="yes"/>
      <point x="577" y="516"/>
      <point x="591" y="495"/>
      <point x="595" y="459" type="curve" smooth="yes"/>
      <point x="610" y="315" type="line"/>
      <point x="698" y="315" type="line"/>
      <point x="698" y="571" type="line"/>
      <point x="331" y="571" type="line"/>
    </contour>
  </outline>
</glyph>
<glyph name="zhetailcyr" format="2">
  <advance width="1286"/>
  <unicode hex="0497"/>
  <guideline x="241" y="553" angle="90" identifier="iJ3VaKODEI"/>
  <outline>
    <contour>
      <point x="1191" y="0" type="line"/>
      <point x="1191" y="55" type="line"/>
      <point x="969" y="413" type="line"/>
      <point x="831" y="267" type="line"/>
      <point x="1058" y="473" type="line" smooth="yes"/>
      <point x="1101" y="512"/>
      <point x="1135" y="521"/>
      <point x="1188" y="521" type="curve" smooth="yes"/>
      <point x="1213" y="521" type="line"/>
      <point x="1213" y="571" type="line"/>
      <point x="903" y="571" type="line"/>
      <point x="903" y="521" type="line"/>
      <point x="923" y="521" type="line" smooth="yes"/>
      <point x="973" y="521"/>
      <point x="1021" y="516"/>
      <point x="1021" y="507" type="curve"/>
      <point x="789" y="296" type="line"/>
      <point x="789" y="276" type="line"/>
      <point x="923" y="60" type="line"/>
      <point x="923" y="52"/>
      <point x="885" y="50"/>
      <point x="863" y="50" type="curve"/>
      <point x="856" y="50" type="line"/>
      <point x="856" y="0" type="line"/>
    </contour>
    <contour>
      <point x="27" y="0" type="line"/>
      <point x="397" y="0" type="line"/>
      <point x="397" y="50" type="line"/>
      <point x="390" y="50" type="line"/>
      <point x="368" y="50"/>
      <point x="330" y="52"/>
      <point x="330" y="60" type="curve"/>
      <point x="464" y="276" type="line"/>
      <point x="464" y="296" type="line"/>
      <point x="232" y="507" type="line"/>
      <point x="232" y="516"/>
      <point x="280" y="521"/>
      <point x="330" y="521" type="curve" smooth="yes"/>
      <point x="350" y="521" type="line"/>
      <point x="350" y="571" type="line"/>
      <point x="38" y="571" type="line"/>
      <point x="38" y="521" type="line"/>
      <point x="63" y="521" type="line" smooth="yes"/>
      <point x="116" y="521"/>
      <point x="149" y="512"/>
      <point x="192" y="473" type="curve" smooth="yes"/>
      <point x="419" y="267" type="line"/>
      <point x="294" y="413" type="line"/>
      <point x="87" y="80" type="line" smooth="yes"/>
      <point x="74" y="59"/>
      <point x="59" y="50"/>
      <point x="38" y="50" type="curve" smooth="yes"/>
      <point x="27" y="50" type="line"/>
    </contour>
    <contour>
      <point x="957" y="0" type="line"/>
      <point x="1059" y="0" type="line" smooth="yes"/>
      <point x="1131" y="0"/>
      <point x="1146" y="-17"/>
      <point x="1151" y="-53" type="curve" smooth="yes"/>
      <point x="1168" y="-169" type="line"/>
      <point x="1276" y="-169" type="line"/>
      <point x="1276" y="55" type="line"/>
      <point x="957" y="55" type="line"/>
    </contour>
    <contour>
      <point x="444" y="521" type="line"/>
      <point x="453" y="521" type="line" smooth="yes"/>
      <point x="469" y="521"/>
      <point x="495" y="519"/>
      <point x="495" y="513" type="curve" smooth="yes"/>
      <point x="495" y="58" type="line" smooth="yes"/>
      <point x="495" y="52"/>
      <point x="469" y="50"/>
      <point x="453" y="50" type="curve" smooth="yes"/>
      <point x="444" y="50" type="line"/>
      <point x="444" y="0" type="line"/>
      <point x="809" y="0" type="line"/>
      <point x="809" y="50" type="line"/>
      <point x="800" y="50" type="line" smooth="yes"/>
      <point x="784" y="50"/>
      <point x="758" y="52"/>
      <point x="758" y="58" type="curve" smooth="yes"/>
      <point x="758" y="513" type="line" smooth="yes"/>
      <point x="758" y="519"/>
      <point x="784" y="521"/>
      <point x="800" y="521" type="curve" smooth="yes"/>
      <point x="809" y="521" type="line"/>
      <point x="809" y="571" type="line"/>
      <point x="444" y="571" type="line"/>
    </contour>
  </outline>
</glyph>
<glyph name="Katailcyr" format="2">
  <advance width="1071"/>
  <unicode hex="049A"/>
  <outline>
    <contour>
      <point x="46" y="0" type="line"/>
      <point x="457" y="0" type="line"/>
      <point x="457" y="65" type="line"/>
      <point x="450" y="65" type="line" smooth="yes"/>
      <point x="420" y="65"/>
      <point x="400" y="68"/>
      <point x="400" y="78" type="curve" smooth="yes"/>
      <point x="400" y="632" type="line" smooth="yes"/>
      <point x="400" y="642"/>
      <point x="420" y="645"/>
      <point x="450" y="645" type="curve" smooth="yes"/>
      <point x="457" y="645" type="line"/>
      <point x="457" y="710" type="line"/>
      <point x="46" y="710" type="line"/>
      <point x="46" y="645" type="line"/>
      <point x="71" y="645" type="line" smooth="yes"/>
      <point x="101" y="645"/>
      <point x="121" y="635"/>
      <point x="121" y="615" type="curve" smooth="yes"/>
      <point x="121" y="95" type="line" smooth="yes"/>
      <point x="121" y="75"/>
      <point x="101" y="65"/>
      <point x="71" y="65" type="curve" smooth="yes"/>
      <point x="46" y="65" type="line"/>
    </contour>
    <contour>
      <point x="560" y="0" type="line"/>
      <point x="980" y="0" type="line"/>
      <point x="980" y="59" type="line"/>
      <point x="625" y="494" type="line"/>
      <point x="516" y="369" type="line"/>
      <point x="826" y="625" type="line" smooth="yes"/>
      <point x="847" y="643"/>
      <point x="880" y="646"/>
      <point x="934" y="646" type="curve" smooth="yes"/>
      <point x="968" y="646" type="line"/>
      <point x="968" y="710" type="line"/>
      <point x="620" y="710" type="line"/>
      <point x="620" y="646" type="line"/>
      <point x="671" y="646" type="line" smooth="yes"/>
      <point x="707" y="646"/>
      <point x="748" y="641"/>
      <point x="748" y="635" type="curve"/>
      <point x="430" y="372" type="line"/>
      <point x="430" y="342" type="line"/>
      <point x="642" y="73" type="line"/>
      <point x="642" y="68"/>
      <point x="602" y="65"/>
      <point x="568" y="65" type="curve" smooth="yes"/>
      <point x="560" y="65" type="line"/>
    </contour>
    <contour>
      <point x="831" y="0" type="line" smooth="yes"/>
      <point x="893" y="0"/>
      <point x="914" y="-18"/>
      <point x="928" y="-79" type="curve" smooth="yes"/>
      <point x="953" y="-189" type="line"/>
      <point x="1061" y="-189" type="line"/>
      <point x="1061" y="59" type="line"/>
      <point x="726" y="59" type="line"/>
      <point x="726" y="0" type="line"/>
    </contour>
  </outline>
</glyph>
<glyph name="Kaverticalstrokecyr" format="2">
  <advance width="1191"/>
  <unicode hex="049C"/>
  <outline>
    <contour>
      <point x="510" y="169" type="line"/>
      <point x="569" y="169" type="line"/>
      <point x="569" y="542" type="line"/>
      <point x="510" y="542" type="line"/>
    </contour>
    <contour>
      <point x="46" y="0" type="line"/>
      <point x="457" y="0" type="line"/>
      <point x="457" y="65" type="line"/>
      <point x="450" y="65" type="line" smooth="yes"/>
      <point x="420" y="65"/>
      <point x="400" y="68"/>
      <point x="400" y="78" type="curve" smooth="yes"/>
      <point x="400" y="632" type="line" smooth="yes"/>
      <point x="400" y="642"/>
      <point x="420" y="645"/>
      <point x="450" y="645" type="curve" smooth="yes"/>
      <point x="457" y="645" type="line"/>
      <point x="457" y="710" type="line"/>
      <point x="46" y="710" type="line"/>
      <point x="46" y="645" type="line"/>
      <point x="71" y="645" type="line" smooth="yes"/>
      <point x="101" y="645"/>
      <point x="121" y="635"/>
      <point x="121" y="615" type="curve" smooth="yes"/>
      <point x="121" y="135" type="line" smooth="yes"/>
      <point x="121" y="83"/>
      <point x="101" y="65"/>
      <point x="71" y="65" type="curve" smooth="yes"/>
      <point x="46" y="65" type="line"/>
    </contour>
    <contour>
      <point x="706" y="0" type="line"/>
      <point x="1161" y="0" type="line"/>
      <point x="1161" y="65" type="line"/>
      <point x="1147" y="65" type="line" smooth="yes"/>
      <point x="1114.5428571429" y="65"/>
      <point x="1090" y="71"/>
      <point x="1076" y="92" type="curve" smooth="yes"/>
      <point x="814" y="496" type="line"/>
      <point x="697" y="373" type="line"/>
      <point x="962" y="619" type="line" smooth="yes"/>
      <point x="987" y="642"/>
      <point x="1027" y="646"/>
      <point x="1081" y="646" type="curve" smooth="yes"/>
      <point x="1115" y="646" type="line"/>
      <point x="1115" y="710" type="line"/>
      <point x="767" y="710" type="line"/>
      <point x="767" y="646" type="line"/>
      <point x="818" y="646" type="line" smooth="yes"/>
      <point x="854" y="646"/>
      <point x="895" y="641"/>
      <point x="895" y="635" type="curve"/>
      <point x="617" y="372" type="line"/>
      <point x="617" y="342" type="line"/>
      <point x="784" y="73" type="line"/>
      <point x="784" y="68"/>
      <point x="746" y="65"/>
      <point x="714" y="65" type="curve" smooth="yes"/>
      <point x="706" y="65" type="line"/>
    </contour>
  </outline>
</glyph>
<glyph name="kabashkcyr" format="2">
  <advance width="1085"/>
  <unicode hex="04A1"/>
  <guideline x="241" y="553" angle="90" identifier="lmgRx0QBdK"/>
  <outline>
    <contour>
      <point x="272" y="115" type="line" smooth="yes"/>
      <point x="272" y="65"/>
      <point x="253" y="50"/>
      <point x="217" y="50" type="curve"/>
      <point x="209" y="50" type="line"/>
      <point x="209" y="0" type="line"/>
      <point x="586" y="0" type="line"/>
      <point x="586" y="50" type="line"/>
      <point x="577" y="50" type="line" smooth="yes"/>
      <point x="561" y="50"/>
      <point x="535" y="52"/>
      <point x="535" y="58" type="curve" smooth="yes"/>
      <point x="535" y="513" type="line" smooth="yes"/>
      <point x="535" y="519"/>
      <point x="561" y="521"/>
      <point x="577" y="521" type="curve" smooth="yes"/>
      <point x="586" y="521" type="line"/>
      <point x="586" y="571" type="line"/>
      <point x="272" y="571" type="line"/>
    </contour>
    <contour>
      <point x="1058" y="0" type="line"/>
      <point x="1058" y="50" type="line"/>
      <point x="1042" y="50" type="line" smooth="yes"/>
      <point x="1025" y="50"/>
      <point x="1011" y="58"/>
      <point x="995" y="80" type="curve" smooth="yes"/>
      <point x="745" y="413" type="line"/>
      <point x="610" y="267" type="line"/>
      <point x="867" y="473" type="line" smooth="yes"/>
      <point x="913" y="510"/>
      <point x="942" y="521"/>
      <point x="995" y="521" type="curve"/>
      <point x="1020" y="521" type="line"/>
      <point x="1020" y="571" type="line"/>
      <point x="710" y="571" type="line"/>
      <point x="710" y="521" type="line"/>
      <point x="730" y="521" type="line"/>
      <point x="780" y="521"/>
      <point x="828" y="516"/>
      <point x="828" y="507" type="curve"/>
      <point x="566" y="296" type="line"/>
      <point x="566" y="276" type="line"/>
      <point x="728" y="60" type="line"/>
      <point x="728" y="52"/>
      <point x="687" y="50"/>
      <point x="670" y="50" type="curve"/>
      <point x="663" y="50" type="line"/>
      <point x="663" y="0" type="line"/>
    </contour>
    <contour>
      <point x="414" y="516" type="line"/>
      <point x="414" y="571" type="line"/>
      <point x="25" y="571" type="line"/>
      <point x="25" y="295" type="line"/>
      <point x="113" y="295" type="line"/>
      <point x="128" y="459" type="line" smooth="yes"/>
      <point x="131" y="495"/>
      <point x="146" y="516"/>
      <point x="209" y="516" type="curve" smooth="yes"/>
    </contour>
  </outline>
</glyph>
<glyph name="Tetailcyr" format="2">
  <advance width="962"/>
  <unicode hex="04AC"/>
  <outline>
    <contour>
      <point x="341" y="95" type="line" smooth="yes"/>
      <point x="341" y="75"/>
      <point x="321" y="65"/>
      <point x="291" y="65" type="curve" smooth="yes"/>
      <point x="250" y="65" type="line"/>
      <point x="250" y="0" type="line"/>
      <point x="620" y="0" type="line"/>
      <point x="620" y="647" type="line"/>
      <point x="677" y="647" type="line" smooth="yes"/>
      <point x="775" y="647"/>
      <point x="794" y="630"/>
      <point x="799" y="594" type="curve" smooth="yes"/>
      <point x="819" y="398" type="line"/>
      <point x="917" y="398" type="line"/>
      <point x="917" y="710" type="line"/>
      <point x="45" y="710" type="line"/>
      <point x="45" y="398" type="line"/>
      <point x="143" y="398" type="line"/>
      <point x="163" y="594" type="line" smooth="yes"/>
      <point x="167" y="630"/>
      <point x="187" y="647"/>
      <point x="284" y="647" type="curve" smooth="yes"/>
      <point x="341" y="647" type="line"/>
    </contour>
    <contour>
      <point x="486" y="0" type="line" smooth="yes"/>
      <point x="548" y="0"/>
      <point x="569" y="-18"/>
      <point x="583" y="-79" type="curve" smooth="yes"/>
      <point x="608" y="-189" type="line"/>
      <point x="716" y="-189" type="line"/>
      <point x="716" y="59" type="line"/>
      <point x="441" y="59" type="line"/>
      <point x="441" y="0" type="line"/>
    </contour>
  </outline>
</glyph>
<glyph name="tetailcyr" format="2">
  <advance width="803"/>
  <unicode hex="04AD"/>
  <outline>
    <contour>
      <point x="197" y="0" type="line"/>
      <point x="533" y="0" type="line"/>
      <point x="533" y="571" type="line"/>
      <point x="270" y="571" type="line"/>
      <point x="270" y="115" type="line" smooth="yes"/>
      <point x="270" y="65"/>
      <point x="251" y="50"/>
      <point x="215" y="50" type="curve" smooth="yes"/>
      <point x="197" y="50" type="line"/>
    </contour>
    <contour>
      <point x="620" y="-169" type="line"/>
      <point x="620" y="55" type="line"/>
      <point x="363" y="55" type="line"/>
      <point x="363" y="0" type="line"/>
      <point x="403" y="0" type="line" smooth="yes"/>
      <point x="475" y="0"/>
      <point x="490" y="-17"/>
      <point x="495" y="-53" type="curve" smooth="yes"/>
      <point x="512" y="-169" type="line"/>
    </contour>
    <contour>
      <point x="675" y="459" type="curve" smooth="yes"/>
      <point x="690" y="295" type="line"/>
      <point x="778" y="295" type="line"/>
      <point x="778" y="571" type="line"/>
      <point x="25" y="571" type="line"/>
      <point x="25" y="295" type="line"/>
      <point x="113" y="295" type="line"/>
      <point x="128" y="459" type="line" smooth="yes"/>
      <point x="131" y="495"/>
      <point x="146" y="516"/>
      <point x="209" y="516" type="curve" smooth="yes"/>
      <point x="594" y="516" type="line" smooth="yes"/>
      <point x="657" y="516"/>
      <point x="672" y="495"/>
    </contour>
  </outline>
</glyph>
<glyph name="ustraightcyr" format="2">
  <advance width="859"/>
  <unicode hex="04AF"/>
  <outline>
    <contour>
      <point x="556" y="0" type="line"/>
      <point x="724" y="453" type="line" smooth="yes"/>
      <point x="743" y="504"/>
      <point x="759" y="522"/>
      <point x="814" y="522" type="curve" smooth="yes"/>
      <point x="825" y="522" type="line"/>
      <point x="825" y="572" type="line"/>
      <point x="573" y="572" type="line"/>
      <point x="573" y="525" type="line"/>
      <point x="609" y="525" type="line" smooth="yes"/>
      <point x="652" y="525"/>
      <point x="676" y="521"/>
      <point x="676" y="512" type="curve"/>
      <point x="512" y="62" type="line"/>
      <point x="533" y="63" type="line"/>
      <point x="371" y="503" type="line"/>
      <point x="371" y="517"/>
      <point x="396" y="525"/>
      <point x="439" y="525" type="curve" smooth="yes"/>
      <point x="449" y="525" type="line"/>
      <point x="449" y="572" type="line"/>
      <point x="35" y="572" type="line"/>
      <point x="35" y="522" type="line"/>
      <point x="45" y="522" type="line" smooth="yes"/>
      <point x="89" y="522"/>
      <point x="110" y="506"/>
      <point x="128" y="456" type="curve" smooth="yes"/>
      <point x="293" y="0" type="line"/>
    </contour>
    <contour>
      <point x="293" y="0" type="line"/>
      <point x="293" y="-108" type="line" smooth="yes"/>
      <point x="293" y="-158"/>
      <point x="274" y="-173"/>
      <point x="238" y="-173" type="curve" smooth="yes"/>
      <point x="230" y="-173" type="line"/>
      <point x="230" y="-223" type="line"/>
      <point x="619" y="-223" type="line"/>
      <point x="619" y="-173" type="line"/>
      <point x="611" y="-173" type="line" smooth="yes"/>
      <point x="575" y="-173"/>
      <point x="556" y="-158"/>
      <point x="556" y="-108" type="curve" smooth="yes"/>
      <point x="556" y="0" type="line"/>
    </contour>
  </outline>
</glyph>
<glyph name="Ustraightstrokecyr" format="2">
  <advance width="914"/>
  <unicode hex="04B0"/>
  <outline>
    <contour>
      <point x="145" y="270" type="line"/>
      <point x="145" y="211" type="line"/>
      <point x="784" y="211" type="line"/>
      <point x="784" y="270" type="line"/>
    </contour>
    <contour>
      <point x="325" y="299" type="line"/>
      <point x="325" y="95" type="line" smooth="yes"/>
      <point x="325" y="75"/>
      <point x="305" y="65"/>
      <point x="275" y="65" type="curve" smooth="yes"/>
      <point x="234" y="65" type="line"/>
      <point x="234" y="0" type="line"/>
      <point x="694" y="0" type="line"/>
      <point x="694" y="65" type="line"/>
      <point x="654" y="65" type="line" smooth="yes"/>
      <point x="624" y="65"/>
      <point x="604" y="75"/>
      <point x="604" y="95" type="curve" smooth="yes"/>
      <point x="604" y="302" type="line"/>
      <point x="573" y="220" type="line"/>
      <point x="812" y="605" type="line" smooth="yes"/>
      <point x="832" y="637"/>
      <point x="849" y="645"/>
      <point x="877" y="645" type="curve" smooth="yes"/>
      <point x="885" y="645" type="line"/>
      <point x="885" y="710" type="line"/>
      <point x="637" y="710" type="line"/>
      <point x="637" y="645" type="line"/>
      <point x="658" y="645" type="line" smooth="yes"/>
      <point x="710" y="645"/>
      <point x="753" y="641"/>
      <point x="753" y="633" type="curve"/>
      <point x="536" y="281" type="line"/>
      <point x="582" y="294" type="line"/>
      <point x="388" y="633" type="line"/>
      <point x="388" y="640"/>
      <point x="406" y="645"/>
      <point x="449" y="645" type="curve" smooth="yes"/>
      <point x="467" y="645" type="line"/>
      <point x="467" y="710" type="line"/>
      <point x="30" y="710" type="line"/>
      <point x="30" y="645" type="line"/>
      <point x="37" y="645" type="line" smooth="yes"/>
      <point x="73" y="645"/>
      <point x="86" y="633"/>
      <point x="119" y="583" type="curve" smooth="yes"/>
      <point x="338" y="250" type="line"/>
    </contour>
  </outline>
</glyph>
<glyph name="Chetailcyr" format="2">
  <advance width="1008"/>
  <unicode hex="04B6"/>
  <guideline x="1123" y="741" angle="90" identifier="nfCxFSb4p1"/>
  <outline>
    <contour>
      <point x="404" y="285" type="curve" smooth="yes"/>
      <point x="507" y="285"/>
      <point x="592" y="298"/>
      <point x="639" y="310" type="curve"/>
      <point x="639" y="357" type="line"/>
      <point x="602" y="347"/>
      <point x="564" y="342"/>
      <point x="523" y="342" type="curve" smooth="yes"/>
      <point x="422" y="342"/>
      <point x="389" y="372"/>
      <point x="389" y="460" type="curve" smooth="yes"/>
      <point x="389" y="632" type="line" smooth="yes"/>
      <point x="389" y="642"/>
      <point x="409" y="645"/>
      <point x="439" y="645" type="curve" smooth="yes"/>
      <point x="456" y="645" type="line"/>
      <point x="456" y="710" type="line"/>
      <point x="35" y="710" type="line"/>
      <point x="35" y="645" type="line"/>
      <point x="60" y="645" type="line" smooth="yes"/>
      <point x="90" y="645"/>
      <point x="110" y="635"/>
      <point x="110" y="615" type="curve" smooth="yes"/>
      <point x="110" y="460" type="line" smooth="yes"/>
      <point x="110" y="335"/>
      <point x="222" y="285"/>
    </contour>
    <contour>
      <point x="512" y="0" type="line"/>
      <point x="887" y="0" type="line"/>
      <point x="887" y="615" type="line" smooth="yes"/>
      <point x="887" y="635"/>
      <point x="907" y="645"/>
      <point x="937" y="645" type="curve" smooth="yes"/>
      <point x="963" y="645" type="line"/>
      <point x="963" y="710" type="line"/>
      <point x="542" y="710" type="line"/>
      <point x="542" y="645" type="line"/>
      <point x="558" y="645" type="line" smooth="yes"/>
      <point x="588" y="645"/>
      <point x="608" y="642"/>
      <point x="608" y="632" type="curve" smooth="yes"/>
      <point x="608" y="78" type="line" smooth="yes"/>
      <point x="608" y="68"/>
      <point x="588" y="65"/>
      <point x="558" y="65" type="curve" smooth="yes"/>
      <point x="512" y="65" type="line"/>
    </contour>
    <contour>
      <point x="753" y="0" type="line" smooth="yes"/>
      <point x="815" y="0"/>
      <point x="836" y="-18"/>
      <point x="850" y="-79" type="curve" smooth="yes"/>
      <point x="875" y="-189" type="line"/>
      <point x="983" y="-189" type="line"/>
      <point x="983" y="59" type="line"/>
      <point x="608" y="59" type="line"/>
      <point x="608" y="0" type="line"/>
    </contour>
  </outline>
</glyph>
<glyph name="obarcyr" format="2">
  <advance width="853"/>
  <unicode hex="04E9"/>
  <outline>
    <contour>
      <point x="808" y="284" type="curve" smooth="yes"/>
      <point x="808" y="484"/>
      <point x="681" y="584"/>
      <point x="426" y="584" type="curve" smooth="yes"/>
      <point x="171" y="584"/>
      <point x="45" y="484"/>
      <point x="45" y="284" type="curve" smooth="yes"/>
      <point x="45" y="85"/>
      <point x="171" y="-15"/>
      <point x="426" y="-15" type="curve" smooth="yes"/>
      <point x="681" y="-15"/>
      <point x="807" y="85"/>
    </contour>
    <contour>
      <point x="305" y="284" type="curve" smooth="yes"/>
      <point x="305" y="456"/>
      <point x="356.2342342342" y="508"/>
      <point x="426" y="508" type="curve" smooth="yes"/>
      <point x="496.8035714286" y="508"/>
      <point x="546.9999968473" y="456.000542258"/>
      <point x="548" y="284" type="curve" smooth="yes"/>
      <point x="548" y="114"/>
      <point x="496.8035714286" y="61"/>
      <point x="426" y="61" type="curve" smooth="yes"/>
      <point x="356.2342342342" y="61"/>
      <point x="305" y="114"/>
    </contour>
    <contour>
      <point x="269" y="265" type="line"/>
      <point x="581" y="265" type="line"/>
      <point x="581" y="320" type="line"/>
      <point x="269" y="320" type="line"/>
    </contour>
  </outline>
</glyph>
<glyph name="Hastrokecyr" format="2">
  <advance width="950"/>
  <unicode hex="04FE"/>
  <outline>
    <contour>
      <point x="110" y="395" type="line"/>
      <point x="110" y="336" type="line"/>
      <point x="826" y="336" type="line"/>
      <point x="826" y="395" type="line"/>
    </contour>
    <contour>
      <point x="32" y="645" type="line"/>
      <point x="38" y="645" type="line" smooth="yes"/>
      <point x="85" y="645"/>
      <point x="101" y="637"/>
      <point x="128" y="601" type="curve" smooth="yes"/>
      <point x="323" y="338" type="line"/>
      <point x="343" y="328" type="line"/>
      <point x="543" y="58" type="line"/>
      <point x="543" y="52"/>
      <point x="510" y="50"/>
      <point x="484" y="50" type="curve" smooth="yes"/>
      <point x="466" y="50" type="line"/>
      <point x="466" y="0" type="line"/>
      <point x="920" y="0" type="line"/>
      <point x="920" y="65" type="line"/>
      <point x="907" y="65" type="line" smooth="yes"/>
      <point x="875" y="65"/>
      <point x="847" y="72"/>
      <point x="816" y="113" type="curve" smooth="yes"/>
      <point x="607" y="389" type="line"/>
      <point x="587" y="401" type="line"/>
      <point x="404" y="652" type="line"/>
      <point x="404" y="656"/>
      <point x="425" y="660"/>
      <point x="460" y="660" type="curve" smooth="yes"/>
      <point x="478" y="660" type="line"/>
      <point x="478" y="710" type="line"/>
      <point x="32" y="710" type="line"/>
    </contour>
    <contour>
      <point x="33" y="0" type="line"/>
      <point x="296" y="0" type="line"/>
      <point x="296" y="50" type="line"/>
      <point x="275" y="50" type="line" smooth="yes"/>
      <point x="250" y="50"/>
      <point x="179" y="53"/>
      <point x="179" y="62" type="curve"/>
      <point x="412" y="358" type="line"/>
      <point x="372" y="401" type="line"/>
      <point x="129" y="96" type="line" smooth="yes"/>
      <point x="109" y="71"/>
      <point x="76" y="65"/>
      <point x="45" y="65" type="curve" smooth="yes"/>
      <point x="33" y="65" type="line"/>
    </contour>
    <contour>
      <point x="549" y="315" type="line"/>
      <point x="774" y="597" type="line" smooth="yes"/>
      <point x="805" y="636"/>
      <point x="835" y="645"/>
      <point x="877" y="645" type="curve" smooth="yes"/>
      <point x="883" y="645" type="line"/>
      <point x="883" y="710" type="line"/>
      <point x="625" y="710" type="line"/>
      <point x="625" y="660" type="line"/>
      <point x="640" y="660" type="line" smooth="yes"/>
      <point x="668" y="660"/>
      <point x="737" y="657"/>
      <point x="737" y="648" type="curve"/>
      <point x="542" y="400" type="line"/>
    </contour>
  </outline>
</glyph>
<glyph name="hastrokecyr" format="2">
  <advance width="917"/>
  <unicode hex="04FF"/>
  <outline>
    <contour>
      <point x="100" y="263" type="line"/>
      <point x="806" y="263" type="line"/>
      <point x="806" y="318" type="line"/>
      <point x="100" y="318" type="line"/>
    </contour>
    <contour>
      <point x="892" y="0" type="line"/>
      <point x="892" y="50" type="line"/>
      <point x="885" y="50" type="line"/>
      <point x="847" y="50"/>
      <point x="827" y="55"/>
      <point x="804" y="81" type="curve" smooth="yes"/>
      <point x="597" y="316" type="line"/>
      <point x="580" y="317" type="line"/>
      <point x="424" y="518" type="line"/>
      <point x="430" y="523"/>
      <point x="454" y="526"/>
      <point x="490" y="526" type="curve" smooth="yes"/>
      <point x="492" y="526" type="line"/>
      <point x="492" y="572" type="line"/>
      <point x="37" y="572" type="line"/>
      <point x="37" y="522" type="line"/>
      <point x="47" y="522" type="line"/>
      <point x="86" y="522"/>
      <point x="107" y="512"/>
      <point x="130" y="485" type="curve" smooth="yes"/>
      <point x="310" y="275" type="line"/>
      <point x="330" y="272" type="line"/>
      <point x="502" y="57" type="line"/>
      <point x="499" y="51"/>
      <point x="474" y="45"/>
      <point x="445" y="45" type="curve" smooth="yes"/>
      <point x="441" y="45" type="line"/>
      <point x="441" y="0" type="line"/>
    </contour>
    <contour>
      <point x="18" y="0" type="line"/>
      <point x="307" y="0" type="line"/>
      <point x="307" y="45" type="line"/>
      <point x="304" y="45" type="line" smooth="yes"/>
      <point x="263" y="45"/>
      <point x="186" y="52"/>
      <point x="186" y="63" type="curve"/>
      <point x="352" y="271" type="line"/>
      <point x="309" y="311" type="line"/>
      <point x="125" y="84" type="line" smooth="yes"/>
      <point x="99" y="52"/>
      <point x="67" y="50"/>
      <point x="22" y="50" type="curve"/>
      <point x="18" y="50" type="line"/>
    </contour>
    <contour>
      <point x="597" y="273" type="line"/>
      <point x="784" y="496" type="line" smooth="yes"/>
      <point x="809" y="526"/>
      <point x="842" y="522"/>
      <point x="872" y="522" type="curve"/>
      <point x="882" y="522" type="line"/>
      <point x="882" y="572" type="line"/>
      <point x="607" y="572" type="line"/>
      <point x="607" y="526" type="line"/>
      <point x="612" y="526" type="line" smooth="yes"/>
      <point x="650" y="526"/>
      <point x="719" y="524"/>
      <point x="724" y="518" type="curve"/>
      <point x="554" y="313" type="line"/>
    </contour>
  </outline>
</glyph>
<glyph name="quoteright" format="2">
  <advance width="407"/>
  <unicode hex="2019"/>
  <outline>
    <contour>
      <point x="103" y="378" type="line"/>
      <point x="255" y="414"/>
      <point x="347" y="485"/>
      <point x="347" y="648" type="curve" smooth="yes"/>
      <point x="347" y="750"/>
      <point x="294" y="790"/>
      <point x="209" y="790" type="curve" smooth="yes"/>
      <point x="121" y="790"/>
      <point x="84" y="752"/>
      <point x="84" y="693" type="curve" smooth="yes"/>
      <point x="84" y="629"/>
      <point x="113" y="602"/>
      <point x="186" y="602" type="curve" smooth="yes"/>
      <point x="224" y="602"/>
      <point x="272" y="618"/>
      <point x="297" y="634" type="curve"/>
      <point x="264" y="635" type="line"/>
      <point x="264" y="541"/>
      <point x="192" y="484"/>
      <point x="73" y="473" type="curve"/>
    </contour>
  </outline>
</glyph>
<glyph name="dagger" format="2">
  <advance width="639"/>
  <unicode hex="2020"/>
  <outline>
    <contour>
      <point x="280" y="459" type="line"/>
      <point x="360" y="459" type="line"/>
      <point x="563" y="385" type="line"/>
      <point x="619" y="385" type="line"/>
      <point x="619" y="558" type="line"/>
      <point x="563" y="558" type="line"/>
      <point x="360" y="495" type="line"/>
      <point x="280" y="495" type="line"/>
      <point x="76" y="558" type="line"/>
      <point x="20" y="558" type="line"/>
      <point x="20" y="385" type="line"/>
      <point x="76" y="385" type="line"/>
    </contour>
    <contour>
      <point x="465" y="710" type="line"/>
      <point x="175" y="710" type="line"/>
      <point x="175" y="665" type="line" smooth="yes"/>
      <point x="175" y="625"/>
      <point x="301" y="558"/>
      <point x="301" y="473" type="curve" smooth="yes"/>
      <point x="301" y="360"/>
      <point x="196" y="316"/>
      <point x="177" y="302" type="curve"/>
      <point x="177" y="278" type="line" smooth="yes"/>
      <point x="177" y="237"/>
      <point x="233" y="151"/>
      <point x="273" y="-67" type="curve"/>
      <point x="367" y="-67" type="line"/>
      <point x="407" y="151"/>
      <point x="463" y="237"/>
      <point x="463" y="278" type="curve" smooth="yes"/>
      <point x="463" y="302" type="line"/>
      <point x="443" y="316"/>
      <point x="339" y="360"/>
      <point x="339" y="473" type="curve" smooth="yes"/>
      <point x="339" y="558"/>
      <point x="465" y="625"/>
      <point x="465" y="665" type="curve" smooth="yes"/>
    </contour>
  </outline>
</glyph>
<glyph name="minute" format="2">
  <advance width="299"/>
  <unicode hex="2032"/>
  <outline>
    <contour>
      <point x="285" y="769" type="line"/>
      <point x="259" y="668"/>
      <point x="184" y="597"/>
      <point x="144" y="447" type="curve"/>
      <point x="70" y="447" type="line"/>
      <point x="110" y="597"/>
      <point x="73" y="667"/>
      <point x="100" y="769" type="curve"/>
    </contour>
  </outline>
</glyph>
<glyph name="plus.sup" format="2">
  <advance width="453"/>
  <unicode hex="207A"/>
  <outline>
    <contour>
      <point x="182" y="760" type="line"/>
      <point x="182" y="415" type="line"/>
      <point x="271" y="415" type="line"/>
      <point x="271" y="760" type="line"/>
    </contour>
    <contour>
      <point x="411" y="629" type="line"/>
      <point x="41" y="629" type="line"/>
      <point x="41" y="546" type="line"/>
      <point x="411" y="546" type="line"/>
    </contour>
  </outline>
</glyph>
<glyph name="lira" format="2">
  <advance width="680"/>
  <unicode hex="20A4"/>
  <outline>
    <contour>
      <point x="44" y="461" type="line"/>
      <point x="44" y="413" type="line"/>
      <point x="504" y="413" type="line"/>
      <point x="504" y="461" type="line"/>
    </contour>
    <contour>
      <point x="44" y="342" type="line"/>
      <point x="44" y="294" type="line"/>
      <point x="504" y="294" type="line"/>
      <point x="504" y="342" type="line"/>
    </contour>
    <contour>
      <point x="44" y="-13" type="line"/>
      <point x="241" y="27"/>
      <point x="341" y="140"/>
      <point x="341" y="281" type="curve" smooth="yes"/>
      <point x="341" y="416"/>
      <point x="302" y="448"/>
      <point x="302" y="558" type="curve" smooth="yes"/>
      <point x="302" y="654"/>
      <point x="330" y="679"/>
      <point x="397" y="679" type="curve" smooth="yes"/>
      <point x="450" y="679"/>
      <point x="499" y="661"/>
      <point x="524" y="634" type="curve"/>
      <point x="519" y="653"/>
      <point x="480" y="718"/>
      <point x="445" y="720" type="curve"/>
      <point x="445" y="564" type="line"/>
      <point x="605" y="564" type="line"/>
      <point x="605" y="694" type="line"/>
      <point x="573" y="714"/>
      <point x="464" y="735"/>
      <point x="378" y="735" type="curve" smooth="yes"/>
      <point x="173" y="735"/>
      <point x="83" y="668"/>
      <point x="83" y="569" type="curve" smooth="yes"/>
      <point x="83" y="454"/>
      <point x="186" y="457"/>
      <point x="186" y="264" type="curve" smooth="yes"/>
      <point x="186" y="150"/>
      <point x="147" y="99"/>
      <point x="44" y="74" type="curve"/>
    </contour>
    <contour>
      <point x="491" y="-10" type="curve" smooth="yes"/>
      <point x="590" y="-10"/>
      <point x="635" y="95"/>
      <point x="651" y="201" type="curve"/>
      <point x="587" y="217" type="line"/>
      <point x="559" y="159"/>
      <point x="528" y="132"/>
      <point x="461" y="132" type="curve" smooth="yes"/>
      <point x="419" y="132"/>
      <point x="363" y="141"/>
      <point x="320" y="190" type="curve"/>
      <point x="298" y="162" type="line"/>
      <point x="365" y="29"/>
      <point x="398" y="-10"/>
    </contour>
  </outline>
</glyph>
<glyph name="peseta" format="2">
  <advance width="680"/>
  <unicode hex="20A7"/>
  <outline>
    <contour>
      <point x="25" y="0" type="line"/>
      <point x="271" y="0" type="line"/>
      <point x="271" y="65" type="line"/>
      <point x="249" y="65" type="line" smooth="yes"/>
      <point x="230" y="65"/>
      <point x="203" y="68"/>
      <point x="203" y="75" type="curve" smooth="yes"/>
      <point x="203" y="222" type="line"/>
      <point x="219" y="222" type="line" smooth="yes"/>
      <point x="370" y="222"/>
      <point x="429" y="325"/>
      <point x="429" y="472" type="curve" smooth="yes"/>
      <point x="429" y="619"/>
      <point x="368" y="710"/>
      <point x="219" y="710" type="curve" smooth="yes"/>
      <point x="25" y="710" type="line"/>
      <point x="25" y="645" type="line"/>
      <point x="41" y="645" type="line" smooth="yes"/>
      <point x="65" y="645"/>
      <point x="72" y="638"/>
      <point x="72" y="609" type="curve" smooth="yes"/>
      <point x="72" y="101" type="line" smooth="yes"/>
      <point x="72" y="72"/>
      <point x="65" y="65"/>
      <point x="41" y="65" type="curve" smooth="yes"/>
      <point x="25" y="65" type="line"/>
    </contour>
    <contour>
      <point x="220" y="645" type="line" smooth="yes"/>
      <point x="272" y="645"/>
      <point x="303" y="617"/>
      <point x="303" y="471" type="curve" smooth="yes"/>
      <point x="303" y="325"/>
      <point x="277" y="287"/>
      <point x="221" y="287" type="curve" smooth="yes"/>
      <point x="203" y="287" type="line"/>
      <point x="203" y="645" type="line"/>
    </contour>
    <contour>
      <point x="517" y="535" type="line"/>
      <point x="463" y="548" type="line"/>
      <point x="463" y="95" type="line" smooth="yes"/>
      <point x="463" y="13"/>
      <point x="508" y="-12"/>
      <point x="580" y="-12" type="curve" smooth="yes"/>
      <point x="613" y="-12"/>
      <point x="639" y="-10"/>
      <point x="657" y="-7" type="curve"/>
      <point x="657" y="49" type="line"/>
      <point x="653" y="49"/>
      <point x="645" y="47"/>
      <point x="633" y="47" type="curve" smooth="yes"/>
      <point x="613" y="47"/>
      <point x="601" y="51"/>
      <point x="601" y="71" type="curve"/>
      <point x="601" y="710" type="line"/>
      <point x="479" y="710" type="line"/>
      <point x="479" y="594" type="line"/>
      <point x="479" y="533"/>
      <point x="464" y="522"/>
      <point x="425" y="522" type="curve" smooth="yes"/>
      <point x="400" y="522" type="line"/>
      <point x="400" y="480" type="line"/>
      <point x="660" y="480" type="line"/>
      <point x="660" y="535" type="line"/>
    </contour>
  </outline>
</glyph>
<glyph name="won" format="2">
  <advance width="680"/>
  <unicode hex="20A9"/>
  <outline>
    <contour>
      <point x="22" y="710" type="line"/>
      <point x="22" y="645" type="line"/>
      <point x="40" y="645" type="line" smooth="yes"/>
      <point x="56" y="645"/>
      <point x="71" y="642"/>
      <point x="74" y="608" type="curve" smooth="yes"/>
      <point x="125" y="0" type="line"/>
      <point x="265" y="0" type="line"/>
      <point x="354" y="703" type="line"/>
      <point x="325" y="707" type="line"/>
      <point x="411" y="0" type="line"/>
      <point x="550" y="0" type="line"/>
      <point x="603" y="602" type="line" smooth="yes"/>
      <point x="605" y="636"/>
      <point x="614" y="645"/>
      <point x="638" y="645" type="curve" smooth="yes"/>
      <point x="656" y="645" type="line"/>
      <point x="656" y="710" type="line"/>
      <point x="515" y="710" type="line"/>
      <point x="515" y="645" type="line"/>
      <point x="524" y="645" type="line" smooth="yes"/>
      <point x="543" y="645"/>
      <point x="565" y="640"/>
      <point x="565" y="627" type="curve"/>
      <point x="515" y="8" type="line"/>
      <point x="533" y="10" type="line"/>
      <point x="443" y="710" type="line"/>
      <point x="322" y="710" type="line"/>
      <point x="228" y="12" type="line"/>
      <point x="249" y="15" type="line"/>
      <point x="200" y="635" type="line"/>
      <point x="200" y="642"/>
      <point x="209" y="645"/>
      <point x="225" y="645" type="curve" smooth="yes"/>
      <point x="234" y="645" type="line"/>
      <point x="234" y="710" type="line"/>
    </contour>
    <contour>
      <point x="33" y="519" type="line"/>
      <point x="33" y="446" type="line"/>
      <point x="202" y="446" type="line"/>
      <point x="196" y="446" type="line"/>
      <point x="295" y="497" type="line"/>
      <point x="302" y="519" type="line"/>
    </contour>
    <contour>
      <point x="462" y="497" type="line"/>
      <point x="555" y="446" type="line"/>
      <point x="555" y="446" type="line"/>
      <point x="647" y="446" type="line"/>
      <point x="647" y="519" type="line"/>
      <point x="456" y="519" type="line"/>
    </contour>
    <contour>
      <point x="279" y="180" type="line"/>
      <point x="411" y="180" type="line"/>
      <point x="398" y="205" type="line"/>
      <point x="342" y="242" type="line"/>
      <point x="290" y="205" type="line"/>
    </contour>
    <contour>
      <point x="157" y="260" type="line"/>
      <point x="33" y="260" type="line"/>
      <point x="33" y="187" type="line"/>
      <point x="169" y="187" type="line"/>
    </contour>
    <contour>
      <point x="535" y="187" type="line"/>
      <point x="647" y="187" type="line"/>
      <point x="647" y="260" type="line"/>
      <point x="540" y="260" type="line"/>
    </contour>
  </outline>
</glyph>
